<?xml version="1.0" encoding="iso-8859-1"?>
<!-- Generator: Adobe Illustrator 19.0.0, SVG Export Plug-In . SVG Version: 6.00 Build 0)  -->
<svg version="1.1" id="Capa_1" xmlns="http://www.w3.org/2000/svg" xmlns:xlink="http://www.w3.org/1999/xlink" x="0px" y="0px"
	 viewBox="0 0 460 460" style="enable-background:new 0 0 460 460;" xml:space="preserve">
<g>
	<path style="fill:#05232E;" d="M302.5,0c-16.569,0-30,13.432-30,30h30V0z"/>
	<path style="fill:#FB5858;" d="M55,220c-16.568,0-30,13.431-30,30v40c16.567,0,30-13.433,30-30c0-15.333,5.834-29.364,15.385-40H55
		z"/>
	<path style="fill:#FB5858;" d="M362.5,80H385V40c-9.638,0-18.208,4.55-23.697,11.614c0.774,2.663,1.197,5.474,1.197,8.386V80z"/>
	<path style="fill:#8F5543;" d="M285,430h30V309.563c-9.263,5.931-19.332,10.71-30,14.157V430z"/>
	<rect x="285" y="430" style="fill:#05232E;" width="30" height="30"/>
	<path style="fill:#8F5543;" d="M85,336.219V430h30v-90c26.174,0,50.387-8.385,70.11-22.608l-47.813-10.066
		C122.798,320.995,104.9,331.097,85,336.219z"/>
	<rect x="85" y="430" style="fill:#05232E;" width="30" height="30"/>
	<path style="fill:#FB5858;" d="M170.409,252.981l79.89,16.819C286.264,267.063,315,236.412,315,200H175v20
		C175,231.438,173.398,242.502,170.409,252.981z"/>
	<path style="fill:#FAEAB6;" d="M345,135v65c0,51.764-39.54,94.463-90,99.5v30.122c10.391-0.791,20.436-2.811,30-5.901
		c10.668-3.447,20.737-8.227,30-14.157c36.083-23.102,60-63.539,60-109.563v-70L345,135z"/>
	<path style="fill:#FAEAB6;" d="M225,295.132l-66.702-14.042c-5.755,9.71-12.837,18.54-21.001,26.236l47.813,10.066L225,325.79
		V295.132z"/>
	<rect x="25" y="430" style="fill:#8F5543;" width="30" height="30"/>
	<rect x="225" y="430" style="fill:#8F5543;" width="30" height="30"/>
	<path style="fill:#325763;" d="M345,40v40h17.5V60c0-2.912-0.423-5.724-1.197-8.386C357.674,39.128,346.156,30,332.5,30h-90V0
		c-16.569,0-30,13.432-30,30s13.432,30,30,30h74.214C320.833,48.35,331.939,40,345,40z"/>
	<path style="fill:#FF835D;" d="M435,80h-90V40c-13.061,0-24.167,8.35-28.286,20C315.608,63.128,315,66.493,315,70v130
		c0,36.412-28.736,67.063-64.701,69.8l-79.89-16.819C173.398,242.502,175,231.438,175,220v-20h-60c-17.668,0-33.61,7.744-44.615,20
		C60.834,230.636,55,244.667,55,260v52.5H25V430h30v-90c10.359,0,20.411-1.313,30-3.781c19.9-5.122,37.798-15.225,52.297-28.894
		c8.164-7.697,15.246-16.526,21.001-26.236L225,295.132V430h30V299.5c50.46-5.036,90-47.736,90-99.5v-65l90-15V80z"/>
</g>
<g>
</g>
<g>
</g>
<g>
</g>
<g>
</g>
<g>
</g>
<g>
</g>
<g>
</g>
<g>
</g>
<g>
</g>
<g>
</g>
<g>
</g>
<g>
</g>
<g>
</g>
<g>
</g>
<g>
</g>
</svg>
