<?xml version="1.0" encoding="iso-8859-1"?>
<!-- Generator: Adobe Illustrator 19.0.0, SVG Export Plug-In . SVG Version: 6.00 Build 0)  -->
<svg version="1.1" id="Capa_1" xmlns="http://www.w3.org/2000/svg" xmlns:xlink="http://www.w3.org/1999/xlink" x="0px" y="0px"
	 viewBox="0 0 460 460" style="enable-background:new 0 0 460 460;" xml:space="preserve">
<g>
	<path style="fill:#FBB071;" d="M0,232.5h30v-30C13.432,202.5,0,215.932,0,232.5z"/>
	<rect x="30" y="202.5" style="fill:#C97E67;" width="30" height="30"/>
	<rect y="232.5" style="fill:#C97E67;" width="30" height="30"/>
	<path style="fill:#FBB071;" d="M80,232.5c0-10.266,1.017-20.292,2.922-30H60v30H80z"/>
	<rect y="262.5" style="fill:#FBB071;" width="30" height="30"/>
	<path style="fill:#C97E67;" d="M210,352.5h-30v30C196.569,382.5,210,369.068,210,352.5z"/>
	<rect x="90" y="352.5" style="fill:#FBB071;" width="30" height="30"/>
	<rect x="120" y="352.5" style="fill:#C97E67;" width="30" height="30"/>
	<rect x="150" y="352.5" style="fill:#FBB071;" width="30" height="30"/>
	<rect x="60" y="352.5" style="fill:#C97E67;" width="30" height="30"/>
	<rect x="30" y="352.5" style="fill:#FBB071;" width="30" height="30"/>
	<rect y="322.5" style="fill:#FBB071;" width="30" height="30"/>
	<rect y="292.5" style="fill:#C97E67;" width="30" height="30"/>
	<path style="fill:#C97E67;" d="M30,382.5v-30H0C0,369.068,13.432,382.5,30,382.5z"/>
	<path style="fill:#C97E67;" d="M82.922,202.5c-1.905,9.708-2.922,19.734-2.922,30h90V91.758
		C125.61,112.293,92.592,153.211,82.922,202.5z"/>
	<path style="fill:#FBB071;" d="M235,77.5c-1.674,0-3.339,0.034-5,0.087V232.5h30V79.516C251.861,78.195,243.512,77.5,235,77.5z"/>
	<path style="fill:#FBB071;" d="M170,91.758V232.5h30V81.485C189.559,83.898,179.517,87.355,170,91.758z"/>
	<path style="fill:#C97E67;" d="M200,81.485V232.5h30V77.587C219.714,77.914,209.685,79.248,200,81.485z"/>
	<path style="fill:#FBB071;" d="M401.069,172.5c-1.258-2.91-2.537-5.976-3.76-9.065l-19.286-15.307
		c-2.138,7.538-5.694,16.518-9.091,24.372h-17.863c-0.355-0.821-0.712-1.656-1.069-2.498V232.5h48.944
		c34.193,0,61.056-26.863,61.056-60H401.069z"/>
	<path style="fill:#8F5543;" d="M340,137.135c0-5.844,1.271-11.385,3.524-16.387l-12.248-9.721
		C311.019,94.951,286.648,83.839,260,79.516V302.5h30v-70h60v-62.498C345,158.193,340,144.537,340,137.135z"/>
	<path style="fill:#8F5543;" d="M418.931,172.5c5.33-12.324,11.069-27.435,11.069-35.365c0-14.803-8.047-27.718-20-34.635
		c-11.953,6.917-20,19.832-20,34.635c0,6.058,3.351,16.305,7.308,26.3c1.223,3.089,2.502,6.155,3.76,9.065H418.931z"/>
	<path style="fill:#FBB071;" d="M320,302.5c0-16.568-13.431-30-30-30v30H320z"/>
	<path style="fill:#FBB071;" d="M350,302.5h30c0-16.568-13.431-30-30-30V302.5z"/>
	<rect x="320" y="232.5" style="fill:#C97E67;" width="30" height="70"/>
	<path style="fill:#FBB071;" d="M110,302.5c0-16.568-13.431-30-30-30v30H110z"/>
	<path style="fill:#8F5543;" d="M50,232.5v70h30v-40c31.586,0,60.538-11.269,83.064-30H50z"/>
	<path style="fill:#C97E67;" d="M350,170.002c0.357,0.842,0.714,1.677,1.069,2.498h17.863c3.397-7.854,6.953-16.834,9.091-24.372
		c1.217-4.289,1.978-8.117,1.978-10.993c0-14.803-8.047-27.718-20-34.635c-7.234,4.187-13.021,10.579-16.476,18.248
		c-2.253,5.002-3.524,10.543-3.524,16.387C340,144.537,345,158.193,350,170.002z"/>
</g>
<g>
</g>
<g>
</g>
<g>
</g>
<g>
</g>
<g>
</g>
<g>
</g>
<g>
</g>
<g>
</g>
<g>
</g>
<g>
</g>
<g>
</g>
<g>
</g>
<g>
</g>
<g>
</g>
<g>
</g>
</svg>
