<?xml version="1.0" encoding="iso-8859-1"?>
<!-- Generator: Adobe Illustrator 19.0.0, SVG Export Plug-In . SVG Version: 6.00 Build 0)  -->
<svg version="1.1" id="Capa_1" xmlns="http://www.w3.org/2000/svg" xmlns:xlink="http://www.w3.org/1999/xlink" x="0px" y="0px"
	 viewBox="0 0 460 460" style="enable-background:new 0 0 460 460;" xml:space="preserve">
<g>
	<path style="fill:#05232E;" d="M347.858,80c-1.244-11.249-10.778-20-22.358-20s-21.114,8.751-22.358,20H347.858z"/>
	<path style="fill:#8F5543;" d="M410.858,80c-1.244-11.249-10.778-20-22.358-20s-21.114,8.751-22.358,20H130v220h120
		c0,55.228,44.771,100,100,100h40c0-16.569-13.431-30-30-30h-10V214.324l85.142-57.529C448.814,147.558,460,126.5,460,110V80
		H410.858z M190,140h-30v-30h30V140z M230,180h-30v-30h30V180z"/>
	<path style="fill:#05232E;" d="M230,400h40c0-16.569-13.431-30-30-30h-10v-70H130C130,355.228,174.771,400,230,400z"/>
	<path style="fill:#C97E67;" d="M100,80C45,80,0,125,0,180v220c55.229,0,100-44.772,100-100h30V80H100z M100,240H70v-30h30V240z"/>
	<rect x="160" y="110" style="fill:#C97E67;" width="30" height="30"/>
	<rect x="200" y="150" style="fill:#C97E67;" width="30" height="30"/>
	<rect x="70" y="210" style="fill:#8F5543;" width="30" height="30"/>
</g>
<g>
</g>
<g>
</g>
<g>
</g>
<g>
</g>
<g>
</g>
<g>
</g>
<g>
</g>
<g>
</g>
<g>
</g>
<g>
</g>
<g>
</g>
<g>
</g>
<g>
</g>
<g>
</g>
<g>
</g>
</svg>
