<?xml version="1.0" encoding="iso-8859-1"?>
<!-- Generator: Adobe Illustrator 19.0.0, SVG Export Plug-In . SVG Version: 6.00 Build 0)  -->
<svg version="1.1" id="Capa_1" xmlns="http://www.w3.org/2000/svg" xmlns:xlink="http://www.w3.org/1999/xlink" x="0px" y="0px"
	 viewBox="0 0 460.001 460.001" style="enable-background:new 0 0 460.001 460.001;" xml:space="preserve">
<g>
	<path style="fill:#325763;" d="M275.002,5.226h-30v36.401c10.634,1.554,20.717,4.733,30,9.283V5.226z"/>
	<path style="fill:#6B8F9C;" d="M215.002,5.226h-30v45.68c9.283-4.549,19.366-7.727,30-9.28V5.226z"/>
	<path style="fill:#325763;" d="M284.317,324.519c17.332,0.003,29.337,0,29.99,0c-8.577,12.452-19.211,22.733-30.003,31.056
		l-0.043,99.181l30,0.011l0.056-130.248c-0.106-0.003-2.771,0.001-7.367,0C301.642,324.519,293.775,324.52,284.317,324.519z"/>
	<path style="fill:#325763;" d="M332.497,264.256c-0.058,12.511-2.015,24.036-5.451,34.503l26.651,22.202v62.973h30v-77.027
		L332.497,264.256z"/>
	<path style="fill:#6B8F9C;" d="M175.677,324.519h-0.361h-29.639C145.682,324.519,157.866,324.522,175.677,324.519z"/>
	<path style="fill:#6B8F9C;" d="M145.677,324.519l0.057,130.256l30-0.01l-0.043-99.187
		C164.895,347.255,154.258,336.973,145.677,324.519z"/>
	<path style="fill:#6B8F9C;" d="M127.507,264.251l-51.202,42.655v77.027h30v-62.973l26.654-22.205
		C129.522,288.29,127.565,276.765,127.507,264.251z"/>
	<polygon style="fill:#325763;" points="383.697,139.28 383.697,62.253 353.697,62.253 353.697,125.225 332.497,143.746 
		355.491,162.777 	"/>
	<path style="fill:#6B8F9C;" d="M127.507,181.934v-38.187C127.505,143.746,127.505,181.932,127.507,181.934z"/>
	<polygon style="fill:#6B8F9C;" points="106.305,125.225 106.305,62.253 76.305,62.253 76.305,139.28 104.51,162.777 
		127.505,143.746 	"/>
	<path style="fill:#F6D76F;" d="M377.727,241.376l-45.23-37.38v60.257l51.2,42.653C400.147,287.156,397.467,257.826,377.727,241.376
		z"/>
	<path style="fill:#FAE8AC;" d="M443.247,235.406l-110.75-91.66v60.25l45.23,37.38c19.74,16.45,22.42,45.78,5.97,65.53
		c19.74,16.44,49.08,13.77,65.53-5.97C465.667,281.186,462.997,251.856,443.247,235.406z"/>
	<path style="fill:#FAE8AC;" d="M127.505,203.996l-45.23,37.38c-19.74,16.45-22.42,45.78-5.97,65.53l51.2-42.653V203.996z"/>
	<path style="fill:#FDF3D3;" d="M82.275,241.376l45.23-37.38v-60.25l-110.75,91.66c-19.75,16.45-22.42,45.78-5.98,65.53
		c16.45,19.739,45.79,22.41,65.53,5.97C59.855,287.156,62.535,257.826,82.275,241.376z"/>
	<rect x="230.001" y="204.006" style="fill:#05232E;" width="102.496" height="60.25"/>
	<rect x="230.001" y="143.746" style="fill:#FBB071;" width="102.496" height="60.26"/>
	<path style="fill:#05232E;" d="M332.497,143.746c0-40.817-23.326-76.089-57.495-92.835c-9.283-4.55-19.366-7.729-30-9.283
		c-4.894-0.715-9.898-1.092-15.001-1.092v103.21H332.497z"/>
	<path style="fill:#FBB071;" d="M230.001,264.256c0,0-0.009,60.264,0,60.264h84.316c5.288-7.66,9.614-16.274,12.729-25.761
		c3.436-10.467,5.393-21.992,5.451-34.503H230.001z"/>
	<path style="fill:#F6D76F;" d="M284.317,324.519c9.458,0.001,17.325,0,22.633,0c4.42-0.001,7.068,0.002,7.367,0
		c0,0-31.129,0-66.641,0h-17.675c3.89,0,11.667,0,15.502,0C259.585,324.52,273.071,324.518,284.317,324.519z"/>
	<path style="fill:#05232E;" d="M230.001,324.519c-0.005,0,0,60.257,0,60.257s-5.957-1.86-15-5.906v45.356h30v-45.36
		c10.446-4.674,25.013-12.27,39.303-23.29c10.793-8.323,21.426-18.604,30.003-31.057
		C313.654,324.519,230.001,324.519,230.001,324.519z"/>
	<path style="fill:#325763;" d="M230.001,324.519c-18.162,0-84.319,0-84.324,0c8.581,12.453,19.218,22.735,30.013,31.059
		c14.294,11.021,28.864,18.617,39.31,23.291c9.043,4.046,15,5.906,15,5.906V324.519z"/>
	<path style="fill:#F6D76F;" d="M230.001,324.519v-60.264H127.507c0.058,12.51,2.015,24.034,5.452,34.5
		c3.116,9.486,7.445,18.108,12.728,25.764H230.001z"/>
	<rect x="127.507" y="204.006" style="fill:#325763;" width="102.494" height="60.25"/>
	<rect x="127.507" y="143.746" style="fill:#F6D76F;" width="102.494" height="60.26"/>
	<path style="fill:#325763;" d="M230.001,40.536c-5.099,0-10.108,0.376-14.999,1.09c-10.634,1.554-20.717,4.731-30,9.28
		c-34.17,16.745-57.495,52.02-57.495,92.84h102.494V40.536z"/>
</g>
<g>
</g>
<g>
</g>
<g>
</g>
<g>
</g>
<g>
</g>
<g>
</g>
<g>
</g>
<g>
</g>
<g>
</g>
<g>
</g>
<g>
</g>
<g>
</g>
<g>
</g>
<g>
</g>
<g>
</g>
</svg>
