<?xml version="1.0" encoding="iso-8859-1"?>
<!-- Generator: Adobe Illustrator 19.0.0, SVG Export Plug-In . SVG Version: 6.00 Build 0)  -->
<svg version="1.1" id="Capa_1" xmlns="http://www.w3.org/2000/svg" xmlns:xlink="http://www.w3.org/1999/xlink" x="0px" y="0px"
	 viewBox="0 0 460 460" style="enable-background:new 0 0 460 460;" xml:space="preserve">
<g>
	<path style="fill:#05232E;" d="M420,103.092v50h-30v-50h-15.429c-12.503-32.264-45.198-51.403-83.301-44.93L250,65.242v262.85
		l40,75h30v-100h30l10.588-60H390v30h30l20-30c11.046,0,20-8.954,20-20v-80C460,121.092,442,103.092,420,103.092z"/>
	<rect x="320" y="303.092" style="fill:#325763;" width="30" height="100"/>
	<path style="fill:#05232E;" d="M60,327.254v75.837h30v-70c37.277,0,68.599-25.495,77.479-60h-60
		C101.127,297.773,83.283,317.826,60,327.254z"/>
	<rect x="390" y="73.092" style="fill:#F6D76F;" width="30" height="80"/>
	<path style="fill:#C97E67;" d="M133.839,85.184L89.12,92.862C56.6,98.482,30,130.092,30,163.092v10
		c0.002,0,0.002,40.002,0.002,40.002c0,0.021-0.002,0.042-0.002,0.063v69.935H0v120h30v-70c10.613,0,20.733-2.085,30-5.837
		c23.283-9.428,41.127-29.481,47.479-54.163H170l40,30h40v-120C191.711,183.092,143.314,140.772,133.839,85.184z M70,173.092h30v30
		H70V173.092z M140,243.092h-30v-30h30V243.092z"/>
	<path style="fill:#05232E;" d="M30.002,173.092C13.431,173.093,0,186.524,0,203.093v40.002c16.548,0,29.966-13.398,30-29.939
		c0-0.021,0.002-0.042,0.002-0.063V173.092z"/>
	<rect x="70" y="173.092" style="fill:#05232E;" width="30" height="30"/>
	<rect x="110" y="213.092" style="fill:#05232E;" width="30" height="30"/>
	<path style="fill:#325763;" d="M250,183.092V65.242l-39.112,6.715l-77.049,13.228C143.314,140.772,191.711,183.092,250,183.092z"/>
</g>
<g>
</g>
<g>
</g>
<g>
</g>
<g>
</g>
<g>
</g>
<g>
</g>
<g>
</g>
<g>
</g>
<g>
</g>
<g>
</g>
<g>
</g>
<g>
</g>
<g>
</g>
<g>
</g>
<g>
</g>
</svg>
