<?xml version="1.0" encoding="iso-8859-1"?>
<!-- Generator: Adobe Illustrator 19.0.0, SVG Export Plug-In . SVG Version: 6.00 Build 0)  -->
<svg version="1.1" id="Capa_1" xmlns="http://www.w3.org/2000/svg" xmlns:xlink="http://www.w3.org/1999/xlink" x="0px" y="0px"
	 viewBox="0 0 460 460" style="enable-background:new 0 0 460 460;" xml:space="preserve">
<g>
	<path style="fill:#C97E67;" d="M60,317.233v120.519h30V322.792c36.532,0,67.58-23.411,79.007-56.041h-60
		C100.888,289.935,82.864,308.45,60,317.233z"/>
	<polygon style="fill:#8F5543;" points="315.938,266.751 295.021,266.751 295.021,437.751 325.021,437.751 325.021,266.752 	"/>
	<path style="fill:#FBB071;" d="M460,36.752h-30V22.249h-30c-13.061,0-24.167,8.349-28.286,20H350c0,10.999,9.001,20,20,20v101.439
		c0,12.718-10.347,23.064-23.064,23.064h-29.462c-12.995-31.536-41.577-55.006-76.164-60.78c0-11.33-2.95-21.97-8.13-31.19
		c-17.2,6.94-35.99,10.76-55.67,10.76v41.21h30v30h-30v90h57.511v171h30v-171h50.917c0,0,30.997,0,30.997,0
		c45.802,0,83.064-37.262,83.064-83.064V84.862c6.61-2.232,11.979-7.15,14.812-13.458L460,66.752V36.752z M207.51,206.751h30v30h-30
		V206.751z"/>
	<path style="fill:#8F5543;" d="M233.18,94.781c-10.93-19.46-31.76-32.61-55.67-32.61v43.37
		C197.19,105.541,215.98,101.721,233.18,94.781z"/>
	<path style="fill:#C97E67;" d="M177.51,62.171c-23.91,0-44.74,13.15-55.67,32.61c17.2,6.94,35.99,10.76,55.67,10.76V62.171z"/>
	<path style="fill:#F6D76F;" d="M177.51,105.541c-19.68,0-38.47-3.82-55.67-10.76c-5.18,9.22-8.13,19.86-8.13,31.19v113.111
		c0,9.7-1.669,19.005-4.703,27.669h68.503V105.541z"/>
	<path style="fill:#FBB071;" d="M109.007,266.751c3.034-8.664,4.703-17.969,4.703-27.669V125.971
		c-4.453,0.743-8.807,1.78-13.041,3.089C59.739,141.718,30,179.855,30,224.941c0,12.1,0,41.81,0,41.81v26.041H0v144.959h30V322.792
		c10.576,0,20.684-1.981,30-5.56C82.864,308.45,100.888,289.935,109.007,266.751z"/>
	<rect x="207.51" y="206.751" style="fill:#8F5543;" width="30" height="30"/>
	<rect x="177.51" y="146.751" style="fill:#8F5543;" width="30" height="30"/>
</g>
<g>
</g>
<g>
</g>
<g>
</g>
<g>
</g>
<g>
</g>
<g>
</g>
<g>
</g>
<g>
</g>
<g>
</g>
<g>
</g>
<g>
</g>
<g>
</g>
<g>
</g>
<g>
</g>
<g>
</g>
</svg>
