<?xml version="1.0" encoding="iso-8859-1"?>
<!-- Generator: Adobe Illustrator 19.0.0, SVG Export Plug-In . SVG Version: 6.00 Build 0)  -->
<svg version="1.1" id="Capa_1" xmlns="http://www.w3.org/2000/svg" xmlns:xlink="http://www.w3.org/1999/xlink" x="0px" y="0px"
	 viewBox="0 0 460 460" style="enable-background:new 0 0 460 460;" xml:space="preserve">
<g>
	<path style="fill:#FBB071;" d="M90,343.615V450h30V347.5c43.126,0,80.791-23.367,101.037-57.457l-54.58-10.27
		C152.117,310.681,124.119,334.61,90,343.615z"/>
	<rect x="388.151" y="420" style="fill:#FF835D;" width="30" height="30"/>
	<path style="fill:#FF835D;" d="M388.151,303.99V390h30V281.489C409.965,291.098,399.788,298.738,388.151,303.99z"/>
	<path style="fill:#FAE8AC;" d="M328.151,279.39c-0.001,0-0.001,0.281-0.001,0.281C328.151,279.671,328.151,279.39,328.151,279.39z"
		/>
	<path style="fill:#FAE8AC;" d="M410,76.667V218.51c0,20.91-7.61,38.74-21.44,50.2c-8.479,7.033-18.877,11.362-30.409,12.861v30.188
		c10.732-0.97,20.82-3.626,30-7.769c11.637-5.252,21.814-12.892,30-22.501C431.873,265.383,440,243.742,440,218.51V66.667
		L410,76.667z"/>
	<path style="fill:#FDF3D3;" d="M328.151,310.197v-30.526c-0.001,0-152.786-28.748-152.786-28.748
		c-1.665,10.084-4.694,19.769-8.907,28.851C166.458,279.774,328.15,310.198,328.151,310.197z"/>
	<path style="fill:#F6D76F;" d="M166.458,279.774c4.214-9.082,7.243-18.767,8.907-28.851c0.972-5.886,1.484-11.906,1.484-18.025
		v-63.122l-116.828,5.17C41.88,162.298,30,141.292,30,117.5c0-38.66,31.34-70,70-70v-30c-55.229,0-100,44.771-100,100
		c0,41.005,24.684,76.239,60,91.671v74.467h30v30H60V315H30v135h30V347.5c10.372,0,20.426-1.358,30-3.885
		C124.119,334.61,152.117,310.681,166.458,279.774z M133.424,253.638h-30v-30h30V253.638z"/>
	<path style="fill:#FBB071;" d="M440,27.143v-3.571l-0.002,3.568L430,10h-60c-9.294,0-16.829,7.535-16.829,16.829
		c0,6.301,3.468,11.784,8.594,14.669L330,163l-153.151,6.777v63.122c0,6.118-0.512,12.139-1.484,18.025l152.785,28.748v-0.281
		c0.001,0,0.001,70.61,0.001,70.61H357.5v30h-29.349v70h30V281.571c11.532-1.499,21.931-5.828,30.409-12.861
		c13.83-11.46,21.44-29.29,21.44-50.2v-81.843h-30v-30h30v-30l30-10l1.026-0.342C451.462,62.846,460,51,460,40V30L440,27.143z
		 M246.849,219.777h-30v-30h30V219.777z M307.5,249.777h-30v-30h30V249.777z M327.5,219.777v-30h30v30H327.5z"/>
	<path style="fill:#325763;" d="M126.484,47.5c8.284,0,15-6.716,15-15c0-8.284-6.716-15-15-15H100v30H126.484z"/>
	<rect x="216.849" y="189.777" style="fill:#05232E;" width="30" height="30"/>
	<rect x="277.5" y="219.777" style="fill:#05232E;" width="30" height="30"/>
	<rect x="327.5" y="189.777" style="fill:#05232E;" width="30" height="30"/>
	<rect x="327.5" y="350" style="fill:#05232E;" width="30" height="30"/>
	<rect x="388.151" y="390" style="fill:#05232E;" width="30" height="30"/>
	<rect x="380" y="106.667" style="fill:#05232E;" width="30" height="30"/>
	<rect x="103.424" y="223.638" style="fill:#325763;" width="30" height="30"/>
	<rect x="60" y="283.638" style="fill:#325763;" width="30" height="30"/>
</g>
<g>
</g>
<g>
</g>
<g>
</g>
<g>
</g>
<g>
</g>
<g>
</g>
<g>
</g>
<g>
</g>
<g>
</g>
<g>
</g>
<g>
</g>
<g>
</g>
<g>
</g>
<g>
</g>
<g>
</g>
</svg>
