<?xml version="1.0" encoding="iso-8859-1"?>
<!-- Generator: Adobe Illustrator 19.0.0, SVG Export Plug-In . SVG Version: 6.00 Build 0)  -->
<svg version="1.1" id="Capa_1" xmlns="http://www.w3.org/2000/svg" xmlns:xlink="http://www.w3.org/1999/xlink" x="0px" y="0px"
	 viewBox="0 0 460 460" style="enable-background:new 0 0 460 460;" xml:space="preserve">
<g>
	<path style="fill:#FDF3D3;" d="M96.57,163.9l91.25,206.979H230V99.12C175.96,99.12,127.73,124.47,96.57,163.9z"/>
	<path style="fill:#FAE8AC;" d="M230,99.12v271.76h42.18L363.43,163.9C332.27,124.47,284.04,99.12,230,99.12z"/>
	<path style="fill:#FAE8AC;" d="M96.57,163.9C73.67,192.86,60,229.42,60,269.12c0,16.09,2.25,31.66,6.44,46.42l79.2,55.34h42.18
		L96.57,163.9z"/>
	<path style="fill:#FAE8AC;" d="M230,99.12v-60c-62.15,0-118.54,24.64-159.91,64.72L96.57,163.9
		C127.73,124.47,175.96,99.12,230,99.12z"/>
	<path style="fill:#F6D76F;" d="M96.57,163.9L70.09,103.84C26.86,145.64,0,204.24,0,269.12l66.44,46.42
		C62.25,300.78,60,285.21,60,269.12C60,229.42,73.67,192.86,96.57,163.9z"/>
	<path style="fill:#F6D76F;" d="M363.43,163.9L272.18,370.88h42.18l79.2-55.34c4.19-14.76,6.44-30.33,6.44-46.42
		C400,229.42,386.33,192.86,363.43,163.9z"/>
	<path style="fill:#F6D76F;" d="M363.43,163.9c0,0,0.019-0.044,0.047-0.107l0.198-0.449c0.088-0.198,0.198-0.449,0.33-0.749
		l0.203-0.46c0.053-0.12,0.108-0.245,0.167-0.377l25.535-57.918C348.54,63.76,292.15,39.12,230,39.12v60
		C284.04,99.12,332.27,124.47,363.43,163.9z"/>
	<path style="fill:#FBB071;" d="M389.917,103.848c-0.008-0.008-25.543,57.91-25.543,57.91l-0.167,0.377l-0.203,0.46l-0.33,0.749
		l-0.198,0.449l-0.047,0.107c22.9,28.96,36.57,65.52,36.57,105.22c0,16.09-2.25,31.66-6.44,46.42L460,269.12
		C460,204.244,433.143,145.647,389.917,103.848z"/>
	<rect x="230" y="370.88" style="fill:#FBB071;" width="84.36" height="50"/>
	<rect x="145.64" y="370.88" style="fill:#F6D76F;" width="84.36" height="50"/>
</g>
<g>
</g>
<g>
</g>
<g>
</g>
<g>
</g>
<g>
</g>
<g>
</g>
<g>
</g>
<g>
</g>
<g>
</g>
<g>
</g>
<g>
</g>
<g>
</g>
<g>
</g>
<g>
</g>
<g>
</g>
</svg>
