<?xml version="1.0" encoding="iso-8859-1"?>
<!-- Generator: Adobe Illustrator 19.0.0, SVG Export Plug-In . SVG Version: 6.00 Build 0)  -->
<svg version="1.1" id="Capa_1" xmlns="http://www.w3.org/2000/svg" xmlns:xlink="http://www.w3.org/1999/xlink" x="0px" y="0px"
	 viewBox="0 0 460 460" style="enable-background:new 0 0 460 460;" xml:space="preserve">
<g>
	<path style="fill:#F72349;" d="M410.5,167c-16.568,0-30,13.432-30,30h30v30h-30v66.087c0,21.643-17.093,39.365-38.487,40.385
		c5.452-12.365,8.487-26.026,8.487-40.385V227h-30v-30h30v-30h-30v-30h30c0-16.568-13.432-30-30-30s-30,13.432-30,30v126.087h30v30
		h-30c0,18.831-12.939,34.695-30.393,39.172l0.06-72.237c0-16.568-13.432-30-30-30s-30,13.432-30,30l-0.01,12.298l-0.001,1.202
		c0.011,0-0.005,5.787-0.005,5.787l-0.045,53.731l0,0.481H230v30h-29.919l-0.025,29.494H230v30h-29.969L200,460h60l0.056-66.479
		h50.01v-30h30v30c55.38,0,100.435-45.055,100.435-100.435h-30v-30h30V197C440.5,180.432,427.068,167,410.5,167z"/>
	<path style="fill:#FB5858;" d="M200.106,333.04l0.045-53.731l0.016-5.787c-0.011,0-0.01-1.202-0.01-1.202
		c-17.586-4.385-30.657-20.308-30.657-39.232h-30v-30h30v9.938c50.703-5.035,90.435-47.933,90.435-99.938V77
		c0-16.568-13.432-30-30-30s-30,13.432-30,30v6.087h30v30h-30c0,18.846-12.96,34.719-30.435,39.181V30c0-16.568-13.432-30-30-30
		s-30,13.432-30,30v53.087h30v30h-30v30h30v30h-30v60c0,14.358,3.035,28.02,8.487,40.385c-21.395-1.02-38.487-18.742-38.487-40.385
		h-30v-30h30V137c0-16.568-13.432-30-30-30s-30,13.432-30,30v8h30v30h-30v58.087c0,55.38,45.055,100.435,100.435,100.435v-30h30v30
		H200l0.001-0.491C200.036,333.034,200.071,333.036,200.106,333.04z"/>
	<rect x="119.935" y="303.521" style="fill:#F72349;" width="30" height="30"/>
	<rect x="49.5" y="203.087" style="fill:#F72349;" width="30" height="30"/>
	<rect x="200" y="393.016" style="fill:#FB5858;" width="30" height="30"/>
	<rect x="310.065" y="363.521" style="fill:#FB5858;" width="30" height="30"/>
	<rect x="199.935" y="83.087" style="fill:#F72349;" width="30" height="30"/>
	<rect x="109.5" y="83.087" style="fill:#F72349;" width="30" height="30"/>
	<rect x="109.5" y="143.087" style="fill:#F72349;" width="30" height="30"/>
	<rect x="139.5" y="203.087" style="fill:#F72349;" width="30" height="30"/>
	<rect x="19.5" y="145" style="fill:#F72349;" width="30" height="30"/>
	<rect x="320.5" y="137" style="fill:#FB5858;" width="30" height="30"/>
	<rect x="320.5" y="197" style="fill:#FB5858;" width="30" height="30"/>
	<rect x="380.5" y="197" style="fill:#FB5858;" width="30" height="30"/>
	<rect x="410.5" y="263.087" style="fill:#FB5858;" width="30" height="30"/>
	<rect x="290.5" y="263.087" style="fill:#FB5858;" width="30" height="30"/>
	<rect x="200" y="333.521" style="fill:#FB5858;" width="30" height="30"/>
</g>
<g>
</g>
<g>
</g>
<g>
</g>
<g>
</g>
<g>
</g>
<g>
</g>
<g>
</g>
<g>
</g>
<g>
</g>
<g>
</g>
<g>
</g>
<g>
</g>
<g>
</g>
<g>
</g>
<g>
</g>
</svg>
