<?xml version="1.0" encoding="iso-8859-1"?>
<!-- Generator: Adobe Illustrator 19.0.0, SVG Export Plug-In . SVG Version: 6.00 Build 0)  -->
<svg version="1.1" id="Capa_1" xmlns="http://www.w3.org/2000/svg" xmlns:xlink="http://www.w3.org/1999/xlink" x="0px" y="0px"
	 viewBox="0 0 460 460" style="enable-background:new 0 0 460 460;" xml:space="preserve">
<g>
	<rect x="310" y="305" style="fill:#F6D76F;" width="30" height="100"/>
	<path style="fill:#05232E;" d="M92.429,305C83.928,315.601,72.789,323.984,60,329.163V405h30v-70
		c26.177,0,49.416-12.575,64.01-32.012C149.562,304.289,144.864,305,140,305H92.429z"/>
	<path style="fill:#FB5858;" d="M107.479,275c-2.863,11.125-8.074,21.301-15.05,30H140c4.864,0,9.562-0.711,14.01-2.012
		c11.142-3.259,20.683-10.293,27.137-19.627L170,275H107.479z"/>
	<rect x="380.001" y="55" style="fill:#F6D76F;" width="30" height="50"/>
	<path style="fill:#FDF3D3;" d="M250,190c-46.941,0-85-38.059-85-85H89.12C56.519,105.504,30,132.298,30,165v10
		c0.001,0,0.001,40.002,0.001,40.002c0,0.021-0.001,0.042-0.001,0.063V285H0v120h30v-70c10.613,0,20.733-2.085,30-5.837
		c12.789-5.179,23.928-13.562,32.429-24.163c6.976-8.699,12.187-18.875,15.05-30H170l11.147,8.36L210,305h40V190z M70,175h30v30H70
		V175z M110,245v-30h30v30H110z"/>
	<path style="fill:#FAE8AC;" d="M30.001,175C13.431,175.001,0,188.433,0,205.001v40.002c16.548,0,29.966-13.398,30-29.939
		c0-0.021,0.001-0.042,0.001-0.063V175z"/>
	<rect x="70" y="175" style="fill:#05232E;" width="30" height="30"/>
	<rect x="110" y="215" style="fill:#325763;" width="30" height="30"/>
	<rect x="280" y="215" style="fill:#05232E;" width="30" height="30"/>
	<path style="fill:#FAE8AC;" d="M420.001,105h-40v-9.999C380.001,78.432,366.569,65,350,65v40h-15c0,46.941-38.059,85-85,85v215h30
		V305h60c16.5,0,32.003-13.351,34.45-29.668l11.987-79.916L440,176v-51L420.001,105z M280,215h30v30h-30V215z"/>
	<path style="fill:#05232E;" d="M335,105h-85v85C296.941,190,335,151.941,335,105z"/>
	<path style="fill:#325763;" d="M250,190v-85h-85C165,151.941,203.059,190,250,190z"/>
	<rect x="440" y="125" style="fill:#FB5858;" width="20" height="51"/>
</g>
<g>
</g>
<g>
</g>
<g>
</g>
<g>
</g>
<g>
</g>
<g>
</g>
<g>
</g>
<g>
</g>
<g>
</g>
<g>
</g>
<g>
</g>
<g>
</g>
<g>
</g>
<g>
</g>
<g>
</g>
</svg>
