<?xml version="1.0" encoding="iso-8859-1"?>
<!-- Generator: Adobe Illustrator 19.0.0, SVG Export Plug-In . SVG Version: 6.00 Build 0)  -->
<svg version="1.1" id="Capa_1" xmlns="http://www.w3.org/2000/svg" xmlns:xlink="http://www.w3.org/1999/xlink" x="0px" y="0px"
	 viewBox="0 0 460 460" style="enable-background:new 0 0 460 460;" xml:space="preserve">
<g>
	<polygon style="fill:#50BF94;" points="170,130 150,150 190,150 	"/>
	<polygon style="fill:#84D993;" points="250,130 230,150 270,150 	"/>
	<polygon style="fill:#84D993;" points="210,130 190,150 230,150 	"/>
	<polygon style="fill:#50BF94;" points="130,130 110,150 150,150 	"/>
	<polygon style="fill:#50BF94;" points="90,130 70,150 110,150 	"/>
	<path style="fill:#50BF94;" d="M388.145,161.019C375.579,142.312,354.229,130,330,130c-19.068,0-36.346,7.634-48.97,20H190v50
		h45.708C221.173,202.083,210,214.579,210,229.689c0,0.104,0.007,0.207,0.008,0.311c0.169,16.356,13.597,29.689,29.992,29.689h70
		c0-15.051-11.237-27.602-25.735-29.689c-1.395-0.201-2.818-0.311-4.265-0.311h-10c0-15.11-11.173-27.606-25.708-29.689H300
		c0-16.568,13.431-30,30-30s30,13.432,30,30h100v-30L388.145,161.019z"/>
	<path style="fill:#B9F291;" d="M300,200h-55.708C258.827,202.083,270,214.579,270,229.689h10c1.448,0,2.871,0.109,4.265,0.311H330
		C313.431,230,300,216.568,300,200z"/>
	<path style="fill:#B9F291;" d="M235.708,200H190v30h20.008c-0.001-0.104-0.008-0.206-0.008-0.311
		C210,214.579,221.173,202.083,235.708,200z"/>
	<path style="fill:#FAE8AC;" d="M104.292,200C118.827,202.083,130,214.579,130,229.689h10c1.448,0,2.871,0.109,4.265,0.311H190v-30
		H104.292z"/>
	<path style="fill:#FAE8AC;" d="M95.708,200H70c-16.568,0-30,13.432-30,30h30.008c-0.001-0.104-0.008-0.206-0.008-0.311
		C70,214.579,81.173,202.083,95.708,200z"/>
	<path style="fill:#84D993;" d="M360,200c0-16.568-13.431-30-30-30s-30,13.432-30,30s13.431,30,30,30h80v-30h30
		c0,16.567-13.43,29.999-29.998,30H460v-30H360z"/>
	<path style="fill:#FFFFFF;" d="M440,200h-30v30C426.57,229.999,440,216.567,440,200z"/>
	<path style="fill:#84D993;" d="M130,229.689c0-15.11-11.173-27.606-25.708-29.689H190v-50H80c-44.183,0-80,35.818-80,80v60
		c0,22.091,17.908,40,40,40h150c0-22.092-17.909-40-40-40H40v-60c0-16.568,13.432-30,30-30h25.708
		C81.173,202.083,70,214.579,70,229.689c0,0.104,0.007,0.207,0.008,0.311c0.169,16.356,13.597,29.689,29.992,29.689h70
		c0-15.051-11.237-27.602-25.735-29.689c-1.395-0.201-2.818-0.311-4.265-0.311H130z"/>
</g>
<g>
</g>
<g>
</g>
<g>
</g>
<g>
</g>
<g>
</g>
<g>
</g>
<g>
</g>
<g>
</g>
<g>
</g>
<g>
</g>
<g>
</g>
<g>
</g>
<g>
</g>
<g>
</g>
<g>
</g>
</svg>
