<?xml version="1.0" encoding="iso-8859-1"?>
<!-- Generator: Adobe Illustrator 19.0.0, SVG Export Plug-In . SVG Version: 6.00 Build 0)  -->
<svg version="1.1" id="Capa_1" xmlns="http://www.w3.org/2000/svg" xmlns:xlink="http://www.w3.org/1999/xlink" x="0px" y="0px"
	 viewBox="0 0 460 460" style="enable-background:new 0 0 460 460;" xml:space="preserve">
<g>
	<path style="fill:#F6D76F;" d="M385,40v20h10c16.568,0,30-13.432,30-30V0h-30v30h-30v17.645C370.308,42.893,377.315,40,385,40z"/>
	<path style="fill:#C97E67;" d="M55,220c-16.568,0-30,13.431-30,30v40c16.567,0,30-13.433,30-30c0-15.333,5.834-29.364,15.385-40H55
		z"/>
	<path style="fill:#FBB071;" d="M345,40v40h20V0h-30v30h-30V0h-30v30h-30V0h-30v30c0,16.568,13.432,30,30,30h71.714
		C320.833,48.35,331.939,40,345,40z"/>
	<path style="fill:#8F5543;" d="M285,430h30V309.563c-9.263,5.931-19.332,10.71-30,14.157V430z"/>
	<rect x="285" y="430" style="fill:#05232E;" width="30" height="30"/>
	<path style="fill:#8F5543;" d="M148.974,294.622c-16.001,20.125-38.326,34.996-63.974,41.597V430h30v-90
		c29.912,0,57.268-10.944,78.281-29.047C193.284,310.947,148.974,294.622,148.974,294.622z"/>
	<rect x="85" y="430" style="fill:#05232E;" width="30" height="30"/>
	<path style="fill:#FBB071;" d="M148.974,294.622C165.263,274.136,175,248.207,175,220v-20h-60c-17.668,0-33.61,7.744-44.615,20
		C60.834,230.636,55,244.667,55,260v52.5H25V430h30v-90c10.359,0,20.411-1.313,30-3.781
		C110.648,329.618,132.973,314.747,148.974,294.622z"/>
	<rect x="25" y="430" style="fill:#8F5543;" width="30" height="30"/>
	<path style="fill:#F6D76F;" d="M225,291.54c-13.484-1.626-26.813,6.11-31.716,19.407C193.281,310.953,225,322.634,225,322.634
		V291.54z"/>
	<path style="fill:#F6D76F;" d="M345,200c0,51.768-39.535,94.473-90,99.503v30.118c10.391-0.791,20.436-2.812,30-5.901
		c10.668-3.447,20.737-8.227,30-14.157c36.083-23.102,60-63.539,60-109.563v-70l-30,5V200z"/>
	<path style="fill:#C97E67;" d="M435,80h-50V40c-7.685,0-14.692,2.893-20,7.645V80h-20V40c-13.061,0-24.167,8.35-28.286,20
		C315.608,63.128,315,66.493,315,70v130H175v20c0,28.207-9.737,54.136-26.026,74.622l44.31,16.325
		c4.903-13.297,18.232-21.034,31.716-19.407V430h30V299.503c50.465-5.031,90-47.736,90-99.503v-65l90-15V80z"/>
	<rect x="225" y="430" style="fill:#8F5543;" width="30" height="30"/>
</g>
<g>
</g>
<g>
</g>
<g>
</g>
<g>
</g>
<g>
</g>
<g>
</g>
<g>
</g>
<g>
</g>
<g>
</g>
<g>
</g>
<g>
</g>
<g>
</g>
<g>
</g>
<g>
</g>
<g>
</g>
</svg>
