<?xml version="1.0" encoding="iso-8859-1"?>
<!-- Generator: Adobe Illustrator 19.0.0, SVG Export Plug-In . SVG Version: 6.00 Build 0)  -->
<svg version="1.1" id="Capa_1" xmlns="http://www.w3.org/2000/svg" xmlns:xlink="http://www.w3.org/1999/xlink" x="0px" y="0px"
	 viewBox="0 0 460 460" style="enable-background:new 0 0 460 460;" xml:space="preserve">
<g>
	<path style="fill:#FB5858;" d="M205,379.373V460h90c0-16.568-13.431-30-30-30h-30v-50.627c-4.947,0.408-9.948,0.627-15,0.627
		S209.947,379.781,205,379.373z"/>
	<path style="fill:#FAE8AC;" d="M0,200c0,26.611,20.791,48.358,47.015,49.904C42.451,234.057,40,217.315,40,200H0z"/>
	<path style="fill:#FB5858;" d="M400,60c0,15.37-5.786,29.384-15.29,40H420c22.091,0,40-17.909,40-40H400z"/>
	<path style="fill:#F6D76F;" d="M340,0c-33.137,0-60,26.863-60,60v140h-60c41.421,0,75,33.579,75,75s-33.579,75-75,75v30l0-30
		c82.71,0,150-67.29,150-150c0-14.871,10.822-27.207,25.019-29.581c-3.942-11.35-10.107-21.653-17.955-30.419
		c0.011,0-0.185-0.204-0.185-0.204c-1.369-1.521-2.786-2.997-4.254-4.42l-16.834-17.491c11.323-3.082,21.313-9.389,28.919-17.885
		C394.214,89.384,400,75.37,400,60C400,26.863,373.137,0,340,0z"/>
	<path style="fill:#FDF3D3;" d="M220,350c-82.843,0-150-67.157-150-150H40c0,17.315,2.451,34.057,7.015,49.904
		C67.32,320.413,129.563,373.148,205,379.373c4.947,0.408,9.948,0.627,15,0.627V350z"/>
	<path style="fill:#FBB071;" d="M220,350V200H70C70,282.843,137.157,350,220,350z"/>
	<path style="fill:#FF835D;" d="M295,275c0-41.421-33.579-75-75-75v150C261.421,350,295,316.421,295,275z"/>
	<path style="fill:#FAE8AC;" d="M370,200c0,82.71-67.29,150-150,150l0,30c5.052,0,10.053-0.219,15-0.627
		c92.392-7.624,165-85.014,165-179.373c0-10.362-1.757-20.313-4.979-29.577C380.823,172.793,370,185.129,370,200z"/>
</g>
<g>
</g>
<g>
</g>
<g>
</g>
<g>
</g>
<g>
</g>
<g>
</g>
<g>
</g>
<g>
</g>
<g>
</g>
<g>
</g>
<g>
</g>
<g>
</g>
<g>
</g>
<g>
</g>
<g>
</g>
</svg>
