<?xml version="1.0" encoding="iso-8859-1"?>
<!-- Generator: Adobe Illustrator 19.0.0, SVG Export Plug-In . SVG Version: 6.00 Build 0)  -->
<svg version="1.1" id="Capa_1" xmlns="http://www.w3.org/2000/svg" xmlns:xlink="http://www.w3.org/1999/xlink" x="0px" y="0px"
	 viewBox="0 0 460 460" style="enable-background:new 0 0 460 460;" xml:space="preserve">
<g>
	<path style="fill:#FB5858;" d="M133.711,43.335l0,0.139c0,0.292,0,0.525,0,0.695l0,0.331c17.337,0,33.5,4.948,47.194,13.493
		c0.913,0.57,1.815,1.155,2.706,1.757l24.99-36.86C187.24,8.44,161.48,0,133.75,0c-0.009,0-0.033,33.897-0.039,42.521l0,0.123
		C133.711,42.898,133.711,43.129,133.711,43.335z"/>
	<path style="fill:#FB5858;" d="M446,99.14V44.5C446,19.92,426.08,0,401.5,0v99.14H446z"/>
	<path style="fill:#FF835D;" d="M401.5,0C376.92,0,357,19.92,357,44.5v54.64h44.5V0z"/>
	<path style="fill:#FF835D;" d="M133.71,44.5l0-0.331l0-0.695l0-0.139l0-0.691l0-0.123L133.74,0c-27.76,0-53.55,8.46-74.93,22.95
		L83.8,59.82C98.05,50.16,115.23,44.51,133.71,44.5z"/>
	<path style="fill:#FF835D;" d="M216.39,100.04l41.23-16.85c-10.07-24.62-27.26-45.58-49.02-60.301l-24.99,36.86
		C198.15,69.59,209.66,83.6,216.39,100.04z"/>
	<path style="fill:#FB5858;" d="M83.8,59.82L58.81,22.95C37.08,37.68,19.91,58.63,9.86,83.24l41.23,16.85
		C57.8,83.66,69.29,69.66,83.8,59.82z"/>
	<path style="fill:#F72349;" d="M180.904,57.993C167.21,49.448,151.047,44.5,133.75,44.5c-0.038,0.032-0.058,40.118-0.06,44.166
		l0,0.146v0.079l0,0.108h0.06c9.2,0,17.77,2.8,24.89,7.58l24.97-36.83C182.719,59.148,181.817,58.563,180.904,57.993z"/>
	<path style="fill:#FB5858;" d="M133.69,88.813l0-0.146l0.02-44.166c-18.48,0.01-35.66,5.66-49.91,15.32l24.96,36.83
		c7.13-4.82,15.71-7.641,24.93-7.65l0-0.108V88.813z"/>
	<path style="fill:#FB5858;" d="M183.61,59.75l-24.97,36.83c7.35,4.939,13.17,12,16.56,20.29l41.19-16.83
		C209.66,83.6,198.15,69.59,183.61,59.75z"/>
	<path style="fill:#F72349;" d="M51.09,100.09l41.19,16.83c3.38-8.28,9.16-15.33,16.48-20.27L83.8,59.82
		C69.29,69.66,57.8,83.66,51.09,100.09z"/>
	<path style="fill:#FB5858;" d="M223,133.75v18.12h44.5v-18.12c0-17.89-3.51-34.96-9.88-50.56l-41.23,16.85
		C220.65,110.45,223,121.83,223,133.75z"/>
	<path style="fill:#FF835D;" d="M44.5,133.75c0-11.9,2.34-23.27,6.59-33.66L9.86,83.24C3.5,98.83,0,115.88,0,133.75v18.12h44.5
		V133.75z"/>
	<rect x="343" y="99.14" style="fill:#FB5858;" width="58.5" height="105.45"/>
	<rect x="401.5" y="99.14" style="fill:#F72349;" width="58.5" height="105.45"/>
	<path style="fill:#F72349;" d="M223,133.75c0-11.92-2.35-23.3-6.61-33.71l-41.19,16.83c2.13,5.21,3.3,10.91,3.3,16.88v18.12H223
		V133.75z"/>
	<path style="fill:#FB5858;" d="M44.5,133.75v18.12H89v-18.12c0-5.95,1.17-11.63,3.28-16.83l-41.19-16.83
		C46.84,110.48,44.5,121.85,44.5,133.75z"/>
	<rect y="151.87" style="fill:#FB5858;" width="44.5" height="52.72"/>
	<rect x="44.5" y="151.87" style="fill:#F72349;" width="44.5" height="52.72"/>
	<rect x="178.5" y="151.87" style="fill:#FB5858;" width="44.5" height="52.72"/>
	<rect x="223" y="151.87" style="fill:#FF835D;" width="44.5" height="52.72"/>
	<rect y="204.59" style="fill:#FF835D;" width="44.5" height="52.73"/>
	<rect x="44.5" y="204.59" style="fill:#FB5858;" width="44.5" height="52.73"/>
	<rect x="178.5" y="204.59" style="fill:#F72349;" width="44.5" height="52.73"/>
	<rect x="223" y="204.59" style="fill:#FB5858;" width="44.5" height="52.73"/>
	<rect x="357" y="204.59" style="fill:#FF835D;" width="44.5" height="52.73"/>
	<rect x="401.5" y="204.59" style="fill:#FB5858;" width="44.5" height="52.73"/>
	<rect y="257.32" style="fill:#FB5858;" width="44.5" height="52.729"/>
	<rect x="44.5" y="257.32" style="fill:#F72349;" width="44.5" height="52.729"/>
	<rect x="178.5" y="257.32" style="fill:#FB5858;" width="44.5" height="52.729"/>
	<rect x="223" y="257.32" style="fill:#FF835D;" width="44.5" height="52.729"/>
	<rect x="357" y="257.32" style="fill:#FB5858;" width="44.5" height="52.729"/>
	<rect x="401.5" y="257.32" style="fill:#F72349;" width="44.5" height="52.729"/>
	<rect y="310.05" style="fill:#FF835D;" width="44.5" height="52.72"/>
	<rect x="44.5" y="310.05" style="fill:#FB5858;" width="44.5" height="52.72"/>
	<path style="fill:#F72349;" d="M223,326.25v-16.2h-44.5v16.2c0,17.89,3.51,34.96,9.88,50.56l41.23-16.85
		C225.35,349.55,223,338.17,223,326.25z"/>
	<path style="fill:#FB5858;" d="M223,326.25c0,11.92,2.35,23.3,6.61,33.71l41.19-16.83c-2.13-5.21-3.3-10.91-3.3-16.88v-16.2H223
		V326.25z"/>
	<path style="fill:#FF835D;" d="M401.5,326.25v-16.2H357v16.2c0,5.95-1.17,11.63-3.28,16.83l41.19,16.83
		C399.16,349.52,401.5,338.15,401.5,326.25z"/>
	<path style="fill:#FB5858;" d="M401.5,326.25c0,11.9-2.34,23.27-6.59,33.66l41.23,16.85c6.36-15.59,9.86-32.64,9.86-50.51v-16.2
		h-44.5V326.25z"/>
	<path style="fill:#FB5858;" d="M394.91,359.91l-41.19-16.83c-3.38,8.28-9.16,15.33-16.48,20.27l24.96,36.83
		C376.71,390.34,388.2,376.34,394.91,359.91z"/>
	<path style="fill:#FF835D;" d="M262.39,400.25l24.97-36.83c-7.35-4.939-13.17-12-16.56-20.29l-41.19,16.83
		C236.34,376.4,247.85,390.41,262.39,400.25z"/>
	<path style="fill:#F72349;" d="M362.2,400.18l24.99,36.87c21.73-14.729,38.9-35.68,48.95-60.29l-41.23-16.85
		C388.2,376.34,376.71,390.34,362.2,400.18z"/>
	<path style="fill:#FB5858;" d="M229.61,359.96l-41.23,16.85c10.07,24.62,27.26,45.58,49.02,60.301l24.99-36.86
		C247.85,390.41,236.34,376.4,229.61,359.96z"/>
	<rect y="362.77" style="fill:#FB5858;" width="44.5" height="52.73"/>
	<rect x="44.5" y="362.77" style="fill:#F72349;" width="44.5" height="52.73"/>
	<path style="fill:#FF835D;" d="M362.2,400.18l-24.96-36.83c-7.14,4.83-15.75,7.65-24.99,7.65v44.5
		C330.74,415.5,347.94,409.85,362.2,400.18z"/>
	<path style="fill:#FB5858;" d="M312.25,415.5V371c-9.2,0-17.77-2.8-24.89-7.58l-24.97,36.83
		C276.64,409.87,293.8,415.5,312.25,415.5z"/>
	<path style="fill:#FB5858;" d="M312.25,415.5V460c27.77,0,53.56-8.46,74.94-22.95l-24.99-36.87
		C347.94,409.85,330.74,415.5,312.25,415.5z"/>
	<path style="fill:#F72349;" d="M262.39,400.25l-24.99,36.86C258.76,451.56,284.52,460,312.25,460v-44.5
		C293.8,415.5,276.64,409.87,262.39,400.25z"/>
	<path style="fill:#FF835D;" d="M0,415.5C0,440.08,19.92,460,44.5,460v-44.5H0z"/>
	<path style="fill:#FB5858;" d="M44.5,460c24.58,0,44.5-19.92,44.5-44.5H44.5V460z"/>
</g>
<g>
</g>
<g>
</g>
<g>
</g>
<g>
</g>
<g>
</g>
<g>
</g>
<g>
</g>
<g>
</g>
<g>
</g>
<g>
</g>
<g>
</g>
<g>
</g>
<g>
</g>
<g>
</g>
<g>
</g>
</svg>
