<?xml version="1.0" encoding="iso-8859-1"?>
<!-- Generator: Adobe Illustrator 19.0.0, SVG Export Plug-In . SVG Version: 6.00 Build 0)  -->
<svg version="1.1" id="Capa_1" xmlns="http://www.w3.org/2000/svg" xmlns:xlink="http://www.w3.org/1999/xlink" x="0px" y="0px"
	 viewBox="0 0 460 460" style="enable-background:new 0 0 460 460;" xml:space="preserve">
<g>
	<path style="fill:#325763;" d="M100,147.5c0,26.19,21.31,47.5,47.5,47.5h165c64.79,0,117.5,52.71,117.5,117.5S377.29,430,312.5,430
		H119.51c-45.31,0-74.2-28.75-79.22-34.13L39.51,395H0l16.74,19.52c1.59,1.86,39.7,45.48,102.77,45.48H312.5
		c81.33,0,147.5-66.17,147.5-147.5S393.83,165,312.5,165h-165c-9.65,0-17.5-7.85-17.5-17.5s7.85-17.5,17.5-17.5H165
		c23.009,0,43.209-11.964,54.76-30H147.5C121.31,100,100,121.31,100,147.5z"/>
	<path style="fill:#4AD0FF;" d="M119.51,360H312.5c26.19,0,47.5-21.31,47.5-47.5S338.69,265,312.5,265h-165
		C82.71,265,30,212.29,30,147.5S82.71,30,147.5,30h122.26C258.209,11.964,238.009,0,215,0h-67.5C66.17,0,0,66.17,0,147.5
		S66.17,295,147.5,295h165c9.65,0,17.5,7.85,17.5,17.5s-7.85,17.5-17.5,17.5H119.51c-63.07,0-101.18,43.62-102.77,45.48L0,395h39.51
		C39.51,395,69.51,360,119.51,360z"/>
	<rect x="380" y="65" style="fill:#325763;" width="80" height="35"/>
	<polygon style="fill:#4AD0FF;" points="430,45 400,30 380,30 380,65 460,65 460,45 	"/>
	<path style="fill:#6B8F9C;" d="M350,65v15h-30V65H147.5C101.94,65,65,101.94,65,147.5s36.94,82.5,82.5,82.5h165
		c45.56,0,82.5,36.94,82.5,82.5S358.06,395,312.5,395H39.51l0.78,0.87C45.31,401.25,74.2,430,119.51,430H312.5
		c64.79,0,117.5-52.71,117.5-117.5S377.29,195,312.5,195h-165c-26.19,0-47.5-21.31-47.5-47.5s21.31-47.5,47.5-47.5H380V65H350z"/>
	<path style="fill:#99E5FF;" d="M30,147.5C30,212.29,82.71,265,147.5,265h165c26.19,0,47.5,21.31,47.5,47.5S338.69,360,312.5,360
		H119.51c-50,0-80,35-80,35H312.5c45.56,0,82.5-36.94,82.5-82.5S358.06,230,312.5,230h-165c-45.56,0-82.5-36.94-82.5-82.5
		S101.94,65,147.5,65H320V50h30v15h30V30H147.5C82.71,30,30,82.71,30,147.5z"/>
	<rect x="320" y="50" style="fill:#325763;" width="30" height="30"/>
</g>
<g>
</g>
<g>
</g>
<g>
</g>
<g>
</g>
<g>
</g>
<g>
</g>
<g>
</g>
<g>
</g>
<g>
</g>
<g>
</g>
<g>
</g>
<g>
</g>
<g>
</g>
<g>
</g>
<g>
</g>
</svg>
