<?xml version="1.0" encoding="iso-8859-1"?>
<!-- Generator: Adobe Illustrator 19.0.0, SVG Export Plug-In . SVG Version: 6.00 Build 0)  -->
<svg version="1.1" id="Capa_1" xmlns="http://www.w3.org/2000/svg" xmlns:xlink="http://www.w3.org/1999/xlink" x="0px" y="0px"
	 viewBox="0 0 460 460" style="enable-background:new 0 0 460 460;" xml:space="preserve">
<g>
	<path style="fill:#FAE8AC;" d="M318.908,302h-89.754c-1.916,11.417-7.047,21.739-14.443,30h104.196V302z"/>
	<path style="fill:#FAE8AC;" d="M415,88c-7.177,0-13.169,5.044-14.644,11.779l29.594,2.217C429.431,94.182,422.945,88,415,88z"/>
	<path style="fill:#FAE8AC;" d="M170,232c-13.22,0-25.43,4.28-35.35,11.52l-77.27,56.44l23.6,32.3L110,311.07V372h100
		c0-12.15-9.85-22-22-22h-2.612c-4.912,1.3-10.067,2-15.388,2V232z"/>
	<path style="fill:#6B8F9C;" d="M0,341.87c13.03,17.84,38.05,21.74,55.89,8.71l25.09-18.32l-23.6-32.3L0,341.87z"/>
	<path style="fill:#F6D76F;" d="M450,116l-20-14l-0.051-0.004l-29.594-2.217l-0.725-0.054C398.135,93.018,392.158,88,385,88
		c-6.371,0-11.809,3.978-13.983,9.581L318.908,232H170v120c5.321,0,10.476-0.7,15.388-2c11.492-3.041,21.628-9.403,29.324-18
		c7.396-8.261,12.527-18.583,14.443-30h89.754v30c0,22.091,17.908,40,40,40v-40h0.396c10.272,0,20.887-2.507,30.695-7.081V332
		c0,22.091,17.909,40,40,40V152c0,0,6.75-2.25,15-5s15-10.85,15-18c0-7.15,0-13,0-13H450z"/>
</g>
<g>
</g>
<g>
</g>
<g>
</g>
<g>
</g>
<g>
</g>
<g>
</g>
<g>
</g>
<g>
</g>
<g>
</g>
<g>
</g>
<g>
</g>
<g>
</g>
<g>
</g>
<g>
</g>
<g>
</g>
</svg>
