<?xml version="1.0" encoding="iso-8859-1"?>
<!-- Generator: Adobe Illustrator 19.0.0, SVG Export Plug-In . SVG Version: 6.00 Build 0)  -->
<svg version="1.1" id="Capa_1" xmlns="http://www.w3.org/2000/svg" xmlns:xlink="http://www.w3.org/1999/xlink" x="0px" y="0px"
	 viewBox="0 0 460 460" style="enable-background:new 0 0 460 460;" xml:space="preserve">
<g>
	<path style="fill:#FBB071;" d="M163.702,342.127c-2.081,21.89-15.185,40.561-33.702,50.408V460h30v-60
		c29.4,0,54.152-19.831,61.654-46.841L163.702,342.127z"/>
	<path style="fill:#FF835D;" d="M350,368.446V460h30V353.275C371.377,360.292,361.229,365.464,350,368.446z"/>
	<path style="fill:#FAE8AC;" d="M430,115.263V200h-50v-34.737C380,137.649,402.386,115.263,430,115.263z"/>
	<path style="fill:#FF835D;" d="M330,115.263V200h50v-34.737C380,137.649,357.614,115.263,330,115.263z"/>
	<path style="fill:#FAE8AC;" d="M164,336c0,2.067-0.107,4.109-0.299,6.127L290,366.17v-30.54l-126-23.985V336z"/>
	<path style="fill:#F6D76F;" d="M380,200v86c0,18.26-6.6,33.79-18.59,43.73c-9.27,7.69-21.21,11.68-34.47,11.68
		c-4.31,0-8.77-0.42-13.31-1.28l-23.63-4.5V460h30v-88.851c50.59,3.585,90-32.073,90-85.149v-49.333L450,220v-20H380z"/>
	<path style="fill:#FBB071;" d="M380,200v86c0,18.26-6.6,33.79-18.59,43.73c-9.27,7.69-21.21,11.68-34.47,11.68
		c-4.31,0-8.77-0.42-13.31-1.28l-23.63-4.5v-72.866L330,260v-60H380z"/>
	<path style="fill:#F6D76F;" d="M100,275.89c-11.466-8.631-21.541-18.799-30-30.12V96.657H19.992
		C13.516,115.203,10,135.151,10,155.908c0,66.633,36.198,124.797,90,155.92L100,350H70v110h30l0-60c35.346,0,64-28.654,64-64
		v-24.355l126,23.985v-72.867L100,275.89z"/>
	<path style="fill:#FBB071;" d="M19.992,96.657H70v149.114c8.459,11.321,18.534,21.488,30,30.12V0
		C62.968,21.422,34.273,55.662,19.992,96.657z"/>
</g>
<g>
</g>
<g>
</g>
<g>
</g>
<g>
</g>
<g>
</g>
<g>
</g>
<g>
</g>
<g>
</g>
<g>
</g>
<g>
</g>
<g>
</g>
<g>
</g>
<g>
</g>
<g>
</g>
<g>
</g>
</svg>
