<?xml version="1.0" encoding="iso-8859-1"?>
<!-- Generator: Adobe Illustrator 19.0.0, SVG Export Plug-In . SVG Version: 6.00 Build 0)  -->
<svg version="1.1" id="Capa_1" xmlns="http://www.w3.org/2000/svg" xmlns:xlink="http://www.w3.org/1999/xlink" x="0px" y="0px"
	 viewBox="0 0 460 460" style="enable-background:new 0 0 460 460;" xml:space="preserve">
<g>
	<rect x="75" y="410" style="fill:#FAE8AC;" width="30" height="50"/>
	<path style="fill:#F6D76F;" d="M105,380c35.967,0,65.583-27.13,69.537-62.04H175V208.125c-38.66,0-70,31.34-70,70v9.835h30v30h-30
		v28.44H75V410h30V380z"/>
	<rect x="294.769" y="410" style="fill:#FAE8AC;" width="30" height="50"/>
	<rect x="235" y="410" style="fill:#F6D76F;" width="30" height="50"/>
	<rect x="235" y="317.964" style="fill:#FBB071;" width="30" height="92.036"/>
	<rect x="294.769" y="317.964" style="fill:#F6D76F;" width="30" height="92.036"/>
	<path style="fill:#F6D76F;" d="M246.193,20c0,16.499,13.501,30,30,30h3.57L285,20H246.193z"/>
	<path style="fill:#FBB071;" d="M355,40l-20-20h-20V0h-30v20l-5.237,30l-27.605,158.12L175,208.13v29.995h30v30h-30v49.835h149.77
		V306.4H325v-98.27h-30v-30h30v-30h-30v-30h30V80c8.884,0,16.862-3.865,22.355-10H385V40H355z M235.651,258.125h30v30h-30V258.125z"
		/>
	<rect x="105" y="410" style="fill:#FAEAB6;" width="30" height="50"/>
	<path style="fill:#FAE8AC;" d="M174.537,317.96C170.583,352.87,140.967,380,105,380v30h30v-30c35.967,0,65.583-27.13,69.537-62.04
		H174.537z"/>
	<rect x="175" y="238.125" style="fill:#8F5543;" width="30" height="30"/>
	<rect x="235.651" y="258.125" style="fill:#8F5543;" width="30" height="30"/>
	<rect x="295" y="178.13" style="fill:#8F5543;" width="30" height="30"/>
	<rect x="295" y="118.13" style="fill:#8F5543;" width="30" height="30"/>
	<rect x="105" y="287.96" style="fill:#FBB071;" width="30" height="30"/>
</g>
<g>
</g>
<g>
</g>
<g>
</g>
<g>
</g>
<g>
</g>
<g>
</g>
<g>
</g>
<g>
</g>
<g>
</g>
<g>
</g>
<g>
</g>
<g>
</g>
<g>
</g>
<g>
</g>
<g>
</g>
</svg>
