<?xml version="1.0" encoding="iso-8859-1"?>
<!-- Generator: Adobe Illustrator 19.0.0, SVG Export Plug-In . SVG Version: 6.00 Build 0)  -->
<svg version="1.1" id="Capa_1" xmlns="http://www.w3.org/2000/svg" xmlns:xlink="http://www.w3.org/1999/xlink" x="0px" y="0px"
	 viewBox="0 0 460 460" style="enable-background:new 0 0 460 460;" xml:space="preserve">
<g>
	<path style="fill:#C97E67;" d="M350,289.519V430h30V267.93C371.37,276.744,361.219,284.082,350,289.519z"/>
	<rect x="350" y="430" style="fill:#05232E;" width="30" height="30"/>
	<rect y="430" style="fill:#8F5543;" width="30" height="30"/>
	<rect x="60" y="430" style="fill:#05232E;" width="30" height="30"/>
	<rect x="285" y="430" style="fill:#05232E;" width="30" height="30"/>
	<path style="fill:#8F5543;" d="M370,136.667V30h-37.735L315,150h-31.25c0,35.206-28.544,63.75-63.75,63.75v86.409h65V430h30
		V299.554c12.384-1.323,24.187-4.795,35-10.036c11.219-5.437,21.37-12.774,30-21.588c18.497-18.893,30-44.559,30-72.798V96.667
		C410,118.666,391.999,136.667,370,136.667z"/>
	<path style="fill:#8F5543;" d="M60,378.872V430h30v-46c47.635,0,86.62-37.009,89.786-83.841h-60
		C117.319,336.648,93.107,367.169,60,378.872z"/>
	<path style="fill:#FBB071;" d="M156.25,150H120v144c0,2.071-0.076,4.124-0.214,6.159H220V213.75
		C184.794,213.75,156.25,185.206,156.25,150z M184.894,270.159h-30v-30h30V270.159z"/>
	<path style="fill:#F6D76F;" d="M283.75,150H220v63.75C255.206,213.75,283.75,185.206,283.75,150z"/>
	<path style="fill:#FAE8AC;" d="M220,213.75V150h-63.75C156.25,185.206,184.794,213.75,220,213.75z"/>
	<path style="fill:#8F5543;" d="M410,0v62.487c11.77-0.027,22.022-6.49,27.439-16.054L460,37.93V0H410z"/>
	<path style="fill:#FBB071;" d="M370,30v106.667c21.999,0,40-18.001,40-40V30H370z"/>
	<path style="fill:#F6D76F;" d="M370,30V0h-60c-41.355,0-75,33.645-75,75h30c0-24.813,20.187-45,45-45H370z"/>
	<path style="fill:#C97E67;" d="M119.786,300.159c0.138-2.036,0.214-4.088,0.214-6.159V150H30v-20H0v27.62c0,16.49,13.5,30,30,30
		V340H0v90h30v-46c10.52,0,20.616-1.811,30-5.128C93.107,367.169,117.319,336.648,119.786,300.159z M60,210v-30h30v30H60z"/>
	<rect x="370" style="fill:#C97E67;" width="40" height="30"/>
	<rect x="60" y="180" style="fill:#F6D76F;" width="30" height="30"/>
	<rect x="154.894" y="240.159" style="fill:#FAE8AC;" width="30" height="30"/>
	<path style="fill:#8F5543;" d="M30,100c-16.5,0-30,13.5-30,30h30V100z"/>
</g>
<g>
</g>
<g>
</g>
<g>
</g>
<g>
</g>
<g>
</g>
<g>
</g>
<g>
</g>
<g>
</g>
<g>
</g>
<g>
</g>
<g>
</g>
<g>
</g>
<g>
</g>
<g>
</g>
<g>
</g>
</svg>
