<?xml version="1.0" encoding="iso-8859-1"?>
<!-- Generator: Adobe Illustrator 19.0.0, SVG Export Plug-In . SVG Version: 6.00 Build 0)  -->
<svg version="1.1" id="Capa_1" xmlns="http://www.w3.org/2000/svg" xmlns:xlink="http://www.w3.org/1999/xlink" x="0px" y="0px"
	 viewBox="0 0 460 460" style="enable-background:new 0 0 460 460;" xml:space="preserve">
<g>
	<path style="fill:#FB5858;" d="M221.323,121.082c11.75-8.754,24.967-15.646,39.21-20.258c13.211-4.279,27.304-6.598,41.941-6.598
		c11.783,0.003,23.217,1.52,34.126,4.34C325.414,68.961,296.823,47.9,263.302,47.9l-49.247,36.8
		c-18.809,14.055-37.685,40.85-41.946,59.542c-1.354,5.941-2.63,11.536-3.74,16.408l28.861-21.564L221.323,121.082z"/>
	<path style="fill:#FF835D;" d="M263.302,360.481V412.1c33.333,0,61.785-20.827,73.103-50.171
		c-10.85,2.788-22.218,4.288-33.936,4.288C288.854,366.217,275.707,364.208,263.302,360.481z"/>
	<path style="fill:#FF835D;" d="M136.181,337.39c20.849,0,39.781-8.16,53.818-21.441l-53.818-40.211V337.39z"/>
	<path style="fill:#FF835D;" d="M460,208.688c0-11.892-9.64-21.532-21.532-21.532h-6.975c4.516,13.535,6.979,28.011,6.979,43.064
		C450.362,230.218,460,220.578,460,208.688z"/>
	<path style="fill:#FB5858;" d="M438.473,230.221c0-15.054-2.463-29.529-6.979-43.064c-10.585-31.722-32.523-58.25-61.017-74.729
		c-40.653,23.513-68.007,67.463-68.007,117.796h136.004c0,15.053-2.462,29.527-6.978,43.063h6.973
		c11.892,0,21.532-9.641,21.532-21.532C460,239.863,450.362,230.224,438.473,230.221z"/>
	<path style="fill:#FF835D;" d="M101.933,230.223h200.536c0-50.333,27.354-94.283,68.007-117.796
		c-10.483-6.063-21.861-10.754-33.876-13.86c-10.909-2.82-22.343-4.337-34.131-4.337c-14.632-0.003-28.725,2.315-41.936,6.595
		c-14.243,4.611-27.46,11.504-39.21,20.258l-24.093,18.004l-28.861,21.564l-66.438,49.643
		C101.933,210.296,101.933,230.223,101.933,230.223z"/>
	<path style="fill:#FB5858;" d="M321.056,298.876c-2.774,1.319-5.865,2.079-9.141,2.079c-1.859,0-3.652-0.263-5.371-0.709
		c-7.243,12.948-21.081,21.706-36.972,21.706c-23.385,0-42.343-18.958-42.343-42.343h63.34c0-9.585,6.318-17.694,15.016-20.391
		c-2.031-9.346-3.116-19.043-3.116-28.996H101.933v19.923c-0.001,0.002,34.248,25.592,34.248,25.592l53.818,40.211l31.324,23.404
		c12.508,9.319,26.678,16.533,41.979,21.129c12.405,3.727,25.553,5.735,39.167,5.735c11.718,0,23.085-1.5,33.936-4.288
		c12.087-3.105,23.532-7.813,34.072-13.909C350.049,336.205,332.984,319.228,321.056,298.876z"/>
	<path style="fill:#F72349;" d="M290.568,279.609h-63.34c0,23.385,18.957,42.343,42.343,42.343c15.891,0,29.729-8.758,36.972-21.706
		C297.359,297.861,290.568,289.539,290.568,279.609z"/>
	<path style="fill:#FF835D;" d="M290.568,279.609c0,9.93,6.791,18.252,15.974,20.637c1.719,0.446,3.513,0.709,5.371,0.709
		c3.276,0,6.367-0.76,9.141-2.079c-7.117-12.143-12.392-25.489-15.471-39.657C296.886,261.915,290.568,270.024,290.568,279.609z"/>
	<path style="fill:#F72349;" d="M302.469,230.223c0,9.953,1.085,19.65,3.116,28.996c3.078,14.168,8.354,27.515,15.471,39.657
		c11.929,20.352,28.994,37.329,49.421,49.144c28.495-16.48,50.435-43.011,61.019-74.734c4.516-13.535,6.978-28.01,6.978-43.063
		H302.469z"/>
	<path style="fill:#FB5858;" d="M101.933,230.221v-19.925c-0.002-0.003-34.647-49.159-34.647-49.159
		C53.759,141.944,23.48,126.241,0,126.241v103.979H101.933z"/>
	<path style="fill:#F72349;" d="M101.933,230.221H0v103.979c23.48,0,53.759-15.702,67.286-34.895l34.646-49.157
		C101.933,250.146,101.933,230.221,101.933,230.221z"/>
</g>
<g>
</g>
<g>
</g>
<g>
</g>
<g>
</g>
<g>
</g>
<g>
</g>
<g>
</g>
<g>
</g>
<g>
</g>
<g>
</g>
<g>
</g>
<g>
</g>
<g>
</g>
<g>
</g>
<g>
</g>
</svg>
