<?xml version="1.0" encoding="iso-8859-1"?>
<!-- Generator: Adobe Illustrator 19.0.0, SVG Export Plug-In . SVG Version: 6.00 Build 0)  -->
<svg version="1.1" id="Capa_1" xmlns="http://www.w3.org/2000/svg" xmlns:xlink="http://www.w3.org/1999/xlink" x="0px" y="0px"
	 viewBox="0 0 460 460" style="enable-background:new 0 0 460 460;" xml:space="preserve">
<g>
	<path style="fill:#FBB071;" d="M0,290v30h30c0-10.222,0.857-20.244,2.494-30H0z"/>
	<path style="fill:#8F5543;" d="M430,252.934V210c0-11.046-8.954-20-20-20s-20,8.954-20,20v14.74
		c17.295,11.769,30.567,20.8,30.566,20.801C423.878,247.794,427.025,250.271,430,252.934z"/>
	<path style="fill:#FBB071;" d="M430,252.934c-2.975-2.664-6.122-5.14-9.434-7.393c0.001-0.001-13.271-9.032-30.566-20.801
		c-3.214-2.187-6.567-4.468-10-6.804V240h-40v50c0,16.568,13.431,30,30,30h90C460,293.349,448.408,269.413,430,252.934z"/>
	<path style="fill:#FBB071;" d="M225.419,290H290c0-27.614,22.386-50,50-50v-30c0-5.876,2.549-11.143,6.584-14.802
		c-19.617-13.348-35.449-24.121-35.449-24.121C282.306,151.469,247.494,140,210,140c-62.132,0-116.911,31.48-149.259,79.36
		c0.111,0.215,0.21,0.425,0.32,0.64H130C174.776,220,212.676,249.43,225.419,290z"/>
	<path style="fill:#FAEAB6;" d="M340,290v-50c-27.614,0-50,22.386-50,50h-64.581c2.975,9.471,4.581,19.547,4.581,30h140
		C353.431,320,340,306.568,340,290z"/>
	<path style="fill:#C97E67;" d="M130,220H60.32c-13.858,20.702-23.535,44.438-27.826,70C30.857,299.756,30,309.778,30,320h200
		c0-10.453-1.606-20.529-4.581-30C212.676,249.43,174.776,220,130,220z"/>
	<path style="fill:#C97E67;" d="M340,210v30h40v-30c0-11.046-8.954-20-20-20c-5.17,0-9.866,1.979-13.416,5.198
		C342.549,198.857,340,204.124,340,210z"/>
</g>
<g>
</g>
<g>
</g>
<g>
</g>
<g>
</g>
<g>
</g>
<g>
</g>
<g>
</g>
<g>
</g>
<g>
</g>
<g>
</g>
<g>
</g>
<g>
</g>
<g>
</g>
<g>
</g>
<g>
</g>
</svg>
