<?xml version="1.0" encoding="iso-8859-1"?>
<!-- Generator: Adobe Illustrator 19.0.0, SVG Export Plug-In . SVG Version: 6.00 Build 0)  -->
<svg version="1.1" id="Capa_1" xmlns="http://www.w3.org/2000/svg" xmlns:xlink="http://www.w3.org/1999/xlink" x="0px" y="0px"
	 viewBox="0 0 460 460" style="enable-background:new 0 0 460 460;" xml:space="preserve">
<g>
	<path style="fill:#C97E67;" d="M430,275.22v-30.978c0-11.046-8.954-20-20-20s-20,8.954-20,20v1.227l34.877,30.874
		C426.555,275.897,428.264,275.525,430,275.22z"/>
	<path style="fill:#8F5543;" d="M301.26,304.242c4.44-17.252,20.101-30,38.74-30v-30c0-11.046,8.954-20,20-20
		c1.259,0,2.486,0.13,3.681,0.353l3.439-29.55l-33.695-0.134l-4.162-33.438l-32.759,7.882l-12.033-31.474l-29.906,15.522
		l-19.262-27.644L210,148.015v156.227H301.26z M250,194.242h30v30h-30V194.242z"/>
	<path style="fill:#C97E67;" d="M210,304.242V148.015l-25.303-22.257l-19.262,27.644L135.53,137.88l-12.032,31.474l-32.758-7.883
		l-4.162,33.438l-33.695,0.134l3.895,33.469l-32.697,8.145l11.779,31.568l-29.78,15.762l19.041,27.8L0,334.242h180
		C180,317.673,193.431,304.242,210,304.242z M120,254.242H90v-30h30V254.242z M160,294.242h-30v-30h30V294.242z"/>
	<rect x="250" y="194.242" style="fill:#C97E67;" width="30" height="30"/>
	<rect x="90" y="224.242" style="fill:#8F5543;" width="30" height="30"/>
	<rect x="130" y="264.242" style="fill:#8F5543;" width="30" height="30"/>
	<path style="fill:#FAEAB6;" d="M424.877,276.342L390,245.468l-12.682-11.227c1.693,2.952,2.682,6.357,2.682,10v30h-40
		c-18.638,0-34.299,12.748-38.74,30H210c-16.569,0-30,13.431-30,30h200C380,306.553,398.762,283.258,424.877,276.342z"/>
	<path style="fill:#FBB071;" d="M340,244.242v30h40v-30c0-3.643-0.99-7.048-2.691-9.99c-2.87-4.961-7.799-8.571-13.628-9.657
		c-1.195-0.223-2.422-0.353-3.681-0.353C348.954,224.242,340,233.196,340,244.242z"/>
	<path style="fill:#8F5543;" d="M441.056,274.242c-3.786,0-7.476,0.347-11.056,0.978c-1.736,0.306-3.445,0.678-5.123,1.122
		c-26.116,6.916-44.877,30.211-44.877,57.9h18.944c34.193,0,61.056-26.863,61.056-60H441.056z"/>
</g>
<g>
</g>
<g>
</g>
<g>
</g>
<g>
</g>
<g>
</g>
<g>
</g>
<g>
</g>
<g>
</g>
<g>
</g>
<g>
</g>
<g>
</g>
<g>
</g>
<g>
</g>
<g>
</g>
<g>
</g>
</svg>
