<?xml version="1.0" encoding="iso-8859-1"?>
<!-- Generator: Adobe Illustrator 19.0.0, SVG Export Plug-In . SVG Version: 6.00 Build 0)  -->
<svg version="1.1" id="Capa_1" xmlns="http://www.w3.org/2000/svg" xmlns:xlink="http://www.w3.org/1999/xlink" x="0px" y="0px"
	 viewBox="0 0 460 460" style="enable-background:new 0 0 460 460;" xml:space="preserve">
<g>
	<path style="fill:#325763;" d="M110,336.219V425h35v-85c34.51,0,65.612-14.573,87.504-37.894l-55.361-11.655
		C160.987,312.689,137.389,329.17,110,336.219z"/>
	<rect x="110" y="425" style="fill:#05232E;" width="35" height="35"/>
	<path style="fill:#8F5543;" d="M390,40h20V0c-8.884,0-16.862,3.864-22.355,10H390V40z"/>
	<path style="fill:#05232E;" d="M340,40V30c0-7.685,2.893-14.692,7.645-20h-26.186l-85.28,152.286L270,165L340,40z"/>
	<rect x="370" y="10" style="fill:#05232E;" width="20" height="30"/>
	<path style="fill:#C97E67;" d="M460,40h-90V0c-8.884,0-16.862,3.864-22.355,10C342.893,15.308,340,22.315,340,30v10l-70,125
		l-33.821-2.714L200,159.382L200,220c0,26.326-8.484,50.666-22.857,70.451l55.361,11.655L270,310v115h35V305.228
		c10.609-2.958,20.671-7.227,30-12.624c13.349-7.723,25.197-17.751,35-29.54c18.731-22.526,30-51.478,30-83.064V90l60-10V40z"/>
	<path style="fill:#8F5543;" d="M335,292.604V425h35V263.064C360.197,274.853,348.349,284.881,335,292.604z"/>
	<rect x="335" y="425" style="fill:#05232E;" width="35" height="35"/>
	<rect x="270" y="425" style="fill:#325763;" width="35" height="35"/>
	<path style="fill:#05232E;" d="M85.931,184.494H45c-24.853,0-45,20.147-45,45v95c24.851,0,45-20.149,45-45v-50h35V210
		C80,200.712,82.133,192.066,85.931,184.494z"/>
	<path style="fill:#8F5543;" d="M177.143,290.451C191.516,270.666,200,246.326,200,220v-60.618l-60.183-4.705
		c-23.64-1.848-44.191,10.485-53.887,29.817C82.133,192.066,80,200.712,80,210v97.5H45V425h35v-85c10.359,0,20.411-1.313,30-3.781
		C137.389,329.17,160.987,312.689,177.143,290.451z"/>
	<rect x="45" y="425" style="fill:#05232E;" width="35" height="35"/>
</g>
<g>
</g>
<g>
</g>
<g>
</g>
<g>
</g>
<g>
</g>
<g>
</g>
<g>
</g>
<g>
</g>
<g>
</g>
<g>
</g>
<g>
</g>
<g>
</g>
<g>
</g>
<g>
</g>
<g>
</g>
</svg>
