<?xml version="1.0" encoding="iso-8859-1"?>
<!-- Generator: Adobe Illustrator 19.0.0, SVG Export Plug-In . SVG Version: 6.00 Build 0)  -->
<svg version="1.1" id="Capa_1" xmlns="http://www.w3.org/2000/svg" xmlns:xlink="http://www.w3.org/1999/xlink" x="0px" y="0px"
	 viewBox="0 0 460 460" style="enable-background:new 0 0 460 460;" xml:space="preserve">
<g>
	<rect x="373.5" style="fill:#50BF94;" width="60" height="460"/>
	<path style="fill:#84D993;" d="M313.5,0v26.619c6.555,9.674,10.386,21.345,10.386,33.911c0,12.566-3.831,24.237-10.386,33.912
		v114.69h30v30h-30v18.504h30v30h-30v93.859h30v30h-30V430h30v30h30V0H313.5z"/>
	<path style="fill:#05232E;" d="M224.844,320c27.421,0,49.651,22.229,49.651,49.651v-82.015H343.5v-30h-30v-48.504h-39.005V120.02
		c-0.176,0.033-0.352,0.063-0.528,0.094c-5.146,50.011-47.404,89.018-98.774,89.018s-93.628-39.007-98.774-89.018
		c-1.719-0.304-3.414-0.673-5.079-1.119c-10.051,42.637-30.769,130.854-38.544,166.402c-2.068,9.456-2.808,19.342-2.808,29.399
		C29.989,394.99,94.999,460,175.193,460v-26.576l0-63.773C175.193,342.229,197.423,320,224.844,320z M115.193,339.651h30v30h-30
		V339.651z M75.193,299.651h30v30h-30V299.651z"/>
	<path style="fill:#325763;" d="M76.419,120.114c-0.348-3.381-0.528-6.812-0.528-10.285c0-6.905,0.706-13.644,2.048-20.151
		C65.53,85.799,56.5,74.2,56.5,60.53C56.5,43.695,70.195,30,87.03,30c7.68,0,14.701,2.856,20.072,7.555
		c7.396-6.971,15.859-12.822,25.123-17.275C121.139,7.841,105.003,0,87.03,0C53.6,0,26.5,27.1,26.5,60.53
		c0,28.002,19.019,51.552,44.84,58.465C73.005,119.44,74.7,119.81,76.419,120.114z"/>
	<path style="fill:#05232E;" d="M107.102,37.555C101.731,32.856,94.71,30,87.03,30C70.195,30,56.5,43.695,56.5,60.53
		c0,13.669,9.03,25.269,21.439,29.147C82.131,69.338,92.546,51.274,107.102,37.555z"/>
	<path style="fill:#6B8F9C;" d="M263.356,30c16.834,0,30.53,13.695,30.53,30.53c0,13.669-9.031,25.269-21.439,29.147
		c1.341,6.507,2.048,13.247,2.048,20.151c0,3.473-0.18,6.904-0.528,10.285c0.176-0.031,0.352-0.062,0.528-0.094
		c16.183-3.012,30.107-12.447,39.005-25.578c6.555-9.674,10.386-21.345,10.386-33.912c0-12.566-3.831-24.237-10.386-33.911
		C302.616,10.557,284.22,0,263.356,0c-17.973,0-34.109,7.841-45.195,20.28c9.263,4.453,17.726,10.304,25.123,17.275
		C248.655,32.856,255.677,30,263.356,30z"/>
	<path style="fill:#05232E;" d="M293.887,60.53c0-16.835-13.696-30.53-30.53-30.53c-7.68,0-14.701,2.856-20.072,7.555
		c14.556,13.719,24.971,31.783,29.163,52.122C284.856,85.799,293.887,74.2,293.887,60.53z"/>
	<path style="fill:#6B8F9C;" d="M77.939,89.677c-1.341,6.507-2.048,13.247-2.048,20.151c0,3.473,0.18,6.904,0.528,10.285
		c5.146,50.011,47.404,89.018,98.774,89.018V179.13c-16.573,0-30.003-13.43-30.003-30v-25.21c0-16.57,13.43-30,30-30
		c0.003,0,0.003-83.393,0.003-83.393c-15.392,0-29.966,3.503-42.969,9.753c-9.263,4.453-17.726,10.304-25.123,17.275
		C92.546,51.274,82.131,69.338,77.939,89.677z"/>
	<path style="fill:#325763;" d="M205.19,123.92v25.21c0,16.569-13.428,29.999-29.997,30v30.001c51.37,0,93.628-39.007,98.774-89.018
		c0.348-3.381,0.528-6.812,0.528-10.285c0-6.905-0.706-13.644-2.048-20.151c-4.193-20.339-14.607-38.403-29.163-52.122
		c-7.396-6.971-15.859-12.822-25.123-17.275c-13.003-6.25-27.576-9.753-42.969-9.753V93.92
		C191.762,93.922,205.19,107.351,205.19,123.92z"/>
	<path style="fill:#325763;" d="M313.5,381.048l-39.005,0.369v-11.766c0-27.421-22.23-49.651-49.651-49.651v140H313.5V381.048z"/>
	<rect x="313.5" y="381.495" style="fill:#6B8F9C;" width="30" height="30"/>
	<rect x="313.5" y="430" style="fill:#05232E;" width="30" height="30"/>
	<rect x="313.5" y="209.131" style="fill:#325763;" width="30" height="30"/>
	<path style="fill:#6B8F9C;" d="M224.844,320c-27.422,0-49.651,22.229-49.651,49.651V460h49.651V320z"/>
	<path style="fill:#05232E;" d="M205.19,149.13v-25.21c0-16.569-13.428-29.998-29.997-30c-0.003,0-0.003,85.21-0.003,85.21
		C191.762,179.128,205.19,165.699,205.19,149.13z"/>
	<path style="fill:#325763;" d="M175.19,93.92c-16.57,0-30,13.43-30,30v25.21c0,16.57,13.43,30,30,30V93.92z"/>
	<rect x="75.193" y="299.651" style="fill:#325763;" width="30" height="30"/>
	<rect x="115.193" y="339.651" style="fill:#325763;" width="30" height="30"/>
</g>
<g>
</g>
<g>
</g>
<g>
</g>
<g>
</g>
<g>
</g>
<g>
</g>
<g>
</g>
<g>
</g>
<g>
</g>
<g>
</g>
<g>
</g>
<g>
</g>
<g>
</g>
<g>
</g>
<g>
</g>
</svg>
