<?xml version="1.0" encoding="iso-8859-1"?>
<!-- Generator: Adobe Illustrator 19.0.0, SVG Export Plug-In . SVG Version: 6.00 Build 0)  -->
<svg version="1.1" id="Capa_1" xmlns="http://www.w3.org/2000/svg" xmlns:xlink="http://www.w3.org/1999/xlink" x="0px" y="0px"
	 viewBox="0 0 460 460" style="enable-background:new 0 0 460 460;" xml:space="preserve">
<g>
	<path style="fill:#FF835D;" d="M375,460h35V314.722c-10.544,7.272-22.347,12.832-35,16.274V460z"/>
	<path style="fill:#FB5858;" d="M150,347.53V460h35V357.5c35.133,0,67.006-13.943,90.402-36.59l-72.607-13.83
		C189.091,324.755,170.933,338.8,150,347.53z"/>
	<path style="fill:#FBB071;" d="M345,291.263l-54.848-120.928L230,179.773V227.5c0,29.982-10.155,57.588-27.206,79.58l72.607,13.83
		L310,327.5V460h35V291.263z"/>
	<path style="fill:#FF835D;" d="M202.794,307.08C219.845,285.088,230,257.481,230,227.5v-47.727L100,197.5c-38.66,0-70-31.34-70-70
		c0-38.66,31.34-70,70-70c0-11.951,5.248-22.67,13.557-30H100c-55.229,0-100,44.771-100,100c0,55.228,44.771,100,100,100V325H65v135
		h35V357.5c17.719,0,34.607-3.551,50-9.97C170.933,338.8,189.091,324.755,202.794,307.08z"/>
	<path style="fill:#FB5858;" d="M100,57.5h40c22.091,0,40-17.909,40-40h-40c-10.14,0-19.393,3.781-26.443,10
		C105.248,34.83,100,45.549,100,57.5z"/>
	<path style="fill:#FB5858;" d="M370,108.571V73.658c-9.294,0-16.829-7.535-16.829-16.829S360.706,40,370,40h30l40,17.143V0h-50
		c-55,0-100,45-100,100v70l0.152,0.335L345,291.263V335c10.369,0,20.426-1.399,30-4.004c12.653-3.442,24.456-9.002,35-16.274
		c30.142-20.788,50-55.546,50-94.722l-20-111.429H370z"/>
	<path style="fill:#FBB071;" d="M460,88.571V65.714l-20-8.571L400,40h-30v68.571h70C451,108.571,460,99.571,460,88.571z"/>
	<path style="fill:#FF835D;" d="M353.171,56.829c0,9.294,7.535,16.829,16.829,16.829V40C360.706,40,353.171,47.535,353.171,56.829z"
		/>
</g>
<g>
</g>
<g>
</g>
<g>
</g>
<g>
</g>
<g>
</g>
<g>
</g>
<g>
</g>
<g>
</g>
<g>
</g>
<g>
</g>
<g>
</g>
<g>
</g>
<g>
</g>
<g>
</g>
<g>
</g>
</svg>
