<?xml version="1.0" encoding="iso-8859-1"?>
<!-- Generator: Adobe Illustrator 19.0.0, SVG Export Plug-In . SVG Version: 6.00 Build 0)  -->
<svg version="1.1" id="Capa_1" xmlns="http://www.w3.org/2000/svg" xmlns:xlink="http://www.w3.org/1999/xlink" x="0px" y="0px"
	 viewBox="0 0 460 460" style="enable-background:new 0 0 460 460;" xml:space="preserve">
<g>
	<path style="fill:#50BF94;" d="M378.663,165.217c-30.207,0-54.782,24.575-54.782,54.783v145.434
		c0,35.602-28.964,64.566-64.565,64.566s-64.565-28.965-64.565-64.566V321.67l28.93-44.99l1.023-30.783l4.036-121.404l0.997-30
		l0.993-29.862c0-11.05-3.26-21.33-8.87-29.939L199.29,0h-19.54v321.67h-15l0,43.764c0,52.145,42.422,94.566,94.565,94.566
		s94.565-42.422,94.565-94.566V220c0-13.666,11.117-24.783,24.782-24.783h15.377v-30H378.663z"/>
	<polygon style="fill:#B9F291;" points="95.96,94.492 95.96,49.744 65.96,49.744 65.96,124.492 130.76,124.492 129.763,94.492 	"/>
	<polygon style="fill:#B9F291;" points="90.96,237.088 90.96,309.15 65.96,309.15 65.96,339.15 120.96,339.15 120.96,273.717 
		135.82,276.69 134.797,245.896 	"/>
	<polygon style="fill:#84D993;" points="238.54,273.717 238.54,339.15 293.54,339.15 293.54,309.15 268.54,309.15 268.54,237.088 
		224.704,245.896 223.68,276.68 	"/>
	<polygon style="fill:#84D993;" points="293.54,124.492 293.54,49.744 263.54,49.744 263.54,94.492 229.737,94.492 228.74,124.492 	
		"/>
	<path style="fill:#84D993;" d="M179.75,321.67V0h-19.54l-22.57,34.69c-5.61,8.609-8.87,18.89-8.87,29.939l0.993,29.862l0.997,30
		l4.036,121.404l1.024,30.794l28.93,44.979H179.75z"/>
</g>
<g>
</g>
<g>
</g>
<g>
</g>
<g>
</g>
<g>
</g>
<g>
</g>
<g>
</g>
<g>
</g>
<g>
</g>
<g>
</g>
<g>
</g>
<g>
</g>
<g>
</g>
<g>
</g>
<g>
</g>
</svg>
