<?xml version="1.0" encoding="iso-8859-1"?>
<!-- Generator: Adobe Illustrator 19.0.0, SVG Export Plug-In . SVG Version: 6.00 Build 0)  -->
<svg version="1.1" id="Capa_1" xmlns="http://www.w3.org/2000/svg" xmlns:xlink="http://www.w3.org/1999/xlink" x="0px" y="0px"
	 viewBox="0 0 460.001 460.001" style="enable-background:new 0 0 460.001 460.001;" xml:space="preserve">
<g>
	<path style="fill:#6B8F9C;" d="M428.398,160.153c25.561-25.561,36.586-62.016,29.493-97.519l-29.419,5.877
		c5.125,25.647-2.833,51.976-21.288,70.429c-2.562,2.563-5.147,4.805-7.996,6.92l21.367,21.366
		C423.272,165.018,425.866,162.686,428.398,160.153z"/>
	<path style="fill:#6B8F9C;" d="M419.797,167.843l-10.691,6.66C409.108,174.507,419.776,167.86,419.797,167.843z"/>
	<path style="fill:#16A5D9;" d="M321.061,52.816c18.454-18.452,44.782-26.408,70.428-21.287l5.878-29.418
		c-35.5-7.093-71.958,3.932-97.52,29.492c-2.532,2.532-4.864,5.127-7.072,7.844l21.366,21.366
		C316.256,57.965,318.498,55.38,321.061,52.816z"/>
	<path style="fill:#6B8F9C;" d="M292.685,39.358C209.354,5.822,110.439,22.814,42.918,90.335l134.326,134.326L292.685,39.358z"/>
	<path style="fill:#325763;" d="M419.776,167.86l-10.668,6.646L235.343,282.76l134.322,134.322
		c67.522-67.521,84.513-166.438,50.982-249.765L419.776,167.86z"/>
	<path style="fill:#16A5D9;" d="M420.644,167.315l-63.979-63.979L160.153,299.849c-3.831-3.83-6.479-8.382-8.002-13.213L0,438.787
		L21.213,460l152.15-152.15c8.954,2.822,18.883,1.712,27.073-3.354l34.903-21.737l173.767-108.255l10.691-6.66L420.644,167.315z"/>
	<path style="fill:#4AD0FF;" d="M356.665,103.337l-42.523-42.523l-21.456-21.455L177.244,224.661
		c-0.001,0.001-21.744,34.896-21.723,34.918c-5.08,8.176-6.193,18.103-3.37,27.057c1.522,4.831,4.171,9.383,8.002,13.213
		L356.665,103.337z"/>
</g>
<g>
</g>
<g>
</g>
<g>
</g>
<g>
</g>
<g>
</g>
<g>
</g>
<g>
</g>
<g>
</g>
<g>
</g>
<g>
</g>
<g>
</g>
<g>
</g>
<g>
</g>
<g>
</g>
<g>
</g>
</svg>
