<?xml version="1.0" encoding="iso-8859-1"?>
<!-- Generator: Adobe Illustrator 19.0.0, SVG Export Plug-In . SVG Version: 6.00 Build 0)  -->
<svg version="1.1" id="Capa_1" xmlns="http://www.w3.org/2000/svg" xmlns:xlink="http://www.w3.org/1999/xlink" x="0px" y="0px"
	 viewBox="0 0 460 460" style="enable-background:new 0 0 460 460;" xml:space="preserve">
<g>
	<path style="fill:#05232E;" d="M441.056,245h-19.869l-97.465-79.532C292.715,140.178,253.132,125,210,125v110h30
		c41.022,0,76.268,24.704,91.69,60.043c9.477,0.394,18.097,4.085,24.754,9.957H380C380,271.863,406.863,245,441.056,245z"/>
	<path style="fill:#05232E;" d="M90,205H60.32c-13.858,20.702-23.535,44.438-27.826,70H0v30h190C190,249.771,145.229,205,90,205z"/>
	<path style="fill:#325763;" d="M240,235h-30V125c-62.132,0-116.912,31.48-149.259,79.36c0.195,0.216,0.37,0.425,0.561,0.64H90
		c55.229,0,100,44.771,100,100h20.425c4.47,17.202,21.025,30,39.575,30h40c0-22.091,17.909-40,40-40c0.567,0,1.129,0.02,1.69,0.043
		C316.268,259.704,281.022,235,240,235z"/>
	<path style="fill:#FB5858;" d="M330,295c-22.091,0-40,17.909-40,40h80c0-11.951-5.247-22.67-13.557-30
		c-6.656-5.872-15.277-9.563-24.754-9.957C331.129,295.02,330.567,295,330,295z"/>
	<path style="fill:#FB5858;" d="M441.056,245C406.863,245,380,271.863,380,305h18.944C433.137,305,460,278.137,460,245H441.056z"/>
</g>
<g>
</g>
<g>
</g>
<g>
</g>
<g>
</g>
<g>
</g>
<g>
</g>
<g>
</g>
<g>
</g>
<g>
</g>
<g>
</g>
<g>
</g>
<g>
</g>
<g>
</g>
<g>
</g>
<g>
</g>
</svg>
