<?xml version="1.0" encoding="iso-8859-1"?>
<!-- Generator: Adobe Illustrator 19.0.0, SVG Export Plug-In . SVG Version: 6.00 Build 0)  -->
<svg version="1.1" id="Capa_1" xmlns="http://www.w3.org/2000/svg" xmlns:xlink="http://www.w3.org/1999/xlink" x="0px" y="0px"
	 viewBox="0 0 460 460" style="enable-background:new 0 0 460 460;" xml:space="preserve">
<g>
	<path style="fill:#325763;" d="M130,290V85c0-35.898-29.101-65-65-65v30c19.33,0,35,15.67,35,35v205c0,16.568,13.431,30,30,30
		c0-10.359,1.313-20.411,3.781-30H130z"/>
	<path style="fill:#05232E;" d="M0,85c0,8.284,6.716,15,15,15s15-6.716,15-15c0-19.33,15.67-35,35-35V20C29.102,20,0,49.102,0,85z"
		/>
	<path style="fill:#325763;" d="M445,285c0,19.33-15.67,35-35,35h15c19.33,0,35-15.67,35-35H445z"/>
	<path style="fill:#6B8F9C;" d="M445,285c0-19.33-15.67-35-35-35v70C429.33,320,445,304.33,445,285z"/>
	<path style="fill:#325763;" d="M410,250h-62.528C361.646,269.703,370,293.875,370,320h40V250z M390,260v30c-8.284,0-15-6.716-15-15
		S381.716,260,390,260z"/>
	<path style="fill:#6B8F9C;" d="M250,200c-30.439,0-58.225,11.339-79.38,30.016c-0.207-0.002-0.412-0.016-0.62-0.016l-0.093,0.648
		c-17.345,15.558-30.139,36.087-36.127,59.352c-2.468,9.589-3.781,19.641-3.781,30v80c0,22.091,17.909,40,40,40h20
		c0-11.046-8.954-20-20-20v-70c22.205,0,41.577-12.071,51.953-30c5.108-8.827,8.047-19.067,8.047-30h70c16.569,0,30,13.432,30,30v80
		c0,22.091,17.909,40,40,40h20c0-11.046-8.954-20-20-20V320c0-26.125-8.354-50.297-22.528-70C325.688,219.721,290.149,200,250,200z"
		/>
	<path style="fill:#F6D76F;" d="M300,290h-70c0,10.933-2.938,21.173-8.047,30H330C330,303.432,316.569,290,300,290z"/>
	<path style="fill:#325763;" d="M260,400c0,22.091,17.909,40,40,40h20c0-11.046-8.954-20-20-20V320h-40V400z"/>
	<path style="fill:#FBB071;" d="M390,290v-30c-8.284,0-15,6.716-15,15S381.716,290,390,290z"/>
</g>
<g>
</g>
<g>
</g>
<g>
</g>
<g>
</g>
<g>
</g>
<g>
</g>
<g>
</g>
<g>
</g>
<g>
</g>
<g>
</g>
<g>
</g>
<g>
</g>
<g>
</g>
<g>
</g>
<g>
</g>
</svg>
