<?xml version="1.0" encoding="iso-8859-1"?>
<!-- Generator: Adobe Illustrator 19.0.0, SVG Export Plug-In . SVG Version: 6.00 Build 0)  -->
<svg version="1.1" id="Capa_1" xmlns="http://www.w3.org/2000/svg" xmlns:xlink="http://www.w3.org/1999/xlink" x="0px" y="0px"
	 viewBox="0 0 460 460" style="enable-background:new 0 0 460 460;" xml:space="preserve">
<g>
	<path style="fill:#05232E;" d="M335,55c0-23.16-14.31-42.97-34.57-51.07L144.72,393.2c10.91,4.39,22.82,6.8,35.28,6.8
		c52.39,0,95-42.62,95-95h30c0,68.92-56.07,125-125,125c-16.39,0-32.06-3.17-46.42-8.94l10.446-26.125L122.42,448.95
		C140.22,456.08,159.65,460,180,460c85.61,0,155-69.4,155-155V55z M305,275h-30v-30h30V275z M305,215h-30v-30h30V215z"/>
	<path style="fill:#325763;" d="M133.58,421.06C147.94,426.83,163.61,430,180,430c68.93,0,125-56.08,125-125h-30
		c0,52.38-42.61,95-95,95c-12.46,0-24.37-2.41-35.28-6.8L300.43,3.93C294.11,1.39,287.22,0,280,0c-15.67,0-29.81,6.56-39.82,17.08
		L67.74,198.12C41.26,225.93,25,263.57,25,305c0,65.25,40.33,121.09,97.42,143.95l21.606-54.016L133.58,421.06z M102.14,281.153h-30
		v-30h30V281.153z M142.14,321.153h-30v-30h30V321.153z"/>
	<rect x="72.14" y="251.153" style="fill:#FAE8AC;" width="30" height="30"/>
	<rect x="112.14" y="291.153" style="fill:#FAE8AC;" width="30" height="30"/>
	<rect x="275" y="185" style="fill:#F6D76F;" width="30" height="30"/>
	<rect x="335" y="215" style="fill:#C97E67;" width="70" height="30"/>
	<rect x="335" y="155" style="fill:#C97E67;" width="100" height="30"/>
	<rect x="335" y="95" style="fill:#C97E67;" width="70" height="30"/>
	<rect x="275" y="245" style="fill:#325763;" width="30" height="30"/>
</g>
<g>
</g>
<g>
</g>
<g>
</g>
<g>
</g>
<g>
</g>
<g>
</g>
<g>
</g>
<g>
</g>
<g>
</g>
<g>
</g>
<g>
</g>
<g>
</g>
<g>
</g>
<g>
</g>
<g>
</g>
</svg>
