<?xml version="1.0" encoding="iso-8859-1"?>
<!-- Generator: Adobe Illustrator 19.0.0, SVG Export Plug-In . SVG Version: 6.00 Build 0)  -->
<svg version="1.1" id="Capa_1" xmlns="http://www.w3.org/2000/svg" xmlns:xlink="http://www.w3.org/1999/xlink" x="0px" y="0px"
	 viewBox="0 0 460 460" style="enable-background:new 0 0 460 460;" xml:space="preserve">
<g>
	<path style="fill:#FF835D;" d="M413.716,30c0.01,0.04,0.023,0.079,0.033,0.119l-9.501,1.355
		C390.553,35.289,379.815,46.2,376.261,60H415c16.569,0,30-13.432,30-30H413.716z M413.817,30.107
		C413.997,30.102,413.904,30.104,413.817,30.107L413.817,30.107z"/>
	<path style="fill:#FB5858;" d="M404.248,31.474l9.501-1.355c-0.01-0.04-0.023-0.079-0.033-0.119C409.219,12.8,393.595,0,375,0
		c-22.091,0-40,17.909-40,40v120h40V70c0-3.453,0.438-6.804,1.261-10C379.815,46.2,390.553,35.289,404.248,31.474z"/>
	<path style="fill:#FB5858;" d="M413.817,30.107C413.904,30.104,413.997,30.102,413.817,30.107L413.817,30.107z"/>
	<path style="fill:#F6D76F;" d="M145,310v-33.334L95,260C95,287.614,117.386,310,145,310z"/>
	<path style="fill:#F6D76F;" d="M65,310v-50H15C15,287.615,37.386,310,65,310z"/>
	<path style="fill:#FB5858;" d="M195,293.333V460h60c0-16.568-13.431-30-30-30v-79.999c12.144-9.122,20-23.644,20-40.001
		L195,293.333z"/>
	<rect x="335" y="160" style="fill:#F6D76F;" width="40" height="30"/>
	<path style="fill:#05232E;" d="M335,220h-16.28c-16.872-52.224-65.88-90-123.72-90v30c55.229,0,100,44.771,100,100h40
		c22.091,0,40-17.909,40-40v-30h-40V220z"/>
	<path style="fill:#325763;" d="M195,160v-30c-54.078,0-100.438,33.022-120.03,80H65c-27.614,0-50,22.386-50,50h80
		C95,204.771,139.771,160,195,160z"/>
	<path style="fill:#05232E;" d="M195,160c-55.229,0-100,44.771-100,100l100,33.333V160z"/>
	<path style="fill:#325763;" d="M195,160v133.333L245,310c27.614,0,50-22.386,50-50C295,204.771,250.229,160,195,160z"/>
</g>
<g>
</g>
<g>
</g>
<g>
</g>
<g>
</g>
<g>
</g>
<g>
</g>
<g>
</g>
<g>
</g>
<g>
</g>
<g>
</g>
<g>
</g>
<g>
</g>
<g>
</g>
<g>
</g>
<g>
</g>
</svg>
