<?xml version="1.0" encoding="iso-8859-1"?>
<!-- Generator: Adobe Illustrator 19.0.0, SVG Export Plug-In . SVG Version: 6.00 Build 0)  -->
<svg version="1.1" id="Capa_1" xmlns="http://www.w3.org/2000/svg" xmlns:xlink="http://www.w3.org/1999/xlink" x="0px" y="0px"
	 viewBox="0 0 460 460" style="enable-background:new 0 0 460 460;" xml:space="preserve">
<g>
	<path style="fill:#6B8F9C;" d="M405.153,293.65c-4.681,3.669-9.799,6.773-15.153,9.27V310c0,22.091,17.909,40,40,40h20
		c0-11.046-8.954-20-20-20v-79C428.503,267.086,419.489,282.413,405.153,293.65z"/>
	<path style="fill:#325763;" d="M50,300c-27.614,0-50,22.386-50,50h110v-50H50z"/>
	<path style="fill:#FAE8AC;" d="M400,246.09c0,13.395-11.37,25.041-24.69,30.541c-0.082,0.034-0.137,0.053-0.19,0.075
		c-5.169,2.109-10.622,3.294-15.814,3.294l0,30c10.272,0,20.887-2.507,30.695-7.081c5.354-2.497,10.472-5.6,15.153-9.27
		c14.336-11.237,23.35-26.564,24.847-42.65c0.152-1.632,0-3.269,0-4.913V160l-30,10V246.09z"/>
	<path style="fill:#6B8F9C;" d="M110,265v85h100c0-12.15-9.85-22-22-22h-7.68c7.52-5.23,14.43-11.27,20.61-18H319.3v-97.12
		l-110.42-17.94C154.5,186.72,110,218.25,110,265z"/>
	<path style="fill:#F6D76F;" d="M450,124l-20-14h-30v60c0,0,36.75-12.25,45-15s15-10.85,15-18s0-13,0-13H450z"/>
	<path style="fill:#325763;" d="M386,124.95c0-7.95,6.18-14.43,14-14.95h-9.468c-16.5,0-35.022,12.531-41.16,27.847L319.3,212.88
		V310c0,11.04,4.48,21.04,11.72,28.28S348.26,350,359.3,350h20c0-11.05-8.95-20-20-20v-50c5.194,0,10.649-1.185,15.819-3.294
		c0.054-0.022,0.109-0.041,0.162-0.063C388.63,271.131,400,259.485,400,246.09V139.9C392.18,139.38,386,132.9,386,124.95z"/>
	<path style="fill:#05232E;" d="M386,124.95c0,7.95,6.18,14.43,14,14.95V110C392.18,110.52,386,117,386,124.95z"/>
</g>
<g>
</g>
<g>
</g>
<g>
</g>
<g>
</g>
<g>
</g>
<g>
</g>
<g>
</g>
<g>
</g>
<g>
</g>
<g>
</g>
<g>
</g>
<g>
</g>
<g>
</g>
<g>
</g>
<g>
</g>
</svg>
