<?xml version="1.0" encoding="iso-8859-1"?>
<!-- Generator: Adobe Illustrator 19.0.0, SVG Export Plug-In . SVG Version: 6.00 Build 0)  -->
<svg version="1.1" id="Capa_1" xmlns="http://www.w3.org/2000/svg" xmlns:xlink="http://www.w3.org/1999/xlink" x="0px" y="0px"
	 viewBox="0 0 462.235 462.235" style="enable-background:new 0 0 462.235 462.235;" xml:space="preserve">
<g>
	<path style="fill:#05232E;" d="M112.378,341.425L8.439,447.59c19.526,19.526,51.184,19.526,70.711,0l28.284-28.284
		c19.526,19.526,51.184,19.526,70.711,0l25.617-25.617C169.161,384.777,137.068,365.731,112.378,341.425z"/>
	<path style="fill:#05232E;" d="M403.797,50h-50v109.995c0.002-37.012,20.112-69.324,50-86.614
		c14.709-8.509,31.785-13.381,50-13.381c0-6.303,0-10,0-10V0C426.182,0,403.797,22.386,403.797,50z"/>
	<path style="fill:#8F5543;" d="M303.797,50c0-27.614-22.386-50-50-50v60c18.215,0,35.291,4.872,50,13.381
		c29.889,17.291,50,49.605,50,86.619V50H303.797z"/>
	<path style="fill:#F6D76F;" d="M353.797,189.383v-24.48c0-2.99,0-4.904,0-4.904c0-37.012-20.111-69.327-50-86.617
		c-14.709-8.509-31.785-13.381-50-13.381v140C280.964,172.835,322.801,169.304,353.797,189.383z M283.797,130
		c0-11.045,8.954-20,20-20s20,8.955,20,20c0,11.046-8.954,20-20,20S283.797,141.046,283.797,130z"/>
	<path style="fill:#FBB071;" d="M353.797,159.996v29.387c4.65,3.012,9.061,6.542,13.136,10.617h86.864v-140
		c-18.215,0-35.291,4.872-50,13.381C373.909,90.672,353.798,122.984,353.797,159.996z M423.797,130c0,11.046-8.954,20-20,20
		s-20-8.954-20-20c0-11.045,8.954-20,20-20S423.797,118.955,423.797,130z"/>
	<path style="fill:#8F5543;" d="M253.797,200l-9.209,9.209L253.797,200z"/>
	<path style="fill:#C97E67;" d="M366.934,200.001c31.242,31.242,31.242,81.896,0,113.138
		c-62.483,62.483-163.788,62.483-226.272,0.002l-28.283,28.285c24.69,24.306,56.782,43.353,91.383,52.265
		c15.992,4.119,32.758,6.311,50.036,6.311c110.457,0,200-89.542,200-200C453.797,200.001,366.933,200,366.934,200.001z"/>
	<path style="fill:#325763;" d="M253.797,200l113.137,113.138c31.242-31.242,31.242-81.896,0-113.138
		c-4.076-4.075-8.487-7.606-13.137-10.618C322.801,169.304,280.964,172.835,253.797,200z"/>
	<path style="fill:#05232E;" d="M366.934,313.138L253.796,200.001l-9.208,9.209L140.659,313.138
		C203.146,375.622,304.451,375.621,366.934,313.138z"/>
	<circle style="fill:#FFFFFF;" cx="303.797" cy="130" r="20"/>
	<circle style="fill:#FDF3D3;" cx="403.797" cy="130" r="20"/>
</g>
<g>
</g>
<g>
</g>
<g>
</g>
<g>
</g>
<g>
</g>
<g>
</g>
<g>
</g>
<g>
</g>
<g>
</g>
<g>
</g>
<g>
</g>
<g>
</g>
<g>
</g>
<g>
</g>
<g>
</g>
</svg>
