<?xml version="1.0" encoding="iso-8859-1"?>
<!-- Generator: Adobe Illustrator 19.0.0, SVG Export Plug-In . SVG Version: 6.00 Build 0)  -->
<svg version="1.1" id="Capa_1" xmlns="http://www.w3.org/2000/svg" xmlns:xlink="http://www.w3.org/1999/xlink" x="0px" y="0px"
	 viewBox="0 0 460 460" style="enable-background:new 0 0 460 460;" xml:space="preserve">
<g>
	<path style="fill:#05232E;" d="M350,85v-7.5c0-12.426-10.074-22.5-22.5-22.5S305,65.074,305,77.5V85H350z"/>
	<path style="fill:#05232E;" d="M425,77.5c0-12.426-10.074-22.5-22.5-22.5S380,65.074,380,77.5V85h45V77.5z"/>
	<path style="fill:#FAE8AC;" d="M350,85v165.324l85.142-57.529C448.814,183.558,460,161.5,460,145V85H350z"/>
	<path style="fill:#6B8F9C;" d="M0,405c55.229,0,100-44.772,100-100H0V405z"/>
	<path style="fill:#05232E;" d="M350,405h40c0-16.569-13.431-30-30-30h-10v-70H250C250,360.228,294.771,405,350,405z"/>
	<path style="fill:#05232E;" d="M230,405h40c0-16.569-13.431-30-30-30h-10v-70H130C130,360.228,174.771,405,230,405z"/>
	<path style="fill:#FDF3D3;" d="M100,85C45,85,0,130,0,185v120h250V85H100z M100,245H70v-30h30V245z M190,205h-30v-30h30V205z
		 M190,145h-30v-30h30V145z"/>
	<rect x="160" y="115" style="fill:#FFFFFF;" width="30" height="30"/>
	<rect x="160" y="175" style="fill:#FFFFFF;" width="30" height="30"/>
	<rect x="70" y="215" style="fill:#FFFFFF;" width="30" height="30"/>
	<rect x="250" y="85" style="fill:#325763;" width="100" height="220"/>
</g>
<g>
</g>
<g>
</g>
<g>
</g>
<g>
</g>
<g>
</g>
<g>
</g>
<g>
</g>
<g>
</g>
<g>
</g>
<g>
</g>
<g>
</g>
<g>
</g>
<g>
</g>
<g>
</g>
<g>
</g>
</svg>
