<?xml version="1.0" encoding="iso-8859-1"?>
<!-- Generator: Adobe Illustrator 19.0.0, SVG Export Plug-In . SVG Version: 6.00 Build 0)  -->
<svg version="1.1" id="Capa_1" xmlns="http://www.w3.org/2000/svg" xmlns:xlink="http://www.w3.org/1999/xlink" x="0px" y="0px"
	 viewBox="0 0 460 460" style="enable-background:new 0 0 460 460;" xml:space="preserve">
<g>
	<path style="fill:#05232E;" d="M123.645,151.208L17.574,257.279c-23.431,23.432-23.431,61.421,0,84.853l58.644-58.644
		c11.158,0.617,22.401-0.845,33.122-4.362C113.87,238.608,119.37,189.431,123.645,151.208z"/>
	<path style="fill:#05232E;" d="M442.426,257.279L336.358,151.21c-4.038-36.112-6.982-62.446-6.982-62.446
		C323.783,38.826,281.429,0,230,0v29.924c-0.046-0.001-0.046,118.242-0.046,118.242l0.046-0.032l61.853-44.181l27.626,256.353
		c0.024,0.221,0.049,0.44,0.071,0.662c0,0,0.023,0.215,0.019,0.215c0.282,2.901,0.431,5.842,0.431,8.817
		c0,25.69-10.765,48.866-28.03,65.264C299.838,440.672,305,449.731,305,460h18.802C346.22,436.642,360,404.932,360,370
		c0-4.939-0.285-9.811-0.822-14.607c0.004,0-3.712-33.252-8.521-76.269c10.721,3.519,21.966,4.98,33.124,4.363l58.644,58.644
		C465.858,318.701,465.858,280.711,442.426,257.279z"/>
	<path style="fill:#325763;" d="M215,460h15c-5.123,0-10.143-0.435-15.032-1.257C214.985,459.161,215,459.579,215,460z"/>
	<path style="fill:#325763;" d="M168.03,435.264C150.765,418.866,140,395.69,140,370c0-2.976,0.148-5.916,0.426-8.817l0.023-0.215
		c0.022-0.221,0.048-0.441,0.071-0.662l27.62-256.292l61.814,44.152L230,0c-51.429,0-93.783,38.826-99.368,88.764
		c-0.002,0-2.948,26.333-6.987,62.444c-4.275,38.223-9.774,87.4-14.305,127.917c-4.81,43.016-8.528,76.268-8.528,76.268
		C100.285,360.189,100,365.061,100,370c0,34.932,13.78,66.642,36.198,90H155C155,449.731,160.162,440.672,168.03,435.264z"/>
	<path style="fill:#05232E;" d="M230,460h15c0-0.421,0.015-0.839,0.032-1.257C240.143,459.565,235.123,460,230,460z"/>
	<path style="fill:#FAE8AC;" d="M159.476,184.414l8.664-80.4l-27.62,256.292c-0.024,0.221-0.049,0.44-0.071,0.662l-0.023,0.215
		C140.148,364.084,140,367.024,140,370c0,25.69,10.765,48.866,28.03,65.264C172.856,431.946,178.7,430,185,430
		c16.147,0,29.309,12.758,29.968,28.743C219.857,459.565,224.877,460,230,460V210C203.161,210,178.571,200.383,159.476,184.414z"/>
	<path style="fill:#FDF3D3;" d="M275,430c6.3,0,12.144,1.946,16.97,5.264C309.235,418.866,320,395.69,320,370
		c0-2.976-0.148-5.916-0.431-8.817c0.004,0-0.019-0.215-0.019-0.215c-0.022-0.221-0.048-0.441-0.071-0.662l-27.626-256.353
		l8.671,80.46C281.429,200.383,256.839,210,230,210v250c5.123,0,10.143-0.435,15.032-1.257C245.691,442.758,258.853,430,275,430z"/>
	<path style="fill:#F6D76F;" d="M300.524,184.414l-8.671-80.46L230,148.134V210C256.839,210,281.429,200.383,300.524,184.414z"/>
	<path style="fill:#FBB071;" d="M159.476,184.414C178.571,200.383,203.161,210,230,210v-61.866l-0.046,0.032l-61.814-44.152
		L159.476,184.414z"/>
	<path style="fill:#05232E;" d="M185,430c-6.3,0-12.144,1.946-16.97,5.264C160.162,440.672,155,449.731,155,460h60
		c0-0.421-0.015-0.839-0.032-1.257C214.309,442.758,201.147,430,185,430z"/>
	<path style="fill:#325763;" d="M291.97,435.264C287.144,431.946,281.3,430,275,430c-16.147,0-29.309,12.758-29.968,28.743
		C245.015,459.161,245,459.579,245,460h60C305,449.731,299.838,440.672,291.97,435.264z"/>
</g>
<g>
</g>
<g>
</g>
<g>
</g>
<g>
</g>
<g>
</g>
<g>
</g>
<g>
</g>
<g>
</g>
<g>
</g>
<g>
</g>
<g>
</g>
<g>
</g>
<g>
</g>
<g>
</g>
<g>
</g>
</svg>
