<?xml version="1.0" encoding="iso-8859-1"?>
<!-- Generator: Adobe Illustrator 19.0.0, SVG Export Plug-In . SVG Version: 6.00 Build 0)  -->
<svg version="1.1" id="Capa_1" xmlns="http://www.w3.org/2000/svg" xmlns:xlink="http://www.w3.org/1999/xlink" x="0px" y="0px"
	 viewBox="0 0 460 460" style="enable-background:new 0 0 460 460;" xml:space="preserve">
<g>
	<path style="fill:#F72349;" d="M430,170v-70c-22.091,0-40,17.909-40,40v11.108L418.944,170H430z"/>
	<path style="fill:#F72349;" d="M320,297.604V395h35V268.064C345.196,279.853,333.349,289.881,320,297.604z"/>
	<path style="fill:#FF835D;" d="M418.944,170L390,151.108l-10-6.527V170h-40v-30c0-5.306,1.042-10.367,2.919-15H165v90
		c0,34.261-13.261,65.421-34.921,88.644L255,315v80h35v-84.772c10.609-2.958,20.671-7.227,30-12.624
		c13.349-7.723,25.196-17.751,35-29.54c3.447-4.146,6.645-8.506,9.563-13.064h34.382C433.137,255,460,228.137,460,195v-25H418.944z
		 M215,285h-30v-30h30V285z M225,245v-30h30v30H225z"/>
	<path style="fill:#FB5858;" d="M165,125H35V95h40c0-16.568-13.431-30-30-30H35C18.432,65,5,78.432,5,95v30
		c0,16.568,13.432,30,30,30v155H0v85h35v-50c37.536,0,71.349-15.915,95.079-41.356C151.739,280.421,165,249.261,165,215V125z
		 M105,235v30H75v-30H105z"/>
	<rect x="75" y="235" style="fill:#FF835D;" width="30" height="30"/>
	<rect x="185" y="255" style="fill:#F72349;" width="30" height="30"/>
	<rect x="225" y="215" style="fill:#F72349;" width="30" height="30"/>
	<path style="fill:#FB5858;" d="M340,170h40v-70c-16.785,0-31.146,10.343-37.081,25c-1.876,4.633-2.919,9.694-2.919,15V170z"/>
</g>
<g>
</g>
<g>
</g>
<g>
</g>
<g>
</g>
<g>
</g>
<g>
</g>
<g>
</g>
<g>
</g>
<g>
</g>
<g>
</g>
<g>
</g>
<g>
</g>
<g>
</g>
<g>
</g>
<g>
</g>
</svg>
