<?xml version="1.0" encoding="iso-8859-1"?>
<!-- Generator: Adobe Illustrator 19.0.0, SVG Export Plug-In . SVG Version: 6.00 Build 0)  -->
<svg version="1.1" id="Capa_1" xmlns="http://www.w3.org/2000/svg" xmlns:xlink="http://www.w3.org/1999/xlink" x="0px" y="0px"
	 viewBox="0 0 460 460" style="enable-background:new 0 0 460 460;" xml:space="preserve">
<g>
	<path style="fill:#6B8F9C;" d="M380,163.792v10h20.5v-26.827c0-0.258-0.008-0.514-0.01-0.771
		c-0.415-54.873-45.019-99.229-99.99-99.229h-120c0,16.568,13.431,30,30,30h90c38.601,0,69.901,31.246,69.996,69.825
		C376.192,150.315,380,156.602,380,163.792z"/>
	<path style="fill:#05232E;" d="M160.469,332.271c4.625,45.366,42.944,80.763,89.531,80.763h30c0-16.569-13.431-30-30-30v-60h-37.2
		L160.469,332.271z"/>
	<path style="fill:#05232E;" d="M430,173.792v-10c0-11.046-8.954-20-20-20c-3.443,0-6.681,0.871-9.51,2.403
		c0.002,0.257,0.01,0.513,0.01,0.771v26.827h-80.622l-0.646-35.067l-49.23,27.143l-20.267-52.437L212.8,155.834v167.2H270
		c0,49.706,40.294,90,90,90h30c0-16.569-13.431-30-30-30V302.36l75.142-50.772C448.814,242.351,460,220.292,460,203.792v-30H430z
		 M250,243.034v-30h30v30H250z"/>
	<path style="fill:#325763;" d="M212.8,155.834l-36.934-42.402l-20.267,52.437l-49.229-27.144l-1.036,56.214l-55.545-8.701
		l18.172,53.201l-55.176,10.794l35.329,43.732L0,323.034l20,12.083v77.917c43.371,0,79.573-30.679,88.097-71.519l52.372-9.244
		l52.331-9.237V155.834z M141,253.034h-30v-30h30V253.034z M151,263.034h30v30h-30V263.034z"/>
	<rect x="250" y="213.034" style="fill:#325763;" width="30" height="30"/>
	<rect x="111" y="223.034" style="fill:#05232E;" width="30" height="30"/>
	<rect x="151" y="263.034" style="fill:#05232E;" width="30" height="30"/>
	<path style="fill:#325763;" d="M380,173.792v-10c0-7.191-3.808-13.477-9.505-17.001c-3.054-1.89-6.641-2.999-10.495-2.999
		c-11.046,0-20,8.954-20,20v10H380z"/>
</g>
<g>
</g>
<g>
</g>
<g>
</g>
<g>
</g>
<g>
</g>
<g>
</g>
<g>
</g>
<g>
</g>
<g>
</g>
<g>
</g>
<g>
</g>
<g>
</g>
<g>
</g>
<g>
</g>
<g>
</g>
</svg>
