<?xml version="1.0" encoding="iso-8859-1"?>
<!-- Generator: Adobe Illustrator 19.0.0, SVG Export Plug-In . SVG Version: 6.00 Build 0)  -->
<svg version="1.1" id="Capa_1" xmlns="http://www.w3.org/2000/svg" xmlns:xlink="http://www.w3.org/1999/xlink" x="0px" y="0px"
	 viewBox="0 0 460 460" style="enable-background:new 0 0 460 460;" xml:space="preserve">
<g>
	<path style="fill:#FBB071;" d="M146.673,63.595C132.406,48.642,112.299,39.311,90,39.311v73.559
		C105.422,92.951,124.68,76.154,146.673,63.595z"/>
	<path style="fill:#FAE8AC;" d="M51.787,203.837L36,191.997c-8.8-6.6-25-12-36-12v50h50C50,221.121,50.618,212.392,51.787,203.837z"
		/>
	<path style="fill:#F6D76F;" d="M60,229.997L241.5,230V38.5c-34.501,0-66.868,9.128-94.827,25.095
		C124.68,76.154,105.422,92.951,90,112.869c-20.027,25.865-33.572,56.996-38.213,90.968C50.618,212.392,50,221.121,50,229.997H60z
		 M130,197.59h-30v-30h30V197.59z M181,147.59h30v30h-30V147.59z M171,107.59v30h-30v-30H171z"/>
	<path style="fill:#FBB071;" d="M427.458,230l11.01-0.003c11.892,0,21.532-9.642,21.532-21.532c0-11.892-9.64-21.532-21.532-21.532
		h-10.332C408.596,101.904,332.452,38.5,241.5,38.5V230H427.458z M316,147.59h30v30h-30V147.59z M280,87.59h30v30h-30V87.59z"/>
	<path style="fill:#FDF3D3;" d="M60,230l-60-0.003v50c11,0,27.2-5.4,36-12l15.786-11.84C50.617,247.604,50,238.874,50,230H60z"/>
	<path style="fill:#FF835D;" d="M438.468,229.997h-11.01L346,230c0,41.26,28.73,75.82,67.27,84.75
		c6.484-13.116,11.498-27.086,14.854-41.688h10.344c11.892,0,21.532-9.642,21.532-21.532
		C460,239.638,450.36,229.997,438.468,229.997z"/>
	<rect x="141" y="107.59" style="fill:#FF835D;" width="30" height="30"/>
	<rect x="181" y="147.59" style="fill:#FF835D;" width="30" height="30"/>
	<path style="fill:#F6D76F;" d="M90,347.126v73.558c22.298,0,42.404-9.33,56.671-24.281C124.678,383.842,105.422,367.045,90,347.126
		z"/>
	<path style="fill:#FAE8AC;" d="M346,230H50c0,8.874,0.617,17.604,1.786,26.157C56.427,290.128,69.973,321.26,90,347.126
		c15.422,19.919,34.678,36.716,56.671,49.276C174.63,412.37,206.998,421.5,241.5,421.5c75.33,0,140.51-43.5,171.77-106.75
		C374.73,305.82,346,271.26,346,230z M190,332.404h-30v-30h30V332.404z M241.5,292.404h-30v-30h30V292.404z M346,352.404h-30v-30h30
		V352.404z"/>
	<rect x="100" y="167.59" style="fill:#FF835D;" width="30" height="30"/>
	<rect x="316" y="147.59" style="fill:#8F5543;" width="30" height="30"/>
	<rect x="280" y="87.59" style="fill:#8F5543;" width="30" height="30"/>
	<rect x="160" y="302.404" style="fill:#FFFFFF;" width="30" height="30"/>
	<rect x="316" y="322.404" style="fill:#FFFFFF;" width="30" height="30"/>
	<rect x="211.5" y="262.404" style="fill:#FFFFFF;" width="30" height="30"/>
</g>
<g>
</g>
<g>
</g>
<g>
</g>
<g>
</g>
<g>
</g>
<g>
</g>
<g>
</g>
<g>
</g>
<g>
</g>
<g>
</g>
<g>
</g>
<g>
</g>
<g>
</g>
<g>
</g>
<g>
</g>
</svg>
