<?xml version="1.0" encoding="iso-8859-1"?>
<!-- Generator: Adobe Illustrator 19.0.0, SVG Export Plug-In . SVG Version: 6.00 Build 0)  -->
<svg version="1.1" id="Capa_1" xmlns="http://www.w3.org/2000/svg" xmlns:xlink="http://www.w3.org/1999/xlink" x="0px" y="0px"
	 viewBox="0 0 460 460" style="enable-background:new 0 0 460 460;" xml:space="preserve">
<g>
	<path style="fill:#325763;" d="M245,410c0,27.614,22.386,50,50,50h20c0-11.046-8.954-20-20-20v-60h-50V410z"/>
	<path style="fill:#325763;" d="M415,250c0-16.569-13.432-30-30-30v30H415z"/>
	<path style="fill:#FAE8AC;" d="M425,270l-60,22.5V330l61.273-22.978C436.573,303.16,445,293.25,445,285s0-15,0-15H425z"/>
	<path style="fill:#05232E;" d="M425,270l-10-20h-50c0-16.569-13.432-30-30-30v30h-90v130h70v30c0,27.614,22.386,50,50,50h20
		c0-11.046-8.954-20-20-20V292.5L425,270z"/>
	<path style="fill:#FAE8AC;" d="M50,250v20.62c10.29,5.97,22.25,9.38,35,9.38v-30H50z"/>
	<rect x="50" y="220" style="fill:#05232E;" width="35" height="30"/>
	<rect x="50" y="190" style="fill:#FAE8AC;" width="35" height="30"/>
	<rect x="50" y="160" style="fill:#05232E;" width="35" height="30"/>
	<rect x="50" y="130" style="fill:#FAE8AC;" width="35" height="30"/>
	<rect x="50" y="100" style="fill:#05232E;" width="35" height="30"/>
	<rect x="50" y="70" style="fill:#FAE8AC;" width="35" height="30"/>
	<path style="fill:#05232E;" d="M85,70V35C85,15.67,69.33,0,50,0v70H85z"/>
	<path style="fill:#FDF3D3;" d="M27.56,250c5.86,8.41,13.53,15.48,22.44,20.62V250H27.56z"/>
	<path style="fill:#325763;" d="M50,220H15.72c1.57,11.04,5.73,21.25,11.84,30H50V220z"/>
	<path style="fill:#FDF3D3;" d="M50,190H15v20c0,3.4,0.24,6.73,0.72,10H50V190z"/>
	<rect x="15" y="160" style="fill:#325763;" width="35" height="30"/>
	<rect x="15" y="130" style="fill:#FDF3D3;" width="35" height="30"/>
	<rect x="15" y="100" style="fill:#325763;" width="35" height="30"/>
	<rect x="15" y="70" style="fill:#FDF3D3;" width="35" height="30"/>
	<path style="fill:#325763;" d="M50,0C30.67,0,15,15.67,15,35v35h35V0z"/>
	<path style="fill:#325763;" d="M245,250H85v210c42.92,0,77.714-34.794,77.714-77.714V380H245V250z M115,280h30v30h-30V280z
		 M185,350h-30v-30h30V350z"/>
	<rect x="115" y="280" style="fill:#05232E;" width="30" height="30"/>
	<rect x="155" y="320" style="fill:#05232E;" width="30" height="30"/>
</g>
<g>
</g>
<g>
</g>
<g>
</g>
<g>
</g>
<g>
</g>
<g>
</g>
<g>
</g>
<g>
</g>
<g>
</g>
<g>
</g>
<g>
</g>
<g>
</g>
<g>
</g>
<g>
</g>
<g>
</g>
</svg>
