<?xml version="1.0" encoding="iso-8859-1"?>
<!-- Generator: Adobe Illustrator 19.0.0, SVG Export Plug-In . SVG Version: 6.00 Build 0)  -->
<svg version="1.1" id="Capa_1" xmlns="http://www.w3.org/2000/svg" xmlns:xlink="http://www.w3.org/1999/xlink" x="0px" y="0px"
	 viewBox="0 0 460 460" style="enable-background:new 0 0 460 460;" xml:space="preserve">
<g>
	<polygon style="fill:#6B8F9C;" points="429.999,74.992 429.999,140.904 460,149.656 460,74.992 	"/>
	<polygon style="fill:#6B8F9C;" points="408.12,104.993 381.869,104.993 381.869,126.865 408.12,134.522 	"/>
	<rect x="303.894" y="314.964" style="fill:#05232E;" width="56.101" height="70.044"/>
	<path style="fill:#05232E;" d="M329.989,111.73c15.521,4.528,29.915,8.728,30.001,8.753V74.992
		c-16.511,0-29.903,13.339-29.997,29.828c0,0.058-0.004,0.115-0.004,0.174V111.73z"/>
	<path style="fill:#325763;" d="M408.12,134.522l-26.251-7.657l-21.874-6.381v98.175h60.003c22.001,0,40.002-18.001,40.002-40.002
		v-29.001l-30.001-8.751L408.12,134.522z"/>
	<path style="fill:#6B8F9C;" d="M359.995,120.484c-0.091-0.027-14.485-4.227-30.006-8.754v-6.737c0-0.058,0.004-0.115,0.004-0.174
		V74.992c-15.9,0-28.904,12.371-29.929,28.013c-4.919-1.433-8.055-2.346-8.053-2.341c-4.46-1.3-9.161-2.01-14.031-2.01
		c-20.601,0-38.292,12.461-45.943,30.252h-44.247v156.056c0,16.569,13.432,30.001,30.001,30.001v70.046h56.101v-70.044h86.102
		V120.484z M307.797,188.908v30.001h-30.002v-30.001H307.797z M217.792,158.906h30.002v30.002h-30.002V158.906z"/>
	<path style="fill:#325763;" d="M187.791,284.961V128.905h40.634l-83.1-0.001v85.26c0,43.339-23.906,81.089-59.247,100.8
		c0,0.002,131.714,0.002,131.714,0.002C201.223,314.963,187.791,301.53,187.791,284.961z"/>
	<path style="fill:#6B8F9C;" d="M145.325,214.163v-85.26h-25.568c-49.363,0-89.755,40.392-89.755,89.755v166.35h56.076v-70.046
		C121.418,295.251,145.325,257.502,145.325,214.163z M90,268.662H59.999v-30.002H90V268.662z"/>
	<path style="fill:#05232E;" d="M0,315.005v40.002c16.569,0,30.002-13.432,30.002-30.002v-40.002
		C13.432,285.003,0,298.435,0,315.005z"/>
	<rect x="277.795" y="188.908" style="fill:#325763;" width="30.002" height="30.001"/>
	<rect x="217.792" y="158.906" style="fill:#325763;" width="30.002" height="30.002"/>
	<rect x="59.999" y="238.661" style="fill:#325763;" width="30.002" height="30.002"/>
</g>
<g>
</g>
<g>
</g>
<g>
</g>
<g>
</g>
<g>
</g>
<g>
</g>
<g>
</g>
<g>
</g>
<g>
</g>
<g>
</g>
<g>
</g>
<g>
</g>
<g>
</g>
<g>
</g>
<g>
</g>
</svg>
