<?xml version="1.0" encoding="iso-8859-1"?>
<!-- Generator: Adobe Illustrator 19.0.0, SVG Export Plug-In . SVG Version: 6.00 Build 0)  -->
<svg version="1.1" id="Capa_1" xmlns="http://www.w3.org/2000/svg" xmlns:xlink="http://www.w3.org/1999/xlink" x="0px" y="0px"
	 viewBox="0 0 460 460" style="enable-background:new 0 0 460 460;" xml:space="preserve">
<g>
	<path style="fill:#F72349;" d="M368.654,236.38v106.86c0,42.325-34.434,76.76-76.759,76.76s-76.759-34.435-76.759-76.76v-21.929
		l-0.321,0.358h-19.678V276.69h-30v-30h30V0h-29.065l-14.897,23.271c-0.666-0.053-1.338-0.088-2.018-0.088
		c-13.807,0-25,11.193-25,25c0,8.61,4.354,16.204,10.98,20.7v71.708h30v30h-30v106.1l40,44.979v21.57
		c0,64.382,52.378,116.76,116.759,116.76s116.759-52.378,116.759-116.76V236.38H368.654z"/>
	<polygon style="fill:#FB5858;" points="101.346,94.492 101.346,49.744 71.346,49.744 71.346,124.492 135.137,124.492 
		135.137,94.492 	"/>
	<polygon style="fill:#FB5858;" points="76.346,246.69 76.346,306.531 51.346,306.531 51.346,336.531 106.346,336.531 
		106.346,276.69 135.137,276.69 135.137,246.69 	"/>
	<polygon style="fill:#F72349;" points="283.927,276.68 283.927,336.531 338.927,336.531 338.927,306.531 313.927,306.531 
		313.927,246.69 255.137,246.69 255.137,276.68 	"/>
	<polygon style="fill:#F72349;" points="318.927,124.492 318.927,49.744 288.927,49.744 288.927,94.492 255.137,94.492 
		255.137,124.492 	"/>
	<path style="fill:#AA3E51;" d="M225.137,94.492v30h-30v62.198h30v30h-30V321.67h19.678l0.321-0.358l40-44.632V170.591h-30v-30h30
		V68.883c6.626-4.496,10.98-12.09,10.98-20.7c0-13.807-11.193-25-25-25c-0.68,0-1.352,0.035-2.018,0.088L224.202,0h-29.065v94.492
		H225.137z"/>
	<rect x="135.137" y="140.591" style="fill:#05232E;" width="30" height="30"/>
	<rect x="165.137" y="246.69" style="fill:#05232E;" width="30" height="30"/>
	<rect x="225.137" y="140.591" style="fill:#05232E;" width="30" height="30"/>
	<rect x="195.137" y="186.69" style="fill:#05232E;" width="30" height="30"/>
	<rect x="195.137" y="94.492" style="fill:#05232E;" width="30" height="30"/>
</g>
<g>
</g>
<g>
</g>
<g>
</g>
<g>
</g>
<g>
</g>
<g>
</g>
<g>
</g>
<g>
</g>
<g>
</g>
<g>
</g>
<g>
</g>
<g>
</g>
<g>
</g>
<g>
</g>
<g>
</g>
</svg>
