<?xml version="1.0" encoding="iso-8859-1"?>
<!-- Generator: Adobe Illustrator 19.0.0, SVG Export Plug-In . SVG Version: 6.00 Build 0)  -->
<svg version="1.1" id="Capa_1" xmlns="http://www.w3.org/2000/svg" xmlns:xlink="http://www.w3.org/1999/xlink" x="0px" y="0px"
	 viewBox="0 0 460 460" style="enable-background:new 0 0 460 460;" xml:space="preserve">
<g>
	<path style="fill:#325763;" d="M358.403,373.509V460h35v-86.491c-5.368,2.314-11.283,3.602-17.5,3.602
		S363.772,375.823,358.403,373.509z"/>
	<path style="fill:#FAE8AC;" d="M344.295,328.395v4.465c0,8.34-2.31,16.14-6.322,22.798c4.753,7.89,11.897,14.172,20.43,17.851
		c5.368,2.314,11.283,3.602,17.5,3.602s12.132-1.288,17.5-3.602c15.734-6.783,26.751-22.427,26.751-40.649V227.833
		C420.155,275.215,387.778,315.355,344.295,328.395z"/>
	<path style="fill:#325763;" d="M56.751,373.509V460h35v-86.491c-5.368,2.314-11.283,3.602-17.5,3.602
		C68.034,377.111,62.119,375.823,56.751,373.509z"/>
	<path style="fill:#05232E;" d="M132.611,373.509V460h35v-86.491c-5.368,2.314-11.283,3.602-17.5,3.602
		C143.893,377.111,137.979,375.823,132.611,373.509z"/>
	<path style="fill:#F6D76F;" d="M112.181,355.658c4.753,7.89,11.897,14.172,20.43,17.851c5.368,2.314,11.283,3.602,17.5,3.602
		c6.217,0,12.132-1.288,17.5-3.602c15.734-6.783,26.751-22.427,26.751-40.649h-75.859
		C118.503,341.2,116.192,348.999,112.181,355.658z"/>
	<path style="fill:#05232E;" d="M282.544,373.509V460h35v-86.491c-5.368,2.314-11.283,3.602-17.5,3.602
		C293.827,377.111,287.912,375.823,282.544,373.509z"/>
	<path style="fill:#F6D76F;" d="M369.582,94.844V57.487h-30V32.656c-18.722,2.323-33.216,18.277-33.216,37.628v28.588
		c0,16.082-14.337,29.167-30.42,29.167h-20.153v204.82c0,18.222,11.017,33.866,26.751,40.649c5.368,2.314,11.283,3.602,17.5,3.602
		c6.217,0,12.132-1.288,17.5-3.602c8.533-3.679,15.677-9.961,20.43-17.851c4.011-6.659,6.322-14.458,6.322-22.798v-4.465
		c43.483-13.039,75.859-53.18,75.859-100.562V87.495c-5.482,4.58-12.527,7.349-20.229,7.349
		C390.912,94.844,369.582,94.844,369.582,94.844z M370,188.04h-30v-30h30V188.04z"/>
	<path style="fill:#FAE8AC;" d="M255.793,128.04h-59.406l-77.882,0.013C69.624,128.044,30,167.669,30,216.547
		c-16.499,0-30,13.501-30,30v38.808h30v47.505c0,18.222,11.017,33.866,26.751,40.649c5.368,2.314,11.283,3.602,17.5,3.602
		c6.217,0,12.132-1.288,17.5-3.602c8.533-3.678,15.677-9.961,20.43-17.851c4.011-6.659,6.322-14.458,6.322-22.798h137.29V128.04z
		 M78.503,257.487v-30h30v30H78.503z M148.503,297.487h-30v-30h30V297.487z M225.793,188.04h-30v-30h30V188.04z"/>
	<rect x="78.503" y="227.487" style="fill:#FFFFFF;" width="30" height="30"/>
	<rect x="118.503" y="267.487" style="fill:#FFFFFF;" width="30" height="30"/>
	<rect x="195.793" y="158.04" style="fill:#FFFFFF;" width="30" height="30"/>
	<rect x="340" y="158.04" style="fill:#FAE8AC;" width="30" height="30"/>
	<path style="fill:#05232E;" d="M369.582,32.354V30c0-16.499-13.501-30-30-30v57.487h30v37.357c0,0,21.33,0,30.344,0
		c7.702,0,14.747-2.77,20.229-7.349c2.917-2.437,5.399-5.378,7.285-8.707L460,70.284v-37.93H369.582z"/>
</g>
<g>
</g>
<g>
</g>
<g>
</g>
<g>
</g>
<g>
</g>
<g>
</g>
<g>
</g>
<g>
</g>
<g>
</g>
<g>
</g>
<g>
</g>
<g>
</g>
<g>
</g>
<g>
</g>
<g>
</g>
</svg>
