<?xml version="1.0" encoding="iso-8859-1"?>
<!-- Generator: Adobe Illustrator 19.0.0, SVG Export Plug-In . SVG Version: 6.00 Build 0)  -->
<svg version="1.1" id="Capa_1" xmlns="http://www.w3.org/2000/svg" xmlns:xlink="http://www.w3.org/1999/xlink" x="0px" y="0px"
	 viewBox="0 0 460 460" style="enable-background:new 0 0 460 460;" xml:space="preserve">
<g>
	<path style="fill:#8F5543;" d="M430,142.5c0-11.046-8.954-20-20-20s-20,8.954-20,20v15.135l40,31.747V142.5z"/>
	<path style="fill:#FBB071;" d="M30,202.5c-16.568,0-30,13.432-30,30v120c0,16.568,13.432,30,30,30h170c16.569,0,30-13.432,30-30H30
		v-120h50c0-10.264,1-20.294,2.903-30H30z"/>
	<rect x="310" y="232.5" style="fill:#8F5543;" width="30" height="90"/>
	<path style="fill:#C97E67;" d="M444.835,201.156L380,149.698V172.5h-40v-30c0-7.192,3.809-13.479,9.507-17.003l-18.231-14.47
		C304.832,90.041,271.382,77.5,235,77.5c-12.167,0-24.007,1.402-35.366,4.053C206.305,97.202,210,114.419,210,132.5
		c0,40.211-18.26,76.154-46.936,100H250v90h30v-90h150v40h30v-40C460,219.796,454.07,208.483,444.835,201.156z"/>
	<path style="fill:#8F5543;" d="M210,132.5c0-18.081-3.695-35.298-10.365-50.943C140.654,95.324,94.619,142.761,82.903,202.5
		C81,212.206,80,222.236,80,232.5H50v90h30v-60c31.586,0,60.538-11.269,83.064-30C191.74,208.654,210,172.711,210,132.5z"/>
	<path style="fill:#FBB071;" d="M340,142.5v30h40v-30c0-11.046-8.954-20-20-20c-3.854,0-7.44,1.108-10.493,2.997
		C343.809,129.021,340,135.308,340,142.5z"/>
</g>
<g>
</g>
<g>
</g>
<g>
</g>
<g>
</g>
<g>
</g>
<g>
</g>
<g>
</g>
<g>
</g>
<g>
</g>
<g>
</g>
<g>
</g>
<g>
</g>
<g>
</g>
<g>
</g>
<g>
</g>
</svg>
