<?xml version="1.0" encoding="iso-8859-1"?>
<!-- Generator: Adobe Illustrator 19.0.0, SVG Export Plug-In . SVG Version: 6.00 Build 0)  -->
<svg version="1.1" id="Capa_1" xmlns="http://www.w3.org/2000/svg" xmlns:xlink="http://www.w3.org/1999/xlink" x="0px" y="0px"
	 viewBox="0 0 460 460" style="enable-background:new 0 0 460 460;" xml:space="preserve">
<g>
	<path style="fill:#FBB071;" d="M430,297.275h-60v-80h-30v80H103.905c-5.267,0.483-10.568,0.477-15.837,0H60c-33,0-60,27-60,60
		v30.08c0,0,0.027,0,0.079,0H0.005v-30H430V297.275z"/>
	<rect x="400" y="217.275" style="fill:#FF835D;" width="30" height="80"/>
	<rect x="430" y="297.275" style="fill:#FF835D;" width="30" height="31"/>
	<rect x="215.005" y="357.355" style="fill:#FB5858;" width="215" height="30"/>
	<rect x="0.005" y="357.355" style="fill:#FF835D;" width="215" height="30"/>
	<path style="fill:#F72349;" d="M103.905,155.385c-9.46,2.48-18.41,7.431-25.83,14.851c-17.84,17.83-17.84,46.75,0,64.59
		c7.13,7.13,16.49,10.69,25.83,10.69V155.385z"/>
	<path style="fill:#FB5858;" d="M103.905,297.275v-51.76c-9.34,0-18.7-3.561-25.83-10.69c-17.84-17.84-17.84-46.76,0-64.59
		c7.42-7.42,16.37-12.37,25.83-14.851v-80.05c-26.11,5.19-51.02,17.9-71.25,38.13c-43.54,43.54-43.54,114.141,0,157.69
		c15.468,15.46,35.201,24.292,55.413,26.12C93.337,297.752,98.638,297.759,103.905,297.275z"/>
	<path style="fill:#F72349;" d="M158.805,170.235c26.615,26.604,27.793,69.002,3.577,97.04h115.713
		c9.618-54.15-6.489-111.971-48.329-153.811c-34.2-34.199-81.74-46.91-125.86-38.13v80.05
		C122.885,150.405,143.935,155.355,158.805,170.235z"/>
	<path style="fill:#AA3E51;" d="M129.745,193.485c-6.99-6.99-17.3-8.63-25.84-4.92v56.95c9.36,0,18.7-3.561,25.84-10.69
		C141.155,223.405,141.155,204.896,129.745,193.485z"/>
	<path style="fill:#AA3E51;" d="M158.805,271.155c-15.34,15.34-34.87,24.3-54.9,26.12h197.877v-30H162.382
		C161.239,268.598,160.06,269.899,158.805,271.155z"/>
	<path style="fill:#FF835D;" d="M162.382,267.275c24.217-28.038,23.038-70.436-3.577-97.04c-14.87-14.88-35.92-19.83-54.9-14.851
		v33.181c8.54-3.71,18.85-2.07,25.84,4.92c11.41,11.41,11.41,29.92,0,41.34c-7.14,7.13-16.48,10.69-25.84,10.69v51.76
		c20.03-1.82,39.56-10.78,54.9-26.12C160.06,269.899,161.239,268.598,162.382,267.275z"/>
</g>
<g>
</g>
<g>
</g>
<g>
</g>
<g>
</g>
<g>
</g>
<g>
</g>
<g>
</g>
<g>
</g>
<g>
</g>
<g>
</g>
<g>
</g>
<g>
</g>
<g>
</g>
<g>
</g>
<g>
</g>
</svg>
