<?xml version="1.0" encoding="iso-8859-1"?>
<!-- Generator: Adobe Illustrator 19.0.0, SVG Export Plug-In . SVG Version: 6.00 Build 0)  -->
<svg version="1.1" id="Capa_1" xmlns="http://www.w3.org/2000/svg" xmlns:xlink="http://www.w3.org/1999/xlink" x="0px" y="0px"
	 viewBox="0 0 460 460" style="enable-background:new 0 0 460 460;" xml:space="preserve">
<g>
	<path style="fill:#F72349;" d="M115,360c0-5.108,0.385-10.126,1.124-15.028C115.75,344.985,115.377,345,115,345
		c-16.542,0-30-13.458-30-30V115H0v200c0,63.513,51.487,115,115,115c6.825,0,13.51-0.599,20.009-1.739
		c0-4.839,0.001-8.261,0.002-8.261C122.452,403.286,115,382.517,115,360z"/>
	<path style="fill:#FBB071;" d="M85,315c0,16.542,13.458,30,30,30c0.377,0,0.75-0.015,1.124-0.028
		c1.603-10.632,4.881-20.714,9.555-29.972H115V115H85V315z"/>
	<path style="fill:#FF835D;" d="M115,115C115,51.493,63.507,0,0,0v115H115z"/>
	<path style="fill:#FB5858;" d="M405,90c-22.091,0-40,17.909-40,40v10h40V90z"/>
	<path style="fill:#FF835D;" d="M454.402,175.493c0.093-0.199,0.172-0.406,0.262-0.606c-0.1,0.222-0.21,0.438-0.312,0.658
		C454.378,175.518,454.402,175.493,454.402,175.493z"/>
	<path style="fill:#FF835D;" d="M460,140H345V90c-22.091,0-40,17.909-40,40v70l-90,60c55.229,0,100,44.771,100,100
		c0,5.001-0.387,9.909-1.096,14.713c48.503-41.441,79.846-102.539,81.042-170.583c0.288-16.386,13.662-29.472,29.984-29.472
		c0.18,0,0.358,0.001,0.538,0.004c7.031,0.124,22.369,0.056,29.285,0.017C458.121,167.151,460,158.802,460,150V140z"/>
	<path style="fill:#FBB071;" d="M425.469,174.663c-0.18-0.003-0.358-0.004-0.538-0.004c-16.322,0-29.696,13.086-29.984,29.472
		c-1.197,68.043-32.539,129.142-81.042,170.583c-2.482,16.822-9.134,32.286-18.9,45.287h8.558
		c71.727-45.269,119.783-124.63,121.378-215.342c13.004-5.882,23.409-16.25,29.411-29.114c0.103-0.22,0.212-0.436,0.312-0.658
		c0.031-0.07,0.067-0.137,0.098-0.207C447.837,174.719,432.5,174.786,425.469,174.663z"/>
	<path style="fill:#FB5858;" d="M313.904,374.713C314.613,369.909,315,365.001,315,360c0-55.229-44.771-100-100-100
		c-39.041,0-72.852,22.375-89.321,55c-4.673,9.258-7.952,19.339-9.555,29.972C115.385,349.874,115,354.892,115,360
		c0,22.517,7.452,43.286,20.011,60c-0.001,0-0.001,3.422-0.002,8.261c-0.001,11.712-0.001,31.739-0.001,31.739H345
		c0-22.091-17.909-40-40-40h-9.996C304.77,406.999,311.422,391.535,313.904,374.713z M215,430h-30v-30h30V430z M145,360h30v30h-30
		V360z"/>
	<rect x="145" y="360" style="fill:#FF835D;" width="30" height="30"/>
	<rect x="185" y="400" style="fill:#FF835D;" width="30" height="30"/>
</g>
<g>
</g>
<g>
</g>
<g>
</g>
<g>
</g>
<g>
</g>
<g>
</g>
<g>
</g>
<g>
</g>
<g>
</g>
<g>
</g>
<g>
</g>
<g>
</g>
<g>
</g>
<g>
</g>
<g>
</g>
</svg>
