<?xml version="1.0" encoding="iso-8859-1"?>
<!-- Generator: Adobe Illustrator 19.0.0, SVG Export Plug-In . SVG Version: 6.00 Build 0)  -->
<svg version="1.1" id="Capa_1" xmlns="http://www.w3.org/2000/svg" xmlns:xlink="http://www.w3.org/1999/xlink" x="0px" y="0px"
	 viewBox="0 0 460 460" style="enable-background:new 0 0 460 460;" xml:space="preserve">
<g>
	<path style="fill:#FAE8AC;" d="M125.921,15.417L110.699,4.614c-11.26-7.991-26.866-5.341-34.856,5.919
		c-7.991,11.26-5.341,26.865,5.919,34.856L97.193,56.34C102.119,39.757,112.344,25.458,125.921,15.417z"/>
	<path style="fill:#F6D76F;" d="M248.282,56.34l15.431-10.951c11.26-7.991,13.91-23.596,5.919-34.856
		c-7.991-11.26-23.596-13.91-34.856-5.919l-15.222,10.802C233.13,25.458,243.356,39.757,248.282,56.34z"/>
	<path style="fill:#C97E67;" d="M57.491,460h30V319.048c-18.637-20.474-30-47.687-30-77.555V460z"/>
	<rect x="342.509" y="0" style="fill:#F6D76F;" width="60" height="460"/>
	<polygon style="fill:#FAE8AC;" points="282.509,0 282.509,133.134 312.509,133.134 312.509,163.134 282.509,163.134 
		282.509,249.937 312.509,249.937 312.509,279.937 282.509,279.937 282.509,309.937 312.509,309.937 312.509,339.937 
		282.509,339.937 282.509,460 342.509,460 342.509,0 	"/>
	<path style="fill:#FBB071;" d="M133.331,39.407c21.729,0,39.407,17.678,39.407,39.408V0c-17.534,0-33.725,5.733-46.817,15.417
		c-13.576,10.042-23.801,24.341-28.728,40.924c-1.045,3.519-1.86,7.135-2.409,10.84c-0.465,3.144-0.727,6.352-0.81,9.605
		C95.034,55.995,112.281,39.407,133.331,39.407z"/>
	<path style="fill:#FBB071;" d="M172.737,78.815c0,21.729-17.678,39.407-39.407,39.407c-21.05,0-38.297-16.588-39.356-37.377
		c1.08,42.587,35.916,76.785,78.763,76.785V78.815z"/>
	<path style="fill:#FAE8AC;" d="M133.331,118.222c21.729,0,39.407-17.678,39.407-39.407c0-21.73-17.678-39.408-39.407-39.408
		c-21.05,0-38.297,16.588-39.356,37.379c-0.034,0.672-0.052,1.349-0.052,2.029c0,0.68,0.018,1.357,0.052,2.029
		C95.034,101.634,112.281,118.222,133.331,118.222z M133.33,63.814c8.271,0,15,6.729,15,15c0,8.271-6.729,15-15,15
		c-8.271,0-15-6.729-15-15C118.33,70.543,125.059,63.814,133.33,63.814z"/>
	<path style="fill:#FF835D;" d="M212.146,118.222c-21.73,0-39.408-17.678-39.408-39.407v78.814
		c42.847,0,77.683-34.196,78.763-76.783C250.44,101.635,233.194,118.222,212.146,118.222z"/>
	<path style="fill:#FF835D;" d="M172.737,78.815c0-21.73,17.678-39.408,39.408-39.408c21.048,0,38.295,16.587,39.355,37.377
		c-0.18-7.087-1.287-13.94-3.219-20.444c-4.927-16.583-15.152-30.882-28.728-40.924C206.463,5.733,190.271,0,172.737,0V78.815z"/>
	<path style="fill:#FBB071;" d="M196.067,200.291c-30.643,0-55.485,24.841-55.485,55.485v75.479c0,7.882,1.654,15.375,4.617,22.165
		c8.557,19.608,28.106,33.32,50.868,33.32V200.291z"/>
	<path style="fill:#8F5543;" d="M312.509,309.937h-30v-30h30v-30h-60.957V78.834c0,0.674-0.017,1.345-0.051,2.012
		c-1.081,42.587-35.916,76.783-78.763,76.783c-42.847,0-77.683-34.197-78.763-76.785c-0.034-0.672-0.052-1.349-0.052-2.029
		c0-0.681,0.017-1.357,0.052-2.029c0.082-3.253,0.345-6.461,0.81-9.605c-0.008-0.004-26.786,113.124-35.065,150.979
		c-1.641,7.505-2.229,15.351-2.229,23.333c0,29.868,11.363,57.081,30,77.555c15.156,16.65,35.127,28.834,57.709,34.372
		c-2.963-6.791-4.617-14.283-4.617-22.165v-75.479c0-30.644,24.841-55.485,55.485-55.485s55.485,24.841,55.485,55.485V386.74h30.957
		v-46.803h30V309.937z"/>
	<polygon style="fill:#FBB071;" points="282.509,209.937 282.509,163.134 312.509,163.134 312.509,133.134 251.552,133.134 
		251.552,209.937 	"/>
	<path style="fill:#FF835D;" d="M251.552,255.775c0-30.644-24.841-55.485-55.485-55.485V386.74
		c0,15.322,12.421,27.742,27.742,27.742s27.742-12.42,27.742-27.742V255.775z"/>
	<path style="fill:#F6D76F;" d="M212.146,39.407c-21.73,0-39.408,17.678-39.408,39.408c0,21.729,17.678,39.407,39.408,39.407
		c21.048,0,38.295-16.587,39.355-37.376c0.034-0.667,0.051-1.337,0.051-2.012c0-0.7-0.017-1.377-0.051-2.05
		C250.44,55.994,233.194,39.407,212.146,39.407z M212.145,93.814c-8.271,0-15-6.729-15-15c0-8.271,6.729-15,15-15
		c8.271,0,15,6.729,15,15C227.145,87.085,220.416,93.814,212.145,93.814z"/>
	<path style="fill:#325763;" d="M133.33,93.814c8.271,0,15-6.729,15-15c0-8.271-6.729-15-15-15c-8.271,0-15,6.729-15,15
		C118.33,87.085,125.059,93.814,133.33,93.814z"/>
	<path style="fill:#05232E;" d="M227.145,78.814c0-8.271-6.729-15-15-15c-8.271,0-15,6.729-15,15c0,8.271,6.729,15,15,15
		C220.416,93.814,227.145,87.085,227.145,78.814z"/>
</g>
<g>
</g>
<g>
</g>
<g>
</g>
<g>
</g>
<g>
</g>
<g>
</g>
<g>
</g>
<g>
</g>
<g>
</g>
<g>
</g>
<g>
</g>
<g>
</g>
<g>
</g>
<g>
</g>
<g>
</g>
</svg>
