<?xml version="1.0" encoding="iso-8859-1"?>
<!-- Generator: Adobe Illustrator 19.0.0, SVG Export Plug-In . SVG Version: 6.00 Build 0)  -->
<svg version="1.1" id="Capa_1" xmlns="http://www.w3.org/2000/svg" xmlns:xlink="http://www.w3.org/1999/xlink" x="0px" y="0px"
	 viewBox="0 0 460 460" style="enable-background:new 0 0 460 460;" xml:space="preserve">
<g>
	<path style="fill:#FBB071;" d="M410,211.679c0-0.011-113.05-0.011-113.05-0.011c0,21.381,5.936,41.372,16.246,58.421
		c6.931,11.46,15.843,21.584,26.256,29.91c7.056,5.641,14.797,10.461,23.088,14.299c21.761-18.514,37.55-43.809,44.104-72.619H430
		c16.57,0,30-13.44,30-30H410z"/>
	<path style="fill:#F6D76F;" d="M275.306,76.975H81.911v111.048l113.017-84.442C217.362,86.868,245.18,76.975,275.306,76.975z"/>
	<path style="fill:#FBB071;" d="M194.928,319.767L81.911,235.315v61.17c0,27.55,22.327,49.887,49.877,49.887h133.041l0.38-0.38
		C238.977,344.047,214.833,334.594,194.928,319.767z"/>
	<path style="fill:#F6D76F;" d="M339.452,299.999c-0.927,0.975-1.946,1.857-3.052,2.63c3.828,8.326,5.534,17.388,5.113,26.37
		c7.484-4.233,14.525-9.158,21.031-14.694C354.249,310.46,346.508,305.64,339.452,299.999z"/>
	<path style="fill:#F6D76F;" d="M265.209,345.992l45.619-45.619c-3.619-3.619-5.858-8.619-5.858-14.143
		c0-6.638,3.248-12.504,8.226-16.142c-10.311-17.049-16.246-37.04-16.246-58.42H81.911v23.646l113.017,84.451
		C214.833,334.594,238.977,344.047,265.209,345.992z"/>
	<path style="fill:#FAE8AC;" d="M296.95,211.669c0-45.48,26.86-84.69,65.58-102.631c-23.499-19.999-53.953-32.063-87.224-32.063
		c-30.126,0-57.944,9.894-80.378,26.605L81.911,188.023v23.646H296.95z M236.95,181.668h30v30h-30V181.668z M196.95,141.668h30v30
		h-30V141.668z"/>
	<path style="fill:#FBB071;" d="M0,211.669c0,26.774,12.211,50.52,30.946,66.794l50.965-43.147v-23.646H0z"/>
	<path style="fill:#F6D76F;" d="M81.911,188.023l-50.965-43.148C12.211,161.158,0,184.903,0,211.669h81.911V188.023z"/>
	<rect x="196.95" y="141.668" style="fill:#FFFFFF;" width="30" height="30"/>
	<rect x="236.95" y="181.668" style="fill:#FFFFFF;" width="30" height="30"/>
	<path style="fill:#FAE8AC;" d="M336.401,302.629c-3.241,2.265-7.177,3.602-11.431,3.602c-5.523,0-10.523-2.238-14.142-5.857
		l-45.999,45.999l-20.046,20.046c22.143,22.143,58.044,22.144,80.187,0c10.391-10.392,15.905-23.813,16.544-37.419
		C341.935,320.017,340.229,310.955,336.401,302.629z"/>
	<path style="fill:#F6D76F;" d="M296.95,211.668H410c0,0.011,50,0.011,50,0.011c0-16.57-13.43-30-30-30h-23.353
		c-6.555-28.82-22.353-54.125-44.107-72.632C323.81,126.979,296.95,166.189,296.95,211.668z"/>
	<path style="fill:#FF835D;" d="M304.97,286.231c0,5.523,2.239,10.523,5.858,14.143c3.619,3.619,8.619,5.857,14.142,5.857
		c4.254,0,8.189-1.337,11.431-3.602c1.106-0.772,2.125-1.655,3.052-2.63c-10.414-8.326-19.325-18.45-26.256-29.91
		C308.218,273.727,304.97,279.593,304.97,286.231z"/>
</g>
<g>
</g>
<g>
</g>
<g>
</g>
<g>
</g>
<g>
</g>
<g>
</g>
<g>
</g>
<g>
</g>
<g>
</g>
<g>
</g>
<g>
</g>
<g>
</g>
<g>
</g>
<g>
</g>
<g>
</g>
</svg>
