<?xml version="1.0" encoding="iso-8859-1"?>
<!-- Generator: Adobe Illustrator 19.0.0, SVG Export Plug-In . SVG Version: 6.00 Build 0)  -->
<svg version="1.1" id="Capa_1" xmlns="http://www.w3.org/2000/svg" xmlns:xlink="http://www.w3.org/1999/xlink" x="0px" y="0px"
	 viewBox="0 0 460 460" style="enable-background:new 0 0 460 460;" xml:space="preserve">
<g>
	<path style="fill:#05232E;" d="M200,325c-49.706,0-90-40.294-90-90H40c-22.091,0-40,17.909-40,40h86.838
		c14.873,42.074,52.537,73.378,98.162,79.068V415h60c0-16.568-13.431-30-30-30v-30.932c-4.914,0.613-9.92,0.932-15,0.932V325z"/>
	<path style="fill:#325763;" d="M290,235c0,49.706-40.294,90-90,90v30c5.08,0,10.086-0.319,15-0.932
		c59.194-7.382,105-57.874,105-119.068c-10.613,0-20.733-2.085-30-5.837V235z"/>
	<path style="fill:#325763;" d="M200,325v-90h-90C110,284.706,150.294,325,200,325z"/>
	<path style="fill:#05232E;" d="M290,235v-5.837c-29.313-11.87-50-40.592-50-74.163V55.733c-23.917,13.81-40,39.66-40,69.267v200
		C249.706,325,290,284.706,290,235z"/>
	<path style="fill:#FAE8AC;" d="M280,45c-14.577,0-28.23,3.918-40,10.729V155c0,33.57,20.687,62.292,50,74.163
		c9.267,3.752,19.387,5.837,30,5.837V125L280,45z"/>
	<polygon style="fill:#FF835D;" points="380,95 380,45 280,45 305,95 	"/>
	<polygon style="fill:#FB5858;" points="305,95 320,125 380,125 380,95 	"/>
	<path style="fill:#F72349;" d="M380,45v80h80C460,80.817,424.183,45,380,45z"/>
</g>
<g>
</g>
<g>
</g>
<g>
</g>
<g>
</g>
<g>
</g>
<g>
</g>
<g>
</g>
<g>
</g>
<g>
</g>
<g>
</g>
<g>
</g>
<g>
</g>
<g>
</g>
<g>
</g>
<g>
</g>
</svg>
