<?xml version="1.0" encoding="iso-8859-1"?>
<!-- Generator: Adobe Illustrator 19.0.0, SVG Export Plug-In . SVG Version: 6.00 Build 0)  -->
<svg version="1.1" id="Capa_1" xmlns="http://www.w3.org/2000/svg" xmlns:xlink="http://www.w3.org/1999/xlink" x="0px" y="0px"
	 viewBox="0 0 460 460" style="enable-background:new 0 0 460 460;" xml:space="preserve">
<g>
	<path style="fill:#C97E67;" d="M0,381.211h105.652c22.092,0,40-17.909,40-40h-110C13.561,341.211,0,359.119,0,381.211z"/>
	<rect x="410" y="118.789" style="fill:#FAE8AC;" width="30" height="109.422"/>
	<path style="fill:#C97E67;" d="M289.196,291.211c26.305,0,46.849,0,46.849,0v49.835C377.036,338.521,410,304.234,410,262.661
		V118.789h30c0-22.091-17.909-40-40-40l-30.79,0.002c-22,0-50.886,14.335-64.191,31.856l-63.649,83.814v146.69
		C241.403,313.678,262.911,291.211,289.196,291.211z M350,232.211h30v30h-30V232.211z M310,192.211h30v30h-30V192.211z"/>
	<path style="fill:#FBB071;" d="M420,341.211h-10v-78.55c0,41.573-32.964,75.86-73.956,78.385v0.165h10.978
		c22.092,0,40,17.909,40,40H460C460,359.12,442.092,341.211,420,341.211z"/>
	<path style="fill:#FBB071;" d="M191.56,194.461c-69.9,0-126.56,56.66-126.56,126.56v20l176.37,0.13v-146.69
		C221.17,194.461,191.56,194.461,191.56,194.461z M175,311.151h-30v-30h30V311.151z"/>
	<rect x="310" y="192.211" style="fill:#FBB071;" width="30" height="30"/>
	<rect x="350" y="232.211" style="fill:#FBB071;" width="30" height="30"/>
	<rect x="145" y="281.151" style="fill:#8F5543;" width="30" height="30"/>
	<path style="fill:#8F5543;" d="M347.022,341.211h-10.978v-50c0,0-20.544,0-46.849,0c-26.285,0-47.792,22.467-47.824,49.94
		c0,0.02-0.001,0.04-0.001,0.06c0,22.092,13.56,40,35.652,40h110C387.022,359.12,369.114,341.211,347.022,341.211z"/>
</g>
<g>
</g>
<g>
</g>
<g>
</g>
<g>
</g>
<g>
</g>
<g>
</g>
<g>
</g>
<g>
</g>
<g>
</g>
<g>
</g>
<g>
</g>
<g>
</g>
<g>
</g>
<g>
</g>
<g>
</g>
</svg>
