<?xml version="1.0" encoding="iso-8859-1"?>
<!-- Generator: Adobe Illustrator 19.0.0, SVG Export Plug-In . SVG Version: 6.00 Build 0)  -->
<svg version="1.1" id="Capa_1" xmlns="http://www.w3.org/2000/svg" xmlns:xlink="http://www.w3.org/1999/xlink" x="0px" y="0px"
	 viewBox="0 0 460 460" style="enable-background:new 0 0 460 460;" xml:space="preserve">
<g>
	<path style="fill:#C97E67;" d="M405.153,315.65c-4.681,3.669-9.799,6.773-15.153,9.27V332c0,22.091,17.654,40,39.746,40v-99
		C428.249,289.086,419.489,304.413,405.153,315.65z"/>
	<path style="fill:#F6D76F;" d="M400,268.087C400,286.739,377.957,302,359.305,302h-0.397v30h0.396
		c10.272,0,20.887-2.507,30.695-7.081c5.354-2.497,10.472-5.6,15.153-9.27c14.336-11.237,23.096-26.564,24.592-42.65L430,152h-30
		V268.087z"/>
	<path style="fill:#FAE8AC;" d="M318.908,302h-89.754c-1.916,11.417-7.049,21.739-14.445,30h104.198V302z"/>
	<path style="fill:#C97E67;" d="M415,88c-7.177,0-13.169,5.044-14.644,11.779l29.594,2.217C429.431,94.182,422.945,88,415,88z"/>
	<path style="fill:#C97E67;" d="M229.166,302v-70H170c-13.217,0-25.432,4.276-35.346,11.517L45.34,308.75l8.641,11.835L68.93,341.06
		L110,311.075V372h100c0-12.15-9.85-22-22-22h-2.614c11.491-3.041,21.627-9.403,29.324-18
		C222.106,323.739,227.238,313.417,229.166,302z"/>
	<path style="fill:#8F5543;" d="M53.981,320.585L45.34,308.75L0,341.87c13.03,17.84,38.05,21.74,55.89,8.71l13.04-9.52
		L53.981,320.585z"/>
	<path style="fill:#8F5543;" d="M450,116l-20-14l-0.051-0.004l-29.594-2.217l-0.725-0.054C398.135,93.018,392.158,88,385,88
		c-6.371,0-11.809,3.978-13.983,9.581L318.908,232h-89.742v70h89.743v30c0,22.091,17.908,40,40,40v-70h0.397
		C377.957,302,400,286.739,400,268.087V152h30c0,0,6.75-2.25,15-5s15-10.85,15-18c0-7.15,0-13,0-13H450z"/>
</g>
<g>
</g>
<g>
</g>
<g>
</g>
<g>
</g>
<g>
</g>
<g>
</g>
<g>
</g>
<g>
</g>
<g>
</g>
<g>
</g>
<g>
</g>
<g>
</g>
<g>
</g>
<g>
</g>
<g>
</g>
</svg>
