<?xml version="1.0" encoding="iso-8859-1"?>
<!-- Generator: Adobe Illustrator 19.0.0, SVG Export Plug-In . SVG Version: 6.00 Build 0)  -->
<svg version="1.1" id="Capa_1" xmlns="http://www.w3.org/2000/svg" xmlns:xlink="http://www.w3.org/1999/xlink" x="0px" y="0px"
	 viewBox="0 0 460 460" style="enable-background:new 0 0 460 460;" xml:space="preserve">
<g>
	<path style="fill:#8F5543;" d="M240,282.5c0,33.137,26.863,60,60,60h20c0-11.046-8.954-20-20-20v-38l-60-6V282.5z"/>
	<path style="fill:#C97E67;" d="M80,341.504c47.369,0,88.196-27.983,106.871-68.317L80,262.5V341.504z"/>
	<path style="fill:#8F5543;" d="M103.443,156.06H60.06c-33.134,0-59.994,26.671-60,59.803L0,215.874V282.5c0,33.137,26.863,60,60,60
		V215.985l20,0.037V212.5C80,190.53,88.977,170.555,103.443,156.06z"/>
	<path style="fill:#FBB071;" d="M320,231.573c-27.648-3.201-58.922-6.822-80-9.263v56.19l80.148,8.015
		c-0.088-1.328-0.148-2.664-0.148-4.015V231.573z"/>
	<path style="fill:#F6D76F;" d="M230.26,221.18c-43.71-5.07-75.32-44.97-70.26-88.68c-22.03,0-42.052,9.026-56.557,23.56
		C88.977,170.555,80,190.53,80,212.5v50l160,16v-56.19C236.44,221.9,233.17,221.52,230.26,221.18z"/>
	<path style="fill:#8F5543;" d="M415,117.5c-8.284,0-15,6.716-15,15h30C430,124.216,423.284,117.5,415,117.5z"/>
	<path style="fill:#C97E67;" d="M365,117.5c-8.284,0-15,6.716-15,15h30C380,124.216,373.284,117.5,365,117.5z"/>
	<path style="fill:#8F5543;" d="M440,152.5L380,175v-42.5H240v89.81c21.078,2.44,52.352,6.062,80,9.263V282.5
		c0,1.351,0.061,2.687,0.148,4.015C322.216,317.778,348.214,342.5,380,342.5h20c0-11.046-8.954-20-20-20v-110l61.273-22.978
		C451.573,185.66,460,175.75,460,167.5s0-15,0-15H440z"/>
	<polygon style="fill:#FBB071;" points="440,152.5 430,132.5 380,132.5 380,175 	"/>
	<path style="fill:#C97E67;" d="M230.26,221.18c2.91,0.34,6.18,0.72,9.74,1.13V132.5h-80C154.94,176.21,186.55,216.11,230.26,221.18
		z"/>
</g>
<g>
</g>
<g>
</g>
<g>
</g>
<g>
</g>
<g>
</g>
<g>
</g>
<g>
</g>
<g>
</g>
<g>
</g>
<g>
</g>
<g>
</g>
<g>
</g>
<g>
</g>
<g>
</g>
<g>
</g>
</svg>
