<?xml version="1.0" encoding="iso-8859-1"?>
<!-- Generator: Adobe Illustrator 19.0.0, SVG Export Plug-In . SVG Version: 6.00 Build 0)  -->
<svg version="1.1" id="Capa_1" xmlns="http://www.w3.org/2000/svg" xmlns:xlink="http://www.w3.org/1999/xlink" x="0px" y="0px"
	 viewBox="0 0 460 460" style="enable-background:new 0 0 460 460;" xml:space="preserve">
<g>
	<path style="fill:#FBB071;" d="M110,336.219V425h35v-85c34.51,0,65.612-14.573,87.504-37.894l-55.361-11.655
		C160.987,312.689,137.389,329.17,110,336.219z"/>
	<rect x="110" y="425" style="fill:#05232E;" width="35" height="35"/>
	<path style="fill:#FBB071;" d="M390,40h20V0c-8.884,0-16.862,3.864-22.355,10H390V40z"/>
	<path style="fill:#05232E;" d="M340,40V30c0-7.685,2.893-14.692,7.645-20h-26.186l-85.28,152.286L270,165L340,40z"/>
	<rect x="370" y="10" style="fill:#05232E;" width="20" height="30"/>
	<path style="fill:#FBB071;" d="M335,292.6V425h35V263.046C360.195,274.839,348.353,284.875,335,292.6z"/>
	<path style="fill:#F6D76F;" d="M370,40V0c-8.884,0-16.862,3.864-22.355,10C342.893,15.308,340,22.315,340,30v10l-70,125
		l-33.821-2.714L200,159.382L200,220c0,26.326-8.484,50.666-22.857,70.451l55.361,11.655L270,310v115h35V305.219
		c10.608-2.959,20.671-7.222,30-12.619c13.353-7.725,25.195-17.761,35-29.554c5.892-7.087,11.058-14.8,15.354-23.042
		C385.347,240,335,240,335,240v-30h61.515c2.281-9.629,3.485-19.674,3.485-30h-65v-30h65v-30h-65V90h65l30-5V40H370z"/>
	<rect x="335" y="425" style="fill:#05232E;" width="35" height="35"/>
	<rect x="270" y="425" style="fill:#325763;" width="35" height="35"/>
	<polygon style="fill:#325763;" points="430,40 430,85 460,80 460,40 	"/>
	<path style="fill:#05232E;" d="M85.939,184.494H45c-24.853,0-45,20.147-45,45v95c24.851,0,45-20.149,45-45v-50h35V210
		C80,200.71,82.14,192.067,85.939,184.494z"/>
	<path style="fill:#FAEAB6;" d="M177.143,290.451C191.516,270.666,200,246.326,200,220h-30v-62.963l30,2.345l-60.183-4.705
		l0.183,0.014V220h-30v-59.595c-10.388,5.207-18.811,13.625-24.061,24.089C82.14,192.067,80,200.71,80,210v97.5H45V425h35v-85
		c10.359,0,20.411-1.313,30-3.781C137.389,329.17,160.987,312.689,177.143,290.451z"/>
	<path style="fill:#325763;" d="M110,220h30v-65.309l-0.183-0.014c-10.838-0.847-21.017,1.301-29.807,5.723
		C110,160.405,110,220,110,220z"/>
	<polygon style="fill:#325763;" points="170,220 200,220 200,159.382 170,157.037 	"/>
	<rect x="335" y="90" style="fill:#05232E;" width="65" height="30"/>
	<path style="fill:#05232E;" d="M335,210v30h50.347c4.893-9.387,8.673-19.44,11.166-29.991C396.515,210,335,210,335,210z"/>
	<rect x="335" y="150" style="fill:#05232E;" width="65" height="30"/>
	<rect x="45" y="425" style="fill:#05232E;" width="35" height="35"/>
</g>
<g>
</g>
<g>
</g>
<g>
</g>
<g>
</g>
<g>
</g>
<g>
</g>
<g>
</g>
<g>
</g>
<g>
</g>
<g>
</g>
<g>
</g>
<g>
</g>
<g>
</g>
<g>
</g>
<g>
</g>
</svg>
