<?xml version="1.0" encoding="iso-8859-1"?>
<!-- Generator: Adobe Illustrator 19.0.0, SVG Export Plug-In . SVG Version: 6.00 Build 0)  -->
<svg version="1.1" id="Capa_1" xmlns="http://www.w3.org/2000/svg" xmlns:xlink="http://www.w3.org/1999/xlink" x="0px" y="0px"
	 viewBox="0 0 460 460" style="enable-background:new 0 0 460 460;" xml:space="preserve">
<g>
	<path style="fill:#F6D76F;" d="M331.916,426.627V460h30v-33.373c-4.547,2.16-9.631,3.373-15,3.373S336.463,428.788,331.916,426.627
		z"/>
	<path style="fill:#FBB071;" d="M321.916,325.908V395c0,6.597-1.827,12.765-5,18.032c3.542,5.88,8.763,10.632,15,13.595
		c4.547,2.16,9.631,3.373,15,3.373s10.453-1.212,15-3.373c11.824-5.618,20-17.666,20-31.627V246.37
		C381.916,283.846,356.308,315.595,321.916,325.908z"/>
	<path style="fill:#F6D76F;" d="M98.084,426.627V460h30v-33.373c-4.547,2.16-9.631,3.373-15,3.373S102.631,428.788,98.084,426.627z"
		/>
	<path style="fill:#FAE8AC;" d="M158.084,426.627V460h30v-33.373c-4.547,2.16-9.631,3.373-15,3.373S162.631,428.788,158.084,426.627
		z"/>
	<path style="fill:#F6D76F;" d="M148.084,395c0,6.597-1.827,12.765-5,18.032c3.542,5.88,8.763,10.632,15,13.595
		c4.547,2.16,9.631,3.373,15,3.373s10.453-1.212,15-3.373c11.824-5.618,20-17.666,20-31.627v-65.56h-60V395z"/>
	<path style="fill:#FBB071;" d="M351.916,0c-11,0-20,9-20,20v2.936h20V0z"/>
	<path style="fill:#FF835D;" d="M78.084,257.444c-16.499,0-30,13.501-30,30v38.808h30V257.444z"/>
	<path style="fill:#FBB071;" d="M271.916,426.627V460h30v-33.373c-4.547,2.16-9.631,3.373-15,3.373S276.463,428.788,271.916,426.627
		z"/>
	<path style="fill:#FF835D;" d="M341.916,92.361V42.936h40v-20h-60c-3.507,0-6.871,0.608-10,1.714V0c-11,0-20,9-20,20v144.37
		c0,12.72-11.34,23.07-24.06,23.07h-15.94V395c0,13.961,8.176,26.01,20,31.627c4.547,2.16,9.631,3.373,15,3.373
		s10.453-1.212,15-3.373c6.237-2.963,11.458-7.715,15-13.595c3.173-5.267,5-11.436,5-18.032v-69.092
		c34.392-10.313,60-42.062,60-79.538V86.549c-4.336,3.622-9.908,5.813-16,5.813C358.786,92.361,341.916,92.361,341.916,92.361z"/>
	<path style="fill:#FBB071;" d="M251.916,187.44h-42.23l-61.6,0.01c-38.661-0.006-70.001,31.334-70.001,69.994V395
		c0,13.961,8.176,26.01,20,31.627c4.547,2.16,9.631,3.373,15,3.373s10.453-1.212,15-3.373c6.237-2.963,11.458-7.715,15-13.595
		c3.173-5.267,5-11.436,5-18.032v-65.56h103.832V187.44z M148.084,299.44h-30v-30h30V299.44z M208.084,269.44h-30v-30h30V269.44z"/>
	<rect x="118.084" y="269.44" style="fill:#FF835D;" width="30" height="30"/>
	<rect x="178.084" y="239.44" style="fill:#FF835D;" width="30" height="30"/>
	<path style="fill:#F6D76F;" d="M341.916,42.936v49.426c0,0,16.871,0,24,0c6.092,0,11.664-2.19,16-5.813
		c2.307-1.927,4.27-4.254,5.762-6.886l24.238-6.726v-30H341.916z"/>
</g>
<g>
</g>
<g>
</g>
<g>
</g>
<g>
</g>
<g>
</g>
<g>
</g>
<g>
</g>
<g>
</g>
<g>
</g>
<g>
</g>
<g>
</g>
<g>
</g>
<g>
</g>
<g>
</g>
<g>
</g>
</svg>
