<?xml version="1.0" encoding="iso-8859-1"?>
<!-- Generator: Adobe Illustrator 19.0.0, SVG Export Plug-In . SVG Version: 6.00 Build 0)  -->
<svg version="1.1" id="Capa_1" xmlns="http://www.w3.org/2000/svg" xmlns:xlink="http://www.w3.org/1999/xlink" x="0px" y="0px"
	 viewBox="0 0 460 460" style="enable-background:new 0 0 460 460;" xml:space="preserve">
<g>
	<rect x="68.075" y="302.688" style="fill:#6B8F9C;" width="30" height="30"/>
	<rect x="361.925" y="302.688" style="fill:#325763;" width="30" height="30"/>
	<rect x="430" y="302.688" style="fill:#325763;" width="30" height="30"/>
	<path style="fill:#325763;" d="M150,245.502v-60c0-5.995,0.69-11.834,1.956-17.461c-24.251-16.362-43.095-40.122-53.276-68.054
		C42.38,111.397,0,161.157,0,220.828v81.86h136.15c8.85,67.5,93.85,102.81,93.85,102.81v-79.995
		C186,325.502,150,289.502,150,245.502z"/>
	<path style="fill:#05232E;" d="M361.32,99.988c-10.18,27.932-29.025,51.692-53.276,68.054c1.266,5.627,1.956,11.466,1.956,17.461
		v60c0,44-36,80-80,80v79.995c0,0,85-35.31,93.85-102.81H460v-81.86C460,161.157,417.62,111.397,361.32,99.988z"/>
	<path style="fill:#6B8F9C;" d="M150,245.502c0,44,36,80,80,80s80-36,80-80v-60c0-5.995-0.69-11.834-1.956-17.461
		c-4.038-17.95-14.145-33.663-28.044-44.85v31.312c-0.019,0.334,0,0.665,0,1c0,27.614-22.386,50-50,50s-50-22.386-50-50
		c0-0.335,0.019-0.666,0.025-1c-0.025,0-0.025-31.312-0.025-31.312c-13.899,11.188-24.006,26.9-28.044,44.85
		c-1.266,5.627-1.956,11.466-1.956,17.461V245.502z"/>
	<path style="fill:#05232E;" d="M279.975,154.502c0.025,0,0.025-100,0.025-100c-27.614,0-50,22.386-50,50v1
		C257.279,105.502,279.44,127.352,279.975,154.502z"/>
	<path style="fill:#325763;" d="M180.025,154.502c-0.007,0.334-0.025,0.665-0.025,1c0,27.614,22.386,50,50,50s50-22.386,50-50
		c0-0.335-0.019-0.666-0.025-1c-0.535-27.151-22.696-49-49.975-49v-1c0-27.614-22.386-50-50-50
		C180,54.502,180,154.502,180.025,154.502z M250,155.502c0,11.046-8.954,20-20,20s-20-8.954-20-20s8.954-20,20-20
		S250,144.457,250,155.502z"/>
	<circle style="fill:#6B8F9C;" cx="230" cy="155.502" r="20"/>
	<rect y="302.688" style="fill:#6B8F9C;" width="30" height="30"/>
</g>
<g>
</g>
<g>
</g>
<g>
</g>
<g>
</g>
<g>
</g>
<g>
</g>
<g>
</g>
<g>
</g>
<g>
</g>
<g>
</g>
<g>
</g>
<g>
</g>
<g>
</g>
<g>
</g>
<g>
</g>
</svg>
