<?xml version="1.0" encoding="iso-8859-1"?>
<!-- Generator: Adobe Illustrator 19.0.0, SVG Export Plug-In . SVG Version: 6.00 Build 0)  -->
<svg version="1.1" id="Capa_1" xmlns="http://www.w3.org/2000/svg" xmlns:xlink="http://www.w3.org/1999/xlink" x="0px" y="0px"
	 viewBox="0 0 460 460" style="enable-background:new 0 0 460 460;" xml:space="preserve">
<g>
	<polygon style="fill:#578C76;" points="357,320.185 357,370 387,370 387,290.185 314.216,290.185 314.216,320.185 	"/>
	<polygon style="fill:#578C76;" points="314.216,221.521 357,221.521 357,270.185 387,270.185 387,191.521 314.216,191.521 	"/>
	<polygon style="fill:#578C76;" points="387,171.521 370.568,66.223 340.568,68.549 351.955,141.521 314.22,141.521 314.22,171.521 
			"/>
	<rect x="185" style="fill:#B9F291;" width="30" height="67.39"/>
	<rect x="245" style="fill:#84D993;" width="30" height="67.39"/>
	<polygon style="fill:#50BF94;" points="73,290.185 73,370 103,370 103,320.185 145.784,320.185 145.784,290.185 	"/>
	<polygon style="fill:#50BF94;" points="73,191.521 73,270.185 103,270.185 103,221.521 145.784,221.521 145.784,191.521 	"/>
	<polygon style="fill:#50BF94;" points="108.045,141.521 119.432,68.549 89.432,66.223 73,171.521 145.78,171.521 145.78,141.521 	
		"/>
	<path style="fill:#50BF94;" d="M314.216,186.662c-0.077,20.204-16.484,36.568-36.706,36.568h-22.32
		c-0.729,0-1.452,0.029-2.166,0.087c-7.637,0.616-14.349,4.47-18.805,10.172c-0.135,0.172-0.28,0.335-0.41,0.511
		c-0.017,0.023-0.031,0.048-0.048,0.07c-1.594,2.161-2.872,4.569-3.76,7.16l0,186.614c0,0,84.216-30.108,84.216-105.188V186.662z"/>
	<path style="fill:#84D993;" d="M226.46,234.392c-0.092-0.129-0.174-0.266-0.269-0.393c-0.046-0.062-0.098-0.119-0.145-0.181
		c-4.452-5.887-11.285-9.873-19.07-10.501c-0.714-0.058-1.437-0.087-2.166-0.087h-22.32c-20.223,0-36.63-16.365-36.706-36.57
		v135.996c0,75.08,84.216,105.188,84.216,105.188V241.229C229.155,238.765,227.947,236.471,226.46,234.392z"/>
	<polygon style="fill:#B9F291;" points="119.432,0 89.432,0 89.432,66.223 119.432,68.549 	"/>
	<rect x="73" y="370" style="fill:#84D993;" width="30" height="90"/>
	<polygon style="fill:#50BF94;" points="370.568,0 340.568,0 340.568,68.549 370.568,66.223 	"/>
	<rect x="357" y="370" style="fill:#50BF94;" width="30" height="90"/>
	<rect x="175.78" y="67.39" style="fill:#578C76;" width="108.44" height="44.62"/>
	<path style="fill:#84D993;" d="M230,241.23c0.888-2.591,2.166-4.999,3.76-7.16c0.017-0.022,0.031-0.047,0.048-0.07
		c0.13-0.176,0.276-0.339,0.41-0.511c4.456-5.704,11.169-9.557,18.805-10.172c0.714-0.058,1.437-0.087,2.166-0.087h22.32
		c20.222,0,36.629-16.364,36.706-36.568c0-0.048,0.004-0.095,0.004-0.143v-74.51H230V241.23z"/>
	<path style="fill:#B9F291;" d="M182.49,223.23h22.32c0.729,0,1.452,0.029,2.166,0.087c7.785,0.627,14.618,4.613,19.07,10.501
		c0.047,0.062,0.099,0.119,0.145,0.181c0.094,0.127,0.177,0.264,0.269,0.393c1.487,2.079,2.695,4.373,3.54,6.838l0-129.22h-84.22
		v74.51c0,0.047,0.003,0.094,0.004,0.141C145.86,206.865,162.267,223.23,182.49,223.23z"/>
</g>
<g>
</g>
<g>
</g>
<g>
</g>
<g>
</g>
<g>
</g>
<g>
</g>
<g>
</g>
<g>
</g>
<g>
</g>
<g>
</g>
<g>
</g>
<g>
</g>
<g>
</g>
<g>
</g>
<g>
</g>
</svg>
