<?xml version="1.0" encoding="iso-8859-1"?>
<!-- Generator: Adobe Illustrator 19.0.0, SVG Export Plug-In . SVG Version: 6.00 Build 0)  -->
<svg version="1.1" id="Capa_1" xmlns="http://www.w3.org/2000/svg" xmlns:xlink="http://www.w3.org/1999/xlink" x="0px" y="0px"
	 viewBox="0 0 460 460" style="enable-background:new 0 0 460 460;" xml:space="preserve">
<g>
	<path style="fill:#6B8F9C;" d="M90,340.115V446.5h35V344c33.96,0,64.531-14.492,85.88-37.296l-56.203-10.575
		C139.099,317.266,116.381,333.152,90,340.115z"/>
	<path style="fill:#325763;" d="M154.677,296.129c13.944-18.92,22.172-42.039,22.172-66.731v-74.26L60.606,171.363
		C42.132,158.761,30,137.55,30,113.5c0-38.66,31.34-70,70-70v-30c-55.229,0-100,44.771-100,100c0,41.005,24.684,76.239,60,91.671
		V311.5H25v135h35V344c10.372,0,20.426-1.358,30-3.885C116.381,333.152,139.099,317.266,154.677,296.129z"/>
	<path style="fill:#05232E;" d="M440,38.643L420,21.5h-65c-11.046,0-20,8.955-20,20c0,7.276,3.899,13.626,9.709,17.125
		l-21.074,76.025l-146.786,20.487v74.26c0,24.691-8.227,47.811-22.172,66.731l56.203,10.575L309,325.167V446.5h35V328.491
		c10.683-0.63,20.766-2.914,30-6.658V446.5h35V295.74c12.599-15.849,20-36.653,20-60.729V98.833l12.026-4.009
		C451.462,91.346,460,79.5,460,68.5v-27L440,38.643z"/>
</g>
<g>
</g>
<g>
</g>
<g>
</g>
<g>
</g>
<g>
</g>
<g>
</g>
<g>
</g>
<g>
</g>
<g>
</g>
<g>
</g>
<g>
</g>
<g>
</g>
<g>
</g>
<g>
</g>
<g>
</g>
</svg>
