<?xml version="1.0" encoding="iso-8859-1"?>
<!-- Generator: Adobe Illustrator 19.0.0, SVG Export Plug-In . SVG Version: 6.00 Build 0)  -->
<svg version="1.1" id="Capa_1" xmlns="http://www.w3.org/2000/svg" xmlns:xlink="http://www.w3.org/1999/xlink" x="0px" y="0px"
	 viewBox="0 0 460 460" style="enable-background:new 0 0 460 460;" xml:space="preserve">
<g>
	<polygon style="fill:#6B8F9C;" points="270.294,68.565 251.67,91.666 226.963,75.232 208.338,98.333 295,85 	"/>
	<polygon style="fill:#6B8F9C;" points="183.628,81.899 165,105 208.338,98.333 	"/>
	<path style="fill:#05232E;" d="M430,170v-70c-22.091,0-40,17.909-40,40v10.15L418.944,170H430z"/>
	<path style="fill:#05232E;" d="M320,297.604V395h35V268.063C345.197,279.853,333.349,289.881,320,297.604z"/>
	<path style="fill:#325763;" d="M418.944,170L390,150.15l-10-6.858V170h-40v-30c0-7.424,2.03-14.372,5.554-20.33L295,85
		l-86.662,13.333L165,105v110c0,34.261-13.261,65.421-34.921,88.644L255,315v80h35v-84.772c10.609-2.958,20.671-7.227,30-12.624
		c13.349-7.723,25.197-17.751,35-29.541c3.447-4.146,6.645-8.506,9.562-13.063h34.382c0.354,0,0.703-0.02,1.056-0.026V195
		c16.568,0,30,13.432,30,30v21.773c18.069-10.419,30-29.698,30-51.773v-25H418.944z M215,285h-30v-30h30V285z M225,245v-30h30v30
		H225z"/>
	<path style="fill:#05232E;" d="M165,105L35,125V65C18.432,65,5,78.432,5,95v30c0,16.568,13.432,30,30,30v155H0v85h35v-50
		c37.536,0,71.349-15.915,95.079-41.356C151.739,280.421,165,249.261,165,215V105z M105,235v30H75v-30H105z"/>
	<rect x="75" y="235" style="fill:#325763;" width="30" height="30"/>
	<rect x="185" y="255" style="fill:#05232E;" width="30" height="30"/>
	<rect x="225" y="215" style="fill:#05232E;" width="30" height="30"/>
	<path style="fill:#6B8F9C;" d="M340,170h40v-70c-14.667,0-27.483,7.899-34.446,19.67C342.03,125.628,340,132.576,340,140V170z"/>
	<path style="fill:#F6D76F;" d="M400,195v60h30v-30C430,208.432,416.568,195,400,195z"/>
</g>
<g>
</g>
<g>
</g>
<g>
</g>
<g>
</g>
<g>
</g>
<g>
</g>
<g>
</g>
<g>
</g>
<g>
</g>
<g>
</g>
<g>
</g>
<g>
</g>
<g>
</g>
<g>
</g>
<g>
</g>
</svg>
