<?xml version="1.0" encoding="iso-8859-1"?>
<!-- Generator: Adobe Illustrator 19.0.0, SVG Export Plug-In . SVG Version: 6.00 Build 0)  -->
<svg version="1.1" id="Capa_1" xmlns="http://www.w3.org/2000/svg" xmlns:xlink="http://www.w3.org/1999/xlink" x="0px" y="0px"
	 viewBox="0 0 460 460" style="enable-background:new 0 0 460 460;" xml:space="preserve">
<g>
	<path style="fill:#FBB071;" d="M215,226.013h-73.847c-40.726,0.031-73.731,33.055-73.731,73.787
		c0,40.753,33.037,73.789,73.789,73.789c11.442,0,22.275-2.605,31.94-7.254v24.588c0,11.557,9.368,20.925,20.925,20.925
		S215,402.479,215,390.923V226.013z M141.211,343.589c-24.146,0-43.789-19.644-43.789-43.789s19.644-43.789,43.789-43.789
		c24.145,0,43.789,19.644,43.789,43.789S165.356,343.589,141.211,343.589z"/>
	<path style="fill:#FB5858;" d="M319.28,226.013h43.58c33,0,60-27,60-60v-43.58c-0.02-0.001-0.036,0-0.053,0
		C365.721,122.462,319.28,168.92,319.28,226.013z"/>
	<path style="fill:#AA3E51;" d="M460,85.293c0-20.512-16.628-37.141-37.14-37.141c-98.23,0.001-177.859,79.63-177.86,177.859h73.789
		c0.019,0,0.038,0.001,0.058,0.001h0.433c0-57.093,46.441-103.551,103.526-103.58c0.017,0,0.034-0.001,0.051-0.001
		C443.346,122.403,460,105.789,460,85.293z M422.859,100.293c-8.284,0-15-6.715-15-15c0-8.284,6.716-15,15-15
		c8.284,0,15,6.716,15,15C437.859,93.578,431.143,100.293,422.859,100.293z"/>
	<path style="fill:#F72349;" d="M245,226.012v164.911c0,11.557,9.368,20.925,20.925,20.925s20.925-9.368,20.925-20.925v-24.588
		c9.665,4.648,20.498,7.254,31.94,7.254c40.752,0,73.789-33.036,73.789-73.789c0-40.732-33.005-73.756-73.731-73.787
		c-0.02,0-0.039-0.001-0.058-0.001H245z M362.578,299.8c0,24.146-19.644,43.789-43.789,43.789
		c-24.146,0-43.789-19.644-43.789-43.789s19.644-43.789,43.789-43.789C342.934,256.011,362.578,275.654,362.578,299.8z"/>
	<rect x="215" y="258.152" style="fill:#AA3E51;" width="30" height="80"/>
	<rect x="215" y="168.152" style="fill:#FBB071;" width="30" height="30"/>
	<rect x="215" y="198.152" style="fill:#FF835D;" width="30" height="60"/>
	<path style="fill:#AA3E51;" d="M141.211,256.011v87.578c24.145,0,43.789-19.644,43.789-43.789S165.356,256.011,141.211,256.011z"/>
	<path style="fill:#F72349;" d="M97.422,299.8c0,24.146,19.644,43.789,43.789,43.789v-87.578
		C117.066,256.011,97.422,275.654,97.422,299.8z"/>
	<path style="fill:#AA3E51;" d="M318.789,343.589c24.145,0,43.789-19.644,43.789-43.789s-19.644-43.789-43.789-43.789V343.589z"/>
	<path style="fill:#FF835D;" d="M275,299.8c0,24.146,19.644,43.789,43.789,43.789v-87.578C294.644,256.011,275,275.654,275,299.8z"
		/>
	<path style="fill:#FF835D;" d="M37.194,122.433c-0.017,0-0.034-0.001-0.052-0.001c-0.002,0.001-0.002,43.581-0.002,43.581
		c0,33,27,60,60,60h43.58C140.72,168.92,94.279,122.462,37.194,122.433z"/>
	<path style="fill:#F72349;" d="M215,226.012c-0.001-98.229-79.629-177.858-177.86-177.859C16.628,48.152,0,64.781,0,85.293
		c0,20.495,16.653,37.11,37.142,37.139c0.017,0,0.034,0.001,0.052,0.001c57.085,0.029,103.526,46.487,103.526,103.58L215,226.012z
		 M22.14,85.293c0-8.284,6.716-15,15-15c8.284,0,15,6.716,15,15c0,8.285-6.716,15-15,15C28.856,100.293,22.14,93.578,22.14,85.293z"
		/>
	<circle style="fill:#FB5858;" cx="422.859" cy="85.293" r="15"/>
	<circle style="fill:#FF835D;" cx="37.14" cy="85.293" r="15"/>
</g>
<g>
</g>
<g>
</g>
<g>
</g>
<g>
</g>
<g>
</g>
<g>
</g>
<g>
</g>
<g>
</g>
<g>
</g>
<g>
</g>
<g>
</g>
<g>
</g>
<g>
</g>
<g>
</g>
<g>
</g>
</svg>
