<?xml version="1.0" encoding="iso-8859-1"?>
<!-- Generator: Adobe Illustrator 19.0.0, SVG Export Plug-In . SVG Version: 6.00 Build 0)  -->
<svg version="1.1" id="Capa_1" xmlns="http://www.w3.org/2000/svg" xmlns:xlink="http://www.w3.org/1999/xlink" x="0px" y="0px"
	 viewBox="0 0 460 460" style="enable-background:new 0 0 460 460;" xml:space="preserve">
<g>
	<path style="fill:#C97E67;" d="M245,410c0,27.614,22.386,50,50,50h30c0-11.046-8.954-20-20-20h-10v-50h-50V410z"/>
	<path style="fill:#C97E67;" d="M385,280v-10c0-8.284-6.716-15-15-15s-15,6.716-15,15v10H385z"/>
	<path style="fill:#8F5543;" d="M365,280h-30v-10c0-8.284-6.716-15-15-15s-15,6.716-15,15v10h-60v110h70v20
		c0,27.614,22.386,50,50,50h30c0-11.046-8.954-20-20-20h-10V280z"/>
	<rect x="50" y="250" style="fill:#8F5543;" width="35" height="30"/>
	<rect x="50" y="220" style="fill:#C97E67;" width="35" height="30"/>
	<rect x="50" y="190" style="fill:#8F5543;" width="35" height="30"/>
	<rect x="50" y="130" style="fill:#8F5543;" width="35" height="30"/>
	<rect x="50" y="100" style="fill:#C97E67;" width="35" height="30"/>
	<rect x="50" y="70" style="fill:#8F5543;" width="35" height="30"/>
	<path style="fill:#05232E;" d="M85,70V35C85,15.67,69.33,0,50,0v70H85z"/>
	<path style="fill:#FBB071;" d="M27.56,280c5.86,8.41,13.53,15.48,22.44,20.62V280H27.56z"/>
	<path style="fill:#C97E67;" d="M50,250H15.72c1.57,11.04,5.73,21.25,11.84,30H50V250z"/>
	<path style="fill:#FBB071;" d="M50,220H15v20c0,3.4,0.24,6.73,0.72,10H50V220z"/>
	<rect x="15" y="190" style="fill:#C97E67;" width="35" height="30"/>
	<rect x="50" y="160" style="fill:#C97E67;" width="35" height="30"/>
	<rect x="15" y="160" style="fill:#FBB071;" width="35" height="30"/>
	<rect x="15" y="130" style="fill:#C97E67;" width="35" height="30"/>
	<rect x="15" y="100" style="fill:#FBB071;" width="35" height="30"/>
	<rect x="15" y="70" style="fill:#C97E67;" width="35" height="30"/>
	<path style="fill:#325763;" d="M50,0C30.67,0,15,15.67,15,35v35h35V0z"/>
	<path style="fill:#C97E67;" d="M245,280H50v20.62c10.29,5.97,22.25,9.38,35,9.38v150c42.92,0,77.714-34.794,77.714-77.714v-6
		L245,390V280z M115,310h30v30h-30V310z M205,340h-30v-30h30V340z"/>
	<rect x="115" y="310" style="fill:#8F5543;" width="30" height="30"/>
	<rect x="175" y="310" style="fill:#8F5543;" width="30" height="30"/>
	<polygon style="fill:#05232E;" points="365,350 445,330 445,300 395,300 385,280 365,280 	"/>
</g>
<g>
</g>
<g>
</g>
<g>
</g>
<g>
</g>
<g>
</g>
<g>
</g>
<g>
</g>
<g>
</g>
<g>
</g>
<g>
</g>
<g>
</g>
<g>
</g>
<g>
</g>
<g>
</g>
<g>
</g>
</svg>
