<?xml version="1.0" encoding="iso-8859-1"?>
<!-- Generator: Adobe Illustrator 19.0.0, SVG Export Plug-In . SVG Version: 6.00 Build 0)  -->
<svg version="1.1" id="Capa_1" xmlns="http://www.w3.org/2000/svg" xmlns:xlink="http://www.w3.org/1999/xlink" x="0px" y="0px"
	 viewBox="0 0 460 460" style="enable-background:new 0 0 460 460;" xml:space="preserve">
<g>
	<rect x="170" y="109.76" style="fill:#F72349;" width="30" height="31.723"/>
	<rect x="260" y="109.76" style="fill:#AA3E51;" width="30" height="31.723"/>
	<rect x="170" y="79.76" style="fill:#325763;" width="30" height="30"/>
	<rect x="260" y="79.76" style="fill:#05232E;" width="30" height="30"/>
	<path style="fill:#F72349;" d="M82.186,189.76H60v-70c0,16.572-13.431,30.003-30,30c-16.565,0-29.997,0-29.997,0v-0.935
		C0,148.828,0,171.619,0,199.476s19.479,50.647,43.286,50.647h33.662c-0.616-5.596-0.943-11.278-0.943-17.037
		C76.005,218.041,78.164,203.502,82.186,189.76z"/>
	<path style="fill:#F72349;" d="M11.093,298.837l10.261,28.191l70.576-25.688c-4.408-8.901-7.98-18.288-10.615-28.063
		L11.093,298.837z"/>
	<path style="fill:#F72349;" d="M103.841,321.405l-57.754,48.462l19.283,22.98l57.996-48.664
		C116.146,337.252,109.604,329.622,103.841,321.405z"/>
	<path style="fill:#F72349;" d="M105.875,426.627c31.87,18.472,52.318,26.313,73.735,30.819l6.176-29.357
		c-13.385-2.816-26.326-7.157-38.634-12.95l23.135-40.064c-9.296-3.914-18.129-8.711-26.39-14.292L105.875,426.627z"/>
	<path style="fill:#F72349;" d="M60,89.76V32.554c-0.003-16.568-13.435-30-30-30V89.76H60z"/>
	<path style="fill:#AA3E51;" d="M438.646,327.028l10.261-28.191l-70.212-25.555c-2.636,9.773-6.208,19.16-10.617,28.062
		L438.646,327.028z"/>
	<path style="fill:#AA3E51;" d="M336.637,344.186l57.993,48.662l19.283-22.98l-57.75-48.458
		C350.4,329.626,343.857,337.255,336.637,344.186z"/>
	<path style="fill:#AA3E51;" d="M312.847,415.139c-12.308,5.793-25.249,10.134-38.634,12.95l6.176,29.357
		c21.417-4.506,41.866-12.348,73.735-30.819l-38.022-65.843c-8.261,5.58-17.094,10.377-26.39,14.29L312.847,415.139z"/>
	<path style="fill:#F72349;" d="M373.428,189.76h4.397c-5.152-17.603-13.361-33.898-24.015-48.277H230V387.08
		c21.174,0,41.349-4.275,59.712-12.006c9.296-3.913,18.129-8.71,26.39-14.29c7.318-4.943,14.185-10.504,20.535-16.599
		c7.22-6.931,13.763-14.56,19.526-22.776c4.456-6.353,8.442-13.059,11.913-20.065c4.409-8.901,7.982-18.288,10.617-28.062
		c2.025-7.509,3.497-15.243,4.368-23.159c-6.016,0-9.635,0-9.635,0V189.76z"/>
	<path style="fill:#FB5858;" d="M106.201,141.482c-10.653,14.379-18.863,30.675-24.015,48.277
		c-4.022,13.742-6.181,28.281-6.181,43.326c0,5.759,0.327,11.441,0.943,17.037c0.871,7.915,2.343,15.648,4.367,23.155
		c2.635,9.774,6.207,19.161,10.615,28.063c3.47,7.007,7.456,13.712,11.911,20.064c5.763,8.217,12.305,15.847,19.525,22.778
		c6.349,6.095,13.215,11.655,20.533,16.599c8.261,5.581,17.093,10.378,26.39,14.292c18.362,7.73,38.537,12.006,59.712,12.006
		V141.482H106.201z M130,171.482h30v30h-30V171.482z M200,241.482h-30v-30h30V241.482z"/>
	<rect x="130" y="171.482" style="fill:#F72349;" width="30" height="30"/>
	<rect x="170" y="211.482" style="fill:#F72349;" width="30" height="30"/>
	<path style="fill:#FB5858;" d="M30,149.76c16.569,0.003,30-13.428,30-30v-30H30V2.554c-16.565,0-29.997,13.432-30,30l0.003,116.271
		v0.935C0.003,149.76,13.435,149.76,30,149.76z"/>
	<path style="fill:#AA3E51;" d="M459.997,149.76c0,0-13.431,0-29.997,0c-16.569,0.003-30-13.428-30-30v70h-26.572v60.363
		c0,0,3.619,0,9.635,0h33.651c23.807,0,43.286-22.791,43.286-50.647s0-50.647,0-50.647
		C459.997,148.825,459.997,149.76,459.997,149.76z"/>
	<path style="fill:#AA3E51;" d="M430,2.554c-16.565,0-29.997,13.432-30,30V89.76h30V2.554z"/>
	<path style="fill:#F72349;" d="M430,149.76c16.565,0,29.997,0,29.997,0v-0.935L460,32.554c-0.003-16.568-13.435-30-30-30V89.76h-30
		v30C400,136.332,413.431,149.763,430,149.76z"/>
</g>
<g>
</g>
<g>
</g>
<g>
</g>
<g>
</g>
<g>
</g>
<g>
</g>
<g>
</g>
<g>
</g>
<g>
</g>
<g>
</g>
<g>
</g>
<g>
</g>
<g>
</g>
<g>
</g>
<g>
</g>
</svg>
