<?xml version="1.0" encoding="iso-8859-1"?>
<!-- Generator: Adobe Illustrator 19.0.0, SVG Export Plug-In . SVG Version: 6.00 Build 0)  -->
<svg version="1.1" id="Capa_1" xmlns="http://www.w3.org/2000/svg" xmlns:xlink="http://www.w3.org/1999/xlink" x="0px" y="0px"
	 viewBox="0 0 460.003 460.003" style="enable-background:new 0 0 460.003 460.003;" xml:space="preserve">
<g>
	<rect x="192.68" y="60" style="fill:#6B8F9C;" width="60" height="30"/>
	<path style="fill:#325763;" d="M192.68,30c-33.137,0-60,26.863-60,60h60V60h60V30H192.68z"/>
	<path style="fill:#05232E;" d="M394.102,58.579C355.049,19.526,303.865,0,252.68,0c-16.569,0-30,13.432-30,30h30v170
		c31.242-31.242,81.895-31.242,113.137,0c31.242,31.242,31.242,81.895,0,113.137c-62.484,62.484-163.79,62.483-226.274,0
		l-28.285,28.284L7.323,445.358c19.526,19.526,51.184,19.526,70.711,0l28.284-28.285c19.526,19.526,51.184,19.526,70.711,0
		l23.866-23.866c66.722,17.817,140.863,0.559,193.208-51.786C472.206,263.317,472.206,136.684,394.102,58.579z"/>
	<path style="fill:#325763;" d="M365.817,200c-31.242-31.242-81.895-31.242-113.137,0l91.924,91.924
		c-50.687,50.687-133.161,50.687-183.848,0l-21.213,21.213c62.484,62.483,163.79,62.484,226.274,0
		C397.059,281.895,397.06,231.242,365.817,200z"/>
	<path style="fill:#05232E;" d="M252.68,200l-91.924,91.924c50.687,50.686,133.161,50.687,183.848,0L252.68,200z"/>
</g>
<g>
</g>
<g>
</g>
<g>
</g>
<g>
</g>
<g>
</g>
<g>
</g>
<g>
</g>
<g>
</g>
<g>
</g>
<g>
</g>
<g>
</g>
<g>
</g>
<g>
</g>
<g>
</g>
<g>
</g>
</svg>
