<?xml version="1.0" encoding="iso-8859-1"?>
<!-- Generator: Adobe Illustrator 19.0.0, SVG Export Plug-In . SVG Version: 6.00 Build 0)  -->
<svg version="1.1" id="Capa_1" xmlns="http://www.w3.org/2000/svg" xmlns:xlink="http://www.w3.org/1999/xlink" x="0px" y="0px"
	 viewBox="0 0 460 460" style="enable-background:new 0 0 460 460;" xml:space="preserve">
<g>
	<path style="fill:#05232E;" d="M95,370h65c0-16.569-13.431-30-30-30v-22.616c-12.495-2.648-24.273-7.237-35-13.442V370z"/>
	<path style="fill:#8F5543;" d="M245,290h35c49.626,0,90-40.374,90-90v-80h30c16.542,0,30-13.458,30-30H310
		c-16.569,0-30,13.431-30,30c27.614,0,50,22.386,50,50v40c0,27.614-22.386,50-50,50v-60H155c0,44.416-24.133,83.193-60,103.942
		c10.727,6.206,22.505,10.794,35,13.442c8.065,1.709,16.426,2.616,25,2.616h60C215,303.431,228.431,290,245,290z"/>
	<path style="fill:#8F5543;" d="M280,320v50h65c0-16.569-13.431-30-30-30v-25.191C303.926,318.18,292.176,320,280,320z"/>
	<path style="fill:#05232E;" d="M155,200l-85,0v-70c-19.33,0-35,15.67-35,35s0,35,0,35v85H0v85h65c0-16.569-13.431-30-30-30v-20
		c21.858,0,42.349-5.847,60-16.058C130.867,283.193,155,244.416,155,200z"/>
	<path style="fill:#05232E;" d="M330,210v-40c0-27.614-22.386-50-50-50v140C307.614,260,330,237.614,330,210z"/>
	<path style="fill:#FBB071;" d="M430,90c0,16.542-13.458,30-30,30h-30v80c0,49.626-40.374,90-90,90h-35c-16.569,0-30,13.432-30,30
		v50h65c0-16.569-13.431-30-30-30v-20h30c12.176,0,23.926-1.82,35-5.191c49.2-14.98,85-60.71,85-114.808v-50
		c33.137,0,60-26.863,60-60H430z"/>
</g>
<g>
</g>
<g>
</g>
<g>
</g>
<g>
</g>
<g>
</g>
<g>
</g>
<g>
</g>
<g>
</g>
<g>
</g>
<g>
</g>
<g>
</g>
<g>
</g>
<g>
</g>
<g>
</g>
<g>
</g>
</svg>
