<?xml version="1.0" encoding="iso-8859-1"?>
<!-- Generator: Adobe Illustrator 19.0.0, SVG Export Plug-In . SVG Version: 6.00 Build 0)  -->
<svg version="1.1" id="Capa_1" xmlns="http://www.w3.org/2000/svg" xmlns:xlink="http://www.w3.org/1999/xlink" x="0px" y="0px"
	 viewBox="0 0 460 460" style="enable-background:new 0 0 460 460;" xml:space="preserve">
<g>
	<path style="fill:#16A5D9;" d="M260.322,216.2c9.231-3.259,17.834-8.231,25.293-14.708l-34.721-34.721
		c-4.913,8.892-8.872,18.359-11.743,28.257L260.322,216.2z"/>
	<path style="fill:#99E5FF;" d="M361.848,95.566c7.104-0.519,24.983-0.151,31.274,0.034l0.883-29.987
		c-2.471-0.073-24.425-0.691-34.341,0.034c-0.1,0.007-0.198,0.018-0.298,0.026c-14.074-37.475-50.203-64.128-92.57-64.128
		c-24.505,0-47.977,4.491-69.654,12.672c-43.81,43.81-43.81,114.839,0,158.649c4.352,4.352,8.975,8.266,13.811,11.751
		c-5.849,19.223-8.333,39.81-6.785,61.02c4.106,56.243,36.336,105.974,83.832,133.451c0.022-11.129,2.308-21.735,6.421-31.385
		c-29.634-20.175-50.747-51.391-57.961-87.073c18.116-0.498,35.538-7.313,49.154-19.137L260.322,216.2l-21.171-21.171
		c2.871-9.898,6.83-19.365,11.743-28.257C272.747,127.218,313.516,99.095,361.848,95.566z"/>
	<path style="fill:#16A5D9;" d="M287.997,379.25c0,10.974,2.209,21.438,6.191,30.985C306.365,439.428,335.198,460,368.747,460h20.82
		v-30h-20.82v-50.75H287.997z"/>
	<path style="fill:#4AD0FF;" d="M288.001,379.087c-47.496-27.477-79.726-77.207-83.832-133.451
		c-1.548-21.209,0.936-41.796,6.785-61.02c-4.836-3.485-9.459-7.399-13.811-11.751c-43.81-43.81-43.81-114.839,0-158.649
		c-21.83-15.083-50.685-18.972-76.874-7.746c-16.135,6.916-28.805,18.526-37.133,32.545l32.679,32.679
		c-30.403,35.889-49.821,82.041-49.821,132.65c0,113.529,92.363,205.892,205.892,205.892h22.301
		c-3.982-9.547-6.191-20.011-6.191-30.985h80.75v-50.74h20.82v-30h-20.82c-33.331,0-62.012,20.304-74.325,49.191
		C290.309,357.351,288.023,367.958,288.001,379.087z"/>
</g>
<g>
</g>
<g>
</g>
<g>
</g>
<g>
</g>
<g>
</g>
<g>
</g>
<g>
</g>
<g>
</g>
<g>
</g>
<g>
</g>
<g>
</g>
<g>
</g>
<g>
</g>
<g>
</g>
<g>
</g>
</svg>
