<?xml version="1.0" encoding="iso-8859-1"?>
<!-- Generator: Adobe Illustrator 19.0.0, SVG Export Plug-In . SVG Version: 6.00 Build 0)  -->
<svg version="1.1" id="Capa_1" xmlns="http://www.w3.org/2000/svg" xmlns:xlink="http://www.w3.org/1999/xlink" x="0px" y="0px"
	 viewBox="0 0 460 460" style="enable-background:new 0 0 460 460;" xml:space="preserve">
<g>
	<path style="fill:#05232E;" d="M97.5,356.219V460h35V360c34.755,0,60.552-14.781,77.236-38.392l-45.806-10.179
		C147.796,333.173,124.487,349.273,97.5,356.219z"/>
	<path style="fill:#05232E;" d="M367.5,0c-16.568,0-30,13.432-30,30v50h30V0z"/>
	<path style="fill:#325763;" d="M327.5,80V0c-16.568,0-30,13.432-30,30v50l-50,115.806c0.005,0.001-60-1.935-60-1.935l0,46.129
		c0,26.76-8.763,51.471-23.571,71.429l45.806,10.179l1.904,0.423c3.594-16.174,19.622-26.374,35.792-22.778l0.068,0.015V425h35
		V293.675c37.93-14.217,65-50.841,65-93.675c0-16.568,13.432-30,30-30v-40.909l20-3.636V80H327.5z"/>
	<polygon style="fill:#6B8F9C;" points="397.5,80 397.5,125.455 427.5,120 427.5,80 	"/>
	<path style="fill:#05232E;" d="M83.339,210H67.5c-19.33,0-35,15.67-35,35v60.735c19.328,0,35-15.672,35-35V250
		C67.5,234.421,73.519,220.378,83.339,210z"/>
	<path style="fill:#05232E;" d="M312.5,312.604V460h35V283.063C337.697,294.853,325.849,304.881,312.5,312.604z"/>
	<path style="fill:#6B8F9C;" d="M347.5,200c0,42.833-27.07,79.458-65,93.675v31.553c10.609-2.958,20.671-7.227,30-12.624
		c13.349-7.723,25.197-17.751,35-29.541c18.731-22.525,30-51.478,30-83.063v-30C360.932,170,347.5,183.432,347.5,200z"/>
	<path style="fill:#6B8F9C;" d="M247.432,299.253c-16.17-3.596-32.198,6.604-35.792,22.778L247.5,330v-30.731L247.432,299.253z"/>
	<path style="fill:#6B8F9C;" d="M163.929,311.429C178.737,291.471,187.5,266.76,187.5,240v-46.129
		c-0.001,0-60.031-1.937-60.031-1.937c-17.412-0.562-33.148,6.46-44.13,18.065c-9.82,10.378-15.839,24.421-15.839,40v77.5h-35V425
		h35v-65c10.359,0,20.411-1.313,30-3.781C124.487,349.273,147.796,333.173,163.929,311.429z"/>
	<rect x="32.5" y="425" style="fill:#05232E;" width="35" height="35"/>
	<rect x="247.5" y="425" style="fill:#05232E;" width="35" height="35"/>
</g>
<g>
</g>
<g>
</g>
<g>
</g>
<g>
</g>
<g>
</g>
<g>
</g>
<g>
</g>
<g>
</g>
<g>
</g>
<g>
</g>
<g>
</g>
<g>
</g>
<g>
</g>
<g>
</g>
<g>
</g>
</svg>
