<?xml version="1.0" encoding="iso-8859-1"?>
<!-- Generator: Adobe Illustrator 19.0.0, SVG Export Plug-In . SVG Version: 6.00 Build 0)  -->
<svg version="1.1" id="Capa_1" xmlns="http://www.w3.org/2000/svg" xmlns:xlink="http://www.w3.org/1999/xlink" x="0px" y="0px"
	 viewBox="0 0 460 460" style="enable-background:new 0 0 460 460;" xml:space="preserve">
<g>
	<polygon style="fill:#05232E;" points="283.927,395.167 340.024,395.167 340.024,351.466 310.024,351.466 310.024,321.466 
		340.024,321.466 340.024,275.167 283.927,286.965 	"/>
	<rect x="310.024" y="321.466" style="fill:#325763;" width="30" height="30"/>
	<path style="fill:#6B8F9C;" d="M119.75,99.317c-49.36,0-89.75,40.39-89.75,89.75h115.341v31.605
		c0,33.381-14.193,63.436-36.859,84.495h88.908V99.317H119.75z M145.341,159.067h-30v-30h30V159.067z"/>
	<path style="fill:#325763;" d="M409.992,257.6L410,305.167c0,8.271-6.729,15-15,15s-15-6.729-15-15v-30h-30v30
		c0,24.813,20.187,45,45,45s45-20.187,45-45l-0.008-45h-15.041C419.708,260.167,414.675,259.256,409.992,257.6z"/>
	<path style="fill:#F6D76F;" d="M460,230.167h-35.049c-8.05,0-14.62-6.379-14.967-14.345c-0.01-0.219-0.033-0.434-0.033-0.655
		c0-0.003-29.996-10.004-29.996-10.004l-0.004,10.004c0,19.57,12.561,36.253,30.041,42.434c4.683,1.656,9.716,2.566,14.959,2.566
		H460V230.167z"/>
	<path style="fill:#325763;" d="M409.984,215.175v0.647c0.347,7.966,6.917,14.345,14.967,14.345h15.036l-0.011-65
		c-0.01,0,0-40.333,0-40.333c0-33-27-60-60-60h-39.973L340,77.419v155.303l-112.634-37.555v-95.85H197.39v295.85h56.098v-43.7h-30
		v-30h30v-28.099l30.439-6.402l56.093-11.798v-83.319l39.935,13.315C379.955,205.162,409.951,215.164,409.984,215.175z"/>
	<path style="fill:#6B8F9C;" d="M30,291.508c-16.569,0-30,13.432-30,30v40c16.568,0,30-13.431,30-30V291.508z"/>
	<path style="fill:#325763;" d="M145.341,220.672v-31.605H30v206.1h56.098v-43.7h-30v-30h30c8.119-4.528,15.624-10.018,22.385-16.3
		C131.149,284.107,145.341,254.052,145.341,220.672z"/>
	<rect x="115.341" y="129.067" style="fill:#325763;" width="30" height="30"/>
	<rect x="56.098" y="321.466" style="fill:#6B8F9C;" width="30" height="30"/>
	<rect x="223.488" y="321.466" style="fill:#6B8F9C;" width="30" height="30"/>
	<path style="fill:#6B8F9C;" d="M340,232.722V64.833l-78.151,0c-19.044,0-34.483,15.438-34.483,34.483v95.85L340,232.722z"/>
</g>
<g>
</g>
<g>
</g>
<g>
</g>
<g>
</g>
<g>
</g>
<g>
</g>
<g>
</g>
<g>
</g>
<g>
</g>
<g>
</g>
<g>
</g>
<g>
</g>
<g>
</g>
<g>
</g>
<g>
</g>
</svg>
