<?xml version="1.0" encoding="iso-8859-1"?>
<!-- Generator: Adobe Illustrator 19.0.0, SVG Export Plug-In . SVG Version: 6.00 Build 0)  -->
<svg version="1.1" id="Capa_1" xmlns="http://www.w3.org/2000/svg" xmlns:xlink="http://www.w3.org/1999/xlink" x="0px" y="0px"
	 viewBox="0 0 460 460" style="enable-background:new 0 0 460 460;" xml:space="preserve">
<g>
	<path style="fill:#4AD0FF;" d="M304.496,135.988c-9.916-31.897-39.665-55.058-74.825-55.058v54.691
		c11.879-1.877,23.998-2.853,36.308-2.853C279.055,132.77,291.912,133.876,304.496,135.988z"/>
	<path style="fill:#4AD0FF;" d="M460,230l-0.75-1.96c-31.06-36.96-69.55-65.06-112.58-80.86c-17,23.21-27.03,51.84-27.03,82.82H460z
		"/>
	<path style="fill:#50BF94;" d="M319.64,230c0,30.6,9.79,58.92,26.42,81.98C389.68,296.1,428.67,267.58,460,230H319.64z"/>
	<path style="fill:#99E5FF;" d="M319.64,230c0-30.98,10.03-59.61,27.03-82.82c-13.63-5.008-27.722-8.766-42.174-11.191
		c-12.585-2.112-25.441-3.219-38.516-3.219c-12.311,0-24.429,0.976-36.308,2.853c-52.367,8.274-100.048,34.193-138.692,72.568V230
		H319.64z M289.64,200h-30v-30h30V200z"/>
	<rect x="259.64" y="170" style="fill:#FFFFFF;" width="30" height="30"/>
	<path style="fill:#99E5FF;" d="M120.98,329.094c20.866,0,39.812-8.173,53.852-21.473c-19.005-8-37.042-18.429-53.852-30.975
		V329.094z"/>
	<path style="fill:#50BF94;" d="M229.672,323.318v55.751c35.564,0,65.575-23.705,75.141-56.172
		c-12.687,2.148-25.649,3.272-38.833,3.272C253.669,326.17,241.551,325.195,229.672,323.318z"/>
	<path style="fill:#84D993;" d="M229.64,230v30h-30v-30H90.98c0,0,0,20.527,0,20.75c9.475,9.417,19.502,18.063,30,25.896
		c16.811,12.546,34.848,22.975,53.852,30.975c17.529,7.379,35.875,12.7,54.84,15.697c11.879,1.877,23.998,2.852,36.308,2.852
		c13.184,0,26.146-1.124,38.833-3.272c14.123-2.392,27.903-6.056,41.247-10.917C329.43,288.92,319.64,260.6,319.64,230H229.64z"/>
	<path style="fill:#4AD0FF;" d="M90.98,250.75c0-0.223,0-20.75,0-20.75C90.97,230,90.97,250.75,90.98,250.75z"/>
	<path style="fill:#4AD0FF;" d="M90.98,230v-21.81C90.97,208.19,90.97,230,90.98,230z"/>
	<path style="fill:#4AD0FF;" d="M90.98,208.18l-26.031-32.622C51.227,158.361,22,144.291,0,144.291V230h90.97
		C90.97,230,90.97,208.19,90.98,208.18z"/>
	<path style="fill:#50BF94;" d="M0,230v85.709c22,0,51.227-14.07,64.949-31.267L90.98,251.82C90.97,251.81,90.97,230,90.97,230H0z"
		/>
	<rect x="199.64" y="230" style="fill:#FFFFFF;" width="30" height="30"/>
</g>
<g>
</g>
<g>
</g>
<g>
</g>
<g>
</g>
<g>
</g>
<g>
</g>
<g>
</g>
<g>
</g>
<g>
</g>
<g>
</g>
<g>
</g>
<g>
</g>
<g>
</g>
<g>
</g>
<g>
</g>
</svg>
