<?xml version="1.0" encoding="iso-8859-1"?>
<!-- Generator: Adobe Illustrator 19.0.0, SVG Export Plug-In . SVG Version: 6.00 Build 0)  -->
<svg version="1.1" id="Capa_1" xmlns="http://www.w3.org/2000/svg" xmlns:xlink="http://www.w3.org/1999/xlink" x="0px" y="0px"
	 viewBox="0 0 460 460" style="enable-background:new 0 0 460 460;" xml:space="preserve">
<g>
	<path style="fill:#325763;" d="M400,0v60c16.568,0,30-13.432,30-30S416.569,0,400,0z"/>
	<path style="fill:#FB5858;" d="M365,0v0.198C366.654,0.081,368.317,0,370,0H365z"/>
	<rect x="370" style="fill:#FB5858;" width="30" height="30"/>
	<polygon style="fill:#AA3E51;" points="180,460 210,460 210,296.667 180,286.667 	"/>
	<path style="fill:#F72349;" d="M365,0.198C328.729,2.773,300,33.085,300,70v150h-17.503c-16.002-40.973-55.858-70-102.497-70v30
		c44.183,0,80,35.817,80,80h40c22.091,0,40-17.909,40-40V70c16.569,0,30-13.432,30-30V0C368.317,0,366.654,0.081,365,0.198z"/>
	<path style="fill:#FB5858;" d="M180,180v-30c-46.639,0-86.495,29.027-102.497,70H70c-22.091,0-40,17.909-40,40h70
		C100,215.817,135.817,180,180,180z"/>
	<path style="fill:#F72349;" d="M180,180c-44.183,0-80,35.817-80,80l80,26.667V180z"/>
	<path style="fill:#FB5858;" d="M180,180v106.667L220,300c22.091,0,40-17.909,40-40C260,215.817,224.183,180,180,180z"/>
</g>
<g>
</g>
<g>
</g>
<g>
</g>
<g>
</g>
<g>
</g>
<g>
</g>
<g>
</g>
<g>
</g>
<g>
</g>
<g>
</g>
<g>
</g>
<g>
</g>
<g>
</g>
<g>
</g>
<g>
</g>
</svg>
