<?xml version="1.0" encoding="iso-8859-1"?>
<!-- Generator: Adobe Illustrator 19.0.0, SVG Export Plug-In . SVG Version: 6.00 Build 0)  -->
<svg version="1.1" id="Capa_1" xmlns="http://www.w3.org/2000/svg" xmlns:xlink="http://www.w3.org/1999/xlink" x="0px" y="0px"
	 viewBox="0 0 460 460" style="enable-background:new 0 0 460 460;" xml:space="preserve">
<g>
	<path style="fill:#16A5D9;" d="M201.536,338.067c-18.733,24.768-28.786,52.656-29.361,78.259
		c31.845-0.716,67.23-16.081,95.74-44.591l27.756-27.757c-9.754,1.029-19.658,1.564-29.691,1.564
		C243.778,345.543,222.201,342.945,201.536,338.067z"/>
	<path style="fill:#99E5FF;" d="M104.754,326.677c26.178,26.179,66.264,29.937,96.461,11.316
		c-27.452-6.514-53.283-17.065-76.791-30.986L104.754,326.677z"/>
	<path style="fill:#99E5FF;" d="M319.64,213.514c4.955,0,9.59,1.357,13.563,3.715c3.791-6.529,8.305-12.722,13.467-18.502
		c-10.819-3.261-21.928-5.875-33.276-7.813c1.915,7.396,3.398,14.963,4.444,22.667C318.435,213.541,319.034,213.514,319.64,213.514z
		"/>
	<path style="fill:#99E5FF;" d="M317.473,266.659c-13.688-1.104-24.454-12.553-24.454-26.525h-56.037
		c-30.423,0-58.155-12.101-78.627-31.725c-24.51,10.263-47.18,23.911-67.375,40.36v17.89H317.473z"/>
	<path style="fill:#4AD0FF;" d="M319.641,266.755c-0.732,0-1.453-0.037-2.168-0.096H90.98v-21.714c-0.003,0-0.005,1.548-0.006,3.812
		C65.253,226.741,20.768,192.771,0,201.531l40.01,65.128h50.96c0,0,0-7.267,0.003-12.54c-0.001,5.964,0.002,12.636,0.007,12.636
		c-0.005,0-0.008,6.161-0.007,11.77c0,1.865,0.001,3.665,0.002,5.16c0.001,2.26,0.003,3.82,0.006,3.82v-3.816
		c10.508,8.558,21.688,16.355,33.445,23.318c23.508,13.921,49.339,24.473,76.791,30.986c0.107,0.025,0.214,0.05,0.32,0.074
		c20.665,4.878,42.242,7.476,64.444,7.476c10.033,0,19.937-0.535,29.691-1.564c17.331-1.828,34.181-5.23,50.389-10.074
		C329.451,315.013,319.666,291.818,319.641,266.755z M199.64,266.755h30v30h-30V266.755z"/>
	<path style="fill:#16A5D9;" d="M90.97,266.659H40.01L0.02,330.901c20.758,8.769,65.243-25.201,90.954-47.217
		c-0.001-1.495-0.001-3.295-0.002-5.16C90.97,273.515,90.97,266.659,90.97,266.659z"/>
	<rect x="199.64" y="266.755" style="fill:#FFFFFF;" width="30" height="30"/>
	<path style="fill:#4AD0FF;" d="M293.019,240.134c0-14.096,10.958-25.626,24.819-26.553c-1.046-7.704-2.529-15.271-4.444-22.667
		c-21.904-84.582-98.885-147.24-190.214-147.24v82.658c0,32.168,13.529,61.328,35.175,82.077
		c20.472,19.624,48.204,31.725,78.627,31.725H293.019z"/>
	<path style="fill:#4AD0FF;" d="M319.64,266.659H460l-0.75-1.607c-31.06-30.316-69.55-53.365-112.58-66.325
		c-5.162,5.78-9.676,11.973-13.467,18.502C324.509,232.205,319.64,248.964,319.64,266.659z"/>
	<path style="fill:#16A5D9;" d="M319.64,266.659c0-17.695,4.869-34.454,13.563-49.431c-3.973-2.357-8.608-3.715-13.563-3.715
		c-0.606,0-1.206,0.027-1.802,0.067c-13.861,0.927-24.819,12.457-24.819,26.553c0,13.973,10.766,25.422,24.454,26.525
		c0.716,0.059,1.437,0.096,2.167,0.096c0.026,25.063,9.811,48.258,26.42,67.149c43.62-13.026,82.61-36.42,113.94-67.245H319.64z"/>
</g>
<g>
</g>
<g>
</g>
<g>
</g>
<g>
</g>
<g>
</g>
<g>
</g>
<g>
</g>
<g>
</g>
<g>
</g>
<g>
</g>
<g>
</g>
<g>
</g>
<g>
</g>
<g>
</g>
<g>
</g>
</svg>
