<?xml version="1.0" encoding="iso-8859-1"?>
<!-- Generator: Adobe Illustrator 19.0.0, SVG Export Plug-In . SVG Version: 6.00 Build 0)  -->
<svg version="1.1" id="Capa_1" xmlns="http://www.w3.org/2000/svg" xmlns:xlink="http://www.w3.org/1999/xlink" x="0px" y="0px"
	 viewBox="0 0 460 460" style="enable-background:new 0 0 460 460;" xml:space="preserve">
<g>
	<path style="fill:#50BF94;" d="M313.3,34.595l-0.105,0.095C313.23,34.657,313.267,34.628,313.3,34.595z"/>
	<path style="fill:#50BF94;" d="M273,375.587c0,0.038,0.039,0.022,0.1-0.002C273.067,375.586,273.033,375.586,273,375.587z"/>
	<path style="fill:#50BF94;" d="M303,116.625v30h-30v188.958c17.125-0.461,33.283-4.858,47.607-12.313l-0.004-91.673
		c0-15.219,11.535-28.26,27-29.814s29.366,8.928,32.396,23.842v-101.25h40v-60h-40c0,22.09-17.91,40-40,40s-40-17.91-40-40
		c0-11.711,5.035-22.245,13.056-29.561L273,70.755v45.87H303z"/>
	<path style="fill:#84D993;" d="M213,315.625c17.769,0,33.726,7.729,44.711,20H270c1.003,0,2.003-0.016,3-0.042V70.755L33.3,285.845
		c-8.16,7.32-13.3,17.95-13.3,29.78c0,4.682,0.809,9.172,2.286,13.346c10.31-8.339,23.426-13.346,37.714-13.346H213z
		 M184.871,255.625h30v30h-30V255.625z M144.871,215.625h30v30h-30V215.625z"/>
	<path style="fill:#FDF3D3;" d="M380,225.625l16.365,80.567C411.313,282.882,420,255.219,420,225.625v-101.25h-40V225.625z"/>
	<path style="fill:#FDF3D3;" d="M270,335.625h-12.289c9.495,10.606,15.278,24.606,15.288,39.962
		c0.034-0.001,0.068-0.001,0.101-0.002c16.624-0.341,32.604-3.422,47.509-8.807l-0.002-43.508
		c-14.325,7.454-30.483,11.852-47.607,12.313C272.003,335.609,271.003,335.625,270,335.625z"/>
	<path style="fill:#B9F291;" d="M430,405.625h-13.439l-20.196-99.433L380,225.625c-3.03-14.914-16.93-25.396-32.396-23.842
		s-27.001,14.596-27,29.814l0.004,91.673l0.002,43.508l0.001,38.847h40.91c16.568,0,30,13.432,30,30H460
		C460,419.057,446.569,405.625,430,405.625z"/>
	<path style="fill:#50BF94;" d="M361.521,405.625h-96.567c-10.375,17.93-29.748,30-51.954,30h178.521
		C391.521,419.057,378.089,405.625,361.521,405.625z"/>
	<path style="fill:#B9F291;" d="M273,375.625c-0.011-15.394-5.793-29.394-15.289-40c-10.986-12.271-26.943-20-44.711-20H60
		c-14.287,0-27.404,5.007-37.714,13.346c-1.643,1.328-3.222,2.733-4.715,4.226C6.718,344.061,0,359.061,0,375.625H273z"/>
	<path style="fill:#84D993;" d="M264.954,405.625c5.108-8.827,8.046-19.067,8.046-30H0c0,33.14,26.861,60,60,60h153
		C235.207,435.625,254.579,423.555,264.954,405.625z"/>
	<rect x="273" y="116.625" style="fill:#B9F291;" width="30" height="30"/>
	<rect x="144.871" y="215.625" style="fill:#B9F291;" width="30" height="30"/>
	<rect x="184.871" y="255.625" style="fill:#B9F291;" width="30" height="30"/>
	<path style="fill:#AA3E51;" d="M340,104.375c22.09,0,40-17.91,40-40s-17.91-40-40-40V104.375z"/>
	<path style="fill:#F72349;" d="M300,64.375c0,22.09,17.91,40,40,40v-80c-10.261,0-19.617,3.868-26.698,10.221
		c-0.035,0.032-0.072,0.062-0.107,0.094c-0.046,0.041-0.093,0.082-0.139,0.125C305.035,42.13,300,52.664,300,64.375z"/>
</g>
<g>
</g>
<g>
</g>
<g>
</g>
<g>
</g>
<g>
</g>
<g>
</g>
<g>
</g>
<g>
</g>
<g>
</g>
<g>
</g>
<g>
</g>
<g>
</g>
<g>
</g>
<g>
</g>
<g>
</g>
</svg>
