<?xml version="1.0" encoding="iso-8859-1"?>
<!-- Generator: Adobe Illustrator 19.0.0, SVG Export Plug-In . SVG Version: 6.00 Build 0)  -->
<svg version="1.1" id="Capa_1" xmlns="http://www.w3.org/2000/svg" xmlns:xlink="http://www.w3.org/1999/xlink" x="0px" y="0px"
	 viewBox="0 0 454.698 454.698" style="enable-background:new 0 0 454.698 454.698;" xml:space="preserve">
<g>
	<path style="fill:#05232E;" d="M2.81,442.982c15.621,15.621,40.948,15.621,56.569,0l99.443-99.443
		c-11.076-7.166-21.578-15.581-31.283-25.285L2.81,442.982z"/>
	<path style="fill:#325763;" d="M396.239,49.553c-16.83-16.83-36.034-29.837-56.533-39.028c-0.003,0.013,0.001,15.559,0.001,15.559
		c0,24.896-11.762,47.08-30.006,61.333v74.722c20.895-1.45,42.28,5.791,58.254,21.765c29.289,29.289,29.289,76.777,0,106.066
		c-16.956,16.956-36.964,28.993-58.254,36.133v41.701c31.708-8.195,61.705-24.717,86.538-49.55
		C470.438,244.055,470.438,123.753,396.239,49.553z"/>
	<path style="fill:#6B8F9C;" d="M155.823,289.97l106.066-106.066c13.316-13.315,30.394-20.556,47.812-21.765V87.417
		c-13.203,10.316-29.795,16.486-47.812,16.486v80L158.373,287.419l-30.835,30.835c9.705,9.705,20.207,18.12,31.283,25.285
		c45.264,29.283,100.244,37.381,150.879,24.268v-41.704C257.44,343.63,197.445,331.593,155.823,289.97z"/>
	<path style="fill:#8F5543;" d="M261.889,183.904l84.853,84.853l21.213,21.213c29.289-29.29,29.289-76.777,0-106.066
		c-15.974-15.974-37.359-23.214-58.254-21.765C292.282,163.348,275.204,170.588,261.889,183.904z"/>
	<path style="fill:#05232E;" d="M177.036,268.757l84.853-84.853c0,0-106.066,106.066-106.066,106.066
		c41.623,41.623,101.618,53.66,153.878,36.133c21.29-7.14,41.298-19.177,58.254-36.133l-21.213-21.213
		C299.954,315.545,223.824,315.545,177.036,268.757z"/>
	<path style="fill:#F6D76F;" d="M177.036,268.757c46.788,46.788,122.918,46.788,169.706,0l-84.853-84.853L177.036,268.757z"/>
	<path style="fill:#05232E;" d="M339.706,26.084l-0.003-15.546C329.95,6.166,319.916,2.646,309.7,0l0.006,26.091
		c0,26.406-21.406,47.812-47.812,47.812v-50L309.7,0l-47.812,23.906c0.006-0.002,0.006,49.998,0.006,49.998
		c-0.006-0.003-0.006,30-0.006,30c18.017,0,34.609-6.17,47.812-16.486C327.944,73.164,339.706,50.98,339.706,26.084z"/>
	<path style="fill:#F72349;" d="M261.894,23.903v50c26.406,0,47.812-21.406,47.812-47.812L309.7,0L261.894,23.903z"/>
	<polygon style="fill:#FBB071;" points="261.894,23.904 211.894,48.904 261.894,73.904 	"/>
</g>
<g>
</g>
<g>
</g>
<g>
</g>
<g>
</g>
<g>
</g>
<g>
</g>
<g>
</g>
<g>
</g>
<g>
</g>
<g>
</g>
<g>
</g>
<g>
</g>
<g>
</g>
<g>
</g>
<g>
</g>
</svg>
