<?xml version="1.0" encoding="iso-8859-1"?>
<!-- Generator: Adobe Illustrator 19.0.0, SVG Export Plug-In . SVG Version: 6.00 Build 0)  -->
<svg version="1.1" id="Capa_1" xmlns="http://www.w3.org/2000/svg" xmlns:xlink="http://www.w3.org/1999/xlink" x="0px" y="0px"
	 viewBox="0 0 460 460" style="enable-background:new 0 0 460 460;" xml:space="preserve">
<g>
	<path style="fill:#05232E;" d="M141.611,335.676l-0.03-0.006V390c0,38.66,31.34,70,70,70h30c0-16.568-13.432-30-30-30v-80.02
		c-0.528,0.005-1.053,0.02-1.582,0.02C185.67,350,162.538,344.883,141.611,335.676z"/>
	<path style="fill:#325763;" d="M420,75h-40v60c22.091,0,40-17.909,40-40h-13.333L420,75z"/>
	<path style="fill:#6B8F9C;" d="M141.582,335.664c4.904-14.58,20.224-23.247,35.461-19.568C187.772,318.686,198.86,320,210,320
		c23,0,44.721-5.577,63.885-15.447L242.592,148.93l0.018-0.006C240.922,142.902,240,136.561,240,130l-70,50v40
		c0,42.194-20.107,79.687-51.257,103.436c7.258,4.627,14.882,8.733,22.834,12.233l0.004,0.001l0.03,0.006
		C141.601,335.672,141.591,335.668,141.582,335.664z"/>
	<path style="fill:#325763;" d="M170,220v-40h-60c-38.5,0-70,31.5-70,70v140c0,38.66,31.34,70,70,70h30c0-16.568-13.432-30-30-30
		V329.563c3.002-1.922,5.916-3.971,8.743-6.126C149.893,299.687,170,262.194,170,220z"/>
	<path style="fill:#325763;" d="M273.885,304.553C254.721,314.423,233,320,210,320c-11.14,0-22.228-1.314-32.958-3.905
		c-15.237-3.679-30.557,4.988-35.461,19.568c0.01,0.004,0.02,0.008,0.03,0.013C162.538,344.883,185.67,350,210,350
		c0.529,0,1.054-0.015,1.582-0.02c24.373-0.223,47.523-5.562,68.418-15.015l0,0L273.885,304.553z"/>
	<path style="fill:#05232E;" d="M380,75h40c0-8.884-3.864-16.862-10-22.355V50c0-27.614-22.386-50-50-50
		c-14.043,0-26.726,5.797-35.809,15.12l-0.012-0.003l-64.328,66.046l0.012,0.01C247.579,93.786,240,111.003,240,130
		c0,6.561,0.922,12.902,2.61,18.923l-0.018,0.006l31.293,155.624L280,334.965V430h-30c0,16.568,13.432,30,30,30
		c55.228,0,100-44.771,100-100V75z"/>
</g>
<g>
</g>
<g>
</g>
<g>
</g>
<g>
</g>
<g>
</g>
<g>
</g>
<g>
</g>
<g>
</g>
<g>
</g>
<g>
</g>
<g>
</g>
<g>
</g>
<g>
</g>
<g>
</g>
<g>
</g>
</svg>
