<?xml version="1.0" encoding="iso-8859-1"?>
<!-- Generator: Adobe Illustrator 19.0.0, SVG Export Plug-In . SVG Version: 6.00 Build 0)  -->
<svg version="1.1" id="Capa_1" xmlns="http://www.w3.org/2000/svg" xmlns:xlink="http://www.w3.org/1999/xlink" x="0px" y="0px"
	 viewBox="0 0 460 460" style="enable-background:new 0 0 460 460;" xml:space="preserve">
<g>
	<path style="fill:#05232E;" d="M354.995,94.448c-8.284,0-14.999,6.715-15,14.999l30,0.001
		C369.995,101.164,363.279,94.448,354.995,94.448z"/>
	<path style="fill:#05232E;" d="M29.999,199.205C13.5,199.205,0,212.706,0,229.205v38.807h29.999V199.205z"/>
	<polygon style="fill:#325763;" points="289.994,295.505 289.994,365.552 339.994,365.552 339.994,280.505 339.99,295.505 	"/>
	<path style="fill:#325763;" d="M430,135.352h-20.62l-39.385-25.903l-30-0.001c0-8.283-6.716-14.999-15-14.999
		c-8.283,0-14.998,6.714-15,14.997h29.995v49.882c0-0.031,0.005-0.061,0.005-0.092v9.719c33.137,0,60,26.863,60,60H430
		c16.5,0,30-13.5,30-30v-33.603C460,148.852,446.5,135.352,430,135.352z"/>
	<path style="fill:#FB5858;" d="M339.995,168.955v60h60C399.995,195.818,373.132,168.955,339.995,168.955z"/>
	<rect x="259.995" y="265.505" style="fill:#FB5858;" width="79.995" height="30"/>
	<path style="fill:#FB5858;" d="M209.99,265.505v30C209.995,295.505,209.995,265.505,209.99,265.505z"/>
	<polygon style="fill:#05232E;" points="209.99,109.445 209.99,265.505 209.995,365.552 259.995,365.552 259.995,265.505 
		339.99,265.505 339.99,109.445 	"/>
	<path style="fill:#FBB071;" d="M110.001,265.505c0,16.499-13.501,30-30,30H209.99v-30H110.001z"/>
	<path style="fill:#FF835D;" d="M29.999,265.505v30V265.505z"/>
	<rect x="149.988" y="205.504" style="fill:#05232E;" width="30.002" height="30.002"/>
	<rect x="89.988" y="175.504" style="fill:#05232E;" width="30.002" height="30.002"/>
	<path style="fill:#325763;" d="M110.001,265.505h99.989v-156.06h-90.23c-49.328,0-89.693,40.323-89.761,89.636
		c0,0.042,0,0.083,0,0.124v166.346h50.003v-70.046C96.501,295.505,110.001,282.004,110.001,265.505z M149.988,205.504h30.002v30.002
		h-30.002V205.504z M89.988,175.504h30.002v30.002H89.988V175.504z"/>
</g>
<g>
</g>
<g>
</g>
<g>
</g>
<g>
</g>
<g>
</g>
<g>
</g>
<g>
</g>
<g>
</g>
<g>
</g>
<g>
</g>
<g>
</g>
<g>
</g>
<g>
</g>
<g>
</g>
<g>
</g>
</svg>
