<?xml version="1.0" encoding="iso-8859-1"?>
<!-- Generator: Adobe Illustrator 19.0.0, SVG Export Plug-In . SVG Version: 6.00 Build 0)  -->
<svg version="1.1" id="Capa_1" xmlns="http://www.w3.org/2000/svg" xmlns:xlink="http://www.w3.org/1999/xlink" x="0px" y="0px"
	 viewBox="0 0 460 460" style="enable-background:new 0 0 460 460;" xml:space="preserve">
<g>
	<path style="fill:#16A5D9;" d="M189.996,210H120c0,22.091,17.909,40,40,40h110C237.284,250,208.24,234.288,189.996,210z"/>
	<path style="fill:#4AD0FF;" d="M270,250H160c0,22.091,17.909,40,40,40h70V250z"/>
	<path style="fill:#4AD0FF;" d="M172.002,170H80c0,22.091,17.909,40,40,40h69.996C181.261,198.372,175.002,184.778,172.002,170z"/>
	<path style="fill:#16A5D9;" d="M170,150v-20H40c0,22.091,17.909,40,40,40h92.002C170.69,163.538,170,156.85,170,150z"/>
	<path style="fill:#4AD0FF;" d="M235,130c0-22.092-17.909-40-40-40H0c0,22.092,17.909,40,40,40H235z"/>
	<path style="fill:#99E5FF;" d="M170,150c0,6.85,0.69,13.538,2.002,20c3,14.778,9.259,28.372,17.993,40
		c18.244,24.288,47.289,40,80.004,40V130H170V150z"/>
	<path style="fill:#325763;" d="M430,75h-62.292c1.488,4.735,2.292,9.773,2.292,15v15h90C460,88.432,446.569,75,430,75z"/>
	<path style="fill:#16A5D9;" d="M367.708,75c-6.372-20.285-25.32-35-47.708-35c-27.614,0-50,22.386-50,50v290
		c0,22.091,17.909,40,40,40V247.389c18.118-12.662,30-33.657,30-57.389v-85h30V90C370,84.773,369.195,79.735,367.708,75z"/>
	<path style="fill:#4AD0FF;" d="M340,105v85c0,23.732-11.882,44.727-30,57.389v34.282c35.316-15.432,60-50.666,60-91.671v-85H340z"
		/>
</g>
<g>
</g>
<g>
</g>
<g>
</g>
<g>
</g>
<g>
</g>
<g>
</g>
<g>
</g>
<g>
</g>
<g>
</g>
<g>
</g>
<g>
</g>
<g>
</g>
<g>
</g>
<g>
</g>
<g>
</g>
</svg>
