<?xml version="1.0" encoding="iso-8859-1"?>
<!-- Generator: Adobe Illustrator 19.0.0, SVG Export Plug-In . SVG Version: 6.00 Build 0)  -->
<svg version="1.1" id="Capa_1" xmlns="http://www.w3.org/2000/svg" xmlns:xlink="http://www.w3.org/1999/xlink" x="0px" y="0px"
	 viewBox="0 0 460 460" style="enable-background:new 0 0 460 460;" xml:space="preserve">
<g>
	<path style="fill:#8F5543;" d="M407.5,60V50c0-27.614-22.386-50-50-50v60H407.5z"/>
	<path style="fill:#8F5543;" d="M72.5,376.1V460h35v-80.238c50.257,0,93.53-29.899,113.004-72.879L148.4,320.298
		C131.647,347.73,104.534,368.139,72.5,376.1z"/>
	<path style="fill:#FBB071;" d="M148.4,320.298c11.481-18.8,18.1-40.894,18.1-64.536V148.935l-81.71,51.538
		c-23.26,14.671-42.29,49.174-42.29,76.674V340h-35v120h35v-80.238c10.346,0,20.393-1.275,30-3.662
		C104.534,368.139,131.647,347.73,148.4,320.298z M106.5,225.762h30v30h-30V225.762z"/>
	<rect x="106.5" y="225.762" style="fill:#8F5543;" width="30" height="30"/>
	<rect x="196.5" y="229.777" style="fill:#05232E;" width="30" height="30"/>
	<rect x="256.5" y="199.777" style="fill:#05232E;" width="30" height="30"/>
	<path style="fill:#8F5543;" d="M42.5,334.813v-57.667c-19.33,0-35,15.67-35,35V340h34.615
		C42.367,338.307,42.5,336.576,42.5,334.813z"/>
	<path style="fill:#05232E;" d="M418.76,77.24l-18.47,67.16l33.24-11.08C443.96,129.85,452.5,118,452.5,107V80L418.76,77.24z"/>
	<path style="fill:#C97E67;" d="M418.76,77.24L407.5,60h-50V50c0-27.614-22.386-50-50-50v60l-141,88.935v106.827
		c0,23.641-6.618,45.735-18.1,64.536l72.104-13.415L257.5,300v160h35V300h30v160h35V300l42.79-155.6L418.76,77.24z M196.5,229.777
		h30v30h-30V229.777z M256.5,229.777v-30h30v30H256.5z"/>
</g>
<g>
</g>
<g>
</g>
<g>
</g>
<g>
</g>
<g>
</g>
<g>
</g>
<g>
</g>
<g>
</g>
<g>
</g>
<g>
</g>
<g>
</g>
<g>
</g>
<g>
</g>
<g>
</g>
<g>
</g>
</svg>
