<?xml version="1.0" encoding="iso-8859-1"?>
<!-- Generator: Adobe Illustrator 19.0.0, SVG Export Plug-In . SVG Version: 6.00 Build 0)  -->
<svg version="1.1" id="Capa_1" xmlns="http://www.w3.org/2000/svg" xmlns:xlink="http://www.w3.org/1999/xlink" x="0px" y="0px"
	 viewBox="0 0 460 460" style="enable-background:new 0 0 460 460;" xml:space="preserve">
<g>
	<path style="fill:#99E5FF;" d="M176.08,170h-25c0,8.179,3.928,15.439,10,20c-6.072,4.561-10,11.821-10,20s3.928,15.439,10,20
		c-6.072,4.561-10,11.821-10,20s3.928,15.439,10,20c-6.072,4.561-10,11.821-10,20s3.928,15.439,10,20c-6.072,4.561-10,11.821-10,20
		s3.928,15.439,10,20c-6.072,4.561-10,11.821-10,20s3.928,15.439,10,20c-6.072,4.561-10,11.821-10,20c0,13.807,11.193,25,25,25V170z
		"/>
	<path style="fill:#4AD0FF;" d="M283.92,435c13.807,0,25-11.193,25-25c0-8.179-3.928-15.439-10-20c6.072-4.561,10-11.821,10-20
		s-3.928-15.439-10-20c6.072-4.561,10-11.821,10-20s-3.928-15.439-10-20c6.072-4.561,10-11.821,10-20s-3.928-15.439-10-20
		c6.072-4.561,10-11.821,10-20s-3.928-15.439-10-20c6.072-4.561,10-11.821,10-20s-3.928-15.439-10-20c6.072-4.561,10-11.821,10-20
		h-25V435z"/>
	<path style="fill:#16A5D9;" d="M322.53,17.67C295.15,6.42,263.59,0,230,0v35.34C263.59,35.34,295.15,28.93,322.53,17.67z"/>
	<path style="fill:#4AD0FF;" d="M230,0c-33.59,0-65.15,6.42-92.53,17.67c27.38,11.26,58.94,17.67,92.53,17.67V0z"/>
	<path style="fill:#4AD0FF;" d="M39.9,140v240h27.75V170h27.84v240h27.75V170h52.84v290c22.091,0,40-17.908,40-40V170H230v-30H39.9z
		"/>
	<path style="fill:#16A5D9;" d="M230,140v30h13.92v250c0,22.092,17.909,40,40,40V170h52.84v240h27.75V170h27.84v210h27.75V140H230z"
		/>
	<path style="fill:#4AD0FF;" d="M230,65.34V140h190.1c0-41.77-24.84-79.26-64.23-104.92c-6.99,3.75-14.3,7.2-21.93,10.34
		C302.23,58.45,266.29,65.34,230,65.34z"/>
	<path style="fill:#99E5FF;" d="M230,65.34c36.29,0,72.23-6.89,103.94-19.92c7.63-3.14,14.94-6.59,21.93-10.34
		c-10.2-6.64-21.37-12.49-33.34-17.41C295.15,28.93,263.59,35.34,230,35.34V65.34z"/>
	<path style="fill:#99E5FF;" d="M230,65.34c-36.29,0-72.23-6.89-103.94-19.92c-7.63-3.14-14.94-6.59-21.93-10.34
		C64.74,60.74,39.9,98.23,39.9,140H230V65.34z"/>
	<path style="fill:#FFFFFF;" d="M230,65.34v-30c-33.59,0-65.15-6.41-92.53-17.67c-11.97,4.92-23.14,10.771-33.34,17.41
		c6.99,3.75,14.3,7.2,21.93,10.34C157.77,58.45,193.71,65.34,230,65.34z"/>
</g>
<g>
</g>
<g>
</g>
<g>
</g>
<g>
</g>
<g>
</g>
<g>
</g>
<g>
</g>
<g>
</g>
<g>
</g>
<g>
</g>
<g>
</g>
<g>
</g>
<g>
</g>
<g>
</g>
<g>
</g>
</svg>
