<?xml version="1.0" encoding="iso-8859-1"?>
<!-- Generator: Adobe Illustrator 19.0.0, SVG Export Plug-In . SVG Version: 6.00 Build 0)  -->
<svg version="1.1" id="Capa_1" xmlns="http://www.w3.org/2000/svg" xmlns:xlink="http://www.w3.org/1999/xlink" x="0px" y="0px"
	 viewBox="0 0 460 460" style="enable-background:new 0 0 460 460;" xml:space="preserve">
<g>
	<path style="fill:#F6D76F;" d="M370.353,294.868v65.589h30V245.453C400.353,264.616,387.436,285.165,370.353,294.868z"/>
	<path style="fill:#F6D76F;" d="M412.078,30c0-16.499-13.501-30-30-30v62.026h30V30z"/>
	<path style="fill:#F6D76F;" d="M200.495,273.838c0-8.748,1.677-17.101,4.697-24.777H152.52c-0.025,0.083-0.045,0.167-0.07,0.25
		c-3.411,11.459-5.254,23.593-5.254,36.159c0,3.235,0,94.496,0,94.496c0,22.065-17.951,40.017-40.017,40.017H0V460h107.178
		c44.131,0,80.034-35.903,80.034-80.034c23.013,0,50.447,0,70.9,0v-39.154C225.504,335.93,200.495,307.807,200.495,273.838z"/>
	<path style="fill:#FBB071;" d="M213.253,249.061h-8.061c-3.02,7.677-4.697,16.029-4.697,24.777
		c0,33.969,25.009,62.092,57.617,66.974v39.154V460h142.24c0-16.499-13.501-30-30-30h-82.24v-91.408V337.5v-13.58
		C288.112,282.748,254.426,249.061,213.253,249.061z"/>
	<path style="fill:#FF835D;" d="M435.088,84.439l-23.01-22.413h-30h-14.436V30c0-16.499-13.501-30-30-30v88.808v0.858
		l-22.659,69.225h-41.209c-57.25,0-105.624,38.008-121.263,90.167c-0.025,0.083-0.038,0.168-0.061,0.252
		c0.024-0.083,0.045-0.167,0.07-0.25h52.672h8.061c41.173,0,74.86,33.687,74.86,74.86l52.163-17.87
		c-16.466-0.04-29.935-13.523-29.935-29.998v-58.808h30l0.006,58.83c0.003,0.001,30.007,0.001,30.007,0.001v18.792
		c17.083-9.704,30-30.252,30-49.416V124.457L460,114.453V84.439H435.088z"/>
	<path style="fill:#FBB071;" d="M340.349,276.076c-0.003-0.001-0.009-58.831-0.009-58.831h-30v58.808
		c0,16.475,13.469,29.958,29.935,29.998c0.025,0,0.049,0.002,0.073,0.002v54.702h30.004v-84.679H340.349z"/>
</g>
<g>
</g>
<g>
</g>
<g>
</g>
<g>
</g>
<g>
</g>
<g>
</g>
<g>
</g>
<g>
</g>
<g>
</g>
<g>
</g>
<g>
</g>
<g>
</g>
<g>
</g>
<g>
</g>
<g>
</g>
</svg>
