<?xml version="1.0" encoding="iso-8859-1"?>
<!-- Generator: Adobe Illustrator 19.0.0, SVG Export Plug-In . SVG Version: 6.00 Build 0)  -->
<svg version="1.1" id="Capa_1" xmlns="http://www.w3.org/2000/svg" xmlns:xlink="http://www.w3.org/1999/xlink" x="0px" y="0px"
	 viewBox="0 0 460 460" style="enable-background:new 0 0 460 460;" xml:space="preserve">
<g>
	<path style="fill:#05232E;" d="M155,335v85h70c0-16.568-13.431-30-30-30h-10v-55c-4.178,3.139-9.372,5-15,5
		S159.178,338.139,155,335z"/>
	<path style="fill:#C97E67;" d="M161.396,307.421c-5.358,1.054-10.83,1.802-16.396,2.21V315c0,8.179,3.928,15.439,10,20
		c4.178,3.139,9.372,5,15,5s10.822-1.861,15-5c6.072-4.561,10-11.822,10-20v-14.24L161.396,307.421z"/>
	<path style="fill:#8F5543;" d="M125,390h-10v-55c-4.178,3.139-9.372,5-15,5s-10.822-1.861-15-5v85h70
		C155,403.432,141.569,390,125,390z"/>
	<path style="fill:#C97E67;" d="M115,335c6.072-4.561,10-11.822,10-20v-5.369c3.302,0.242,6.636,0.369,10,0.369V40
		C60.442,40,0,100.441,0,175c0,53.004,30.551,98.865,75,120.956V315c0,8.179,3.928,15.439,10,20c4.178,3.139,9.372,5,15,5
		S110.822,338.139,115,335z M75,215h30v30H75V215z M65,205H35v-30h30V205z"/>
	<path style="fill:#05232E;" d="M367.708,240H460c0-16.568-13.431-30-30-30h-62.292c1.488,4.735,2.292,9.773,2.292,15
		S369.195,235.265,367.708,240z"/>
	<path style="fill:#8F5543;" d="M367.708,240c1.488-4.735,2.292-9.773,2.292-15s-0.805-10.265-2.292-15
		c-6.372-20.285-25.32-35-47.708-35h-50c0-74.559-60.442-135-135-135v270c3.364,0,6.698-0.127,10-0.369
		c5.566-0.408,11.038-1.156,16.396-2.218c0,0.008,33.604-6.653,33.604-6.653l134.776-26.715
		C347.77,270.471,362.288,257.253,367.708,240z M165,105h30v30h-30V105z"/>
	<rect x="35" y="175" style="fill:#8F5543;" width="30" height="30"/>
	<rect x="75" y="215" style="fill:#8F5543;" width="30" height="30"/>
	<rect x="165" y="105" style="fill:#C97E67;" width="30" height="30"/>
</g>
<g>
</g>
<g>
</g>
<g>
</g>
<g>
</g>
<g>
</g>
<g>
</g>
<g>
</g>
<g>
</g>
<g>
</g>
<g>
</g>
<g>
</g>
<g>
</g>
<g>
</g>
<g>
</g>
<g>
</g>
</svg>
