<?xml version="1.0" encoding="iso-8859-1"?>
<!-- Generator: Adobe Illustrator 19.0.0, SVG Export Plug-In . SVG Version: 6.00 Build 0)  -->
<svg version="1.1" id="Capa_1" xmlns="http://www.w3.org/2000/svg" xmlns:xlink="http://www.w3.org/1999/xlink" x="0px" y="0px"
	 viewBox="0 0 460 460" style="enable-background:new 0 0 460 460;" xml:space="preserve">
<g>
	<path style="fill:#325763;" d="M390,235c0-8.284-6.716-15-15-15s-15,6.716-15,15v15h30V235z"/>
	<path style="fill:#05232E;" d="M420,250v-15c0-8.284-6.716-15-15-15s-15,6.716-15,15v15H420z"/>
	<polygon style="fill:#F6D76F;" points="420,250 390,250 390,320 430,302.857 430,270 	"/>
	<polygon style="fill:#05232E;" points="430,270 430,302.857 460,290 460,270 	"/>
	<path style="fill:#05232E;" d="M337.472,250C351.646,269.703,360,293.875,360,320h30v-70H337.472z"/>
	<path style="fill:#05232E;" d="M250,400c0,22.091,17.909,40,40,40h20c0-11.046-8.954-20-20-20V320h-40V400z"/>
	<path style="fill:#6B8F9C;" d="M120,290H90c0,16.568,13.431,30,30,30c0-10.359,1.313-20.411,3.781-30H120z"/>
	<rect x="90" y="110" style="fill:#6B8F9C;" width="30" height="30"/>
	<rect x="90" y="170" style="fill:#6B8F9C;" width="30" height="30"/>
	<rect x="90" y="230" style="fill:#6B8F9C;" width="30" height="30"/>
	<path style="fill:#325763;" d="M120,80c0-33.137-26.863-60-60-60v30c16.569,0,30,13.432,30,30H120z"/>
	<path style="fill:#05232E;" d="M60,20C26.863,20,0,46.863,0,80c0,8.284,6.716,15,15,15s15-6.716,15-15c0-16.568,13.431-30,30-30V20
		z"/>
	<rect x="90" y="260" style="fill:#05232E;" width="30" height="30"/>
	<rect x="90" y="200" style="fill:#05232E;" width="30" height="30"/>
	<rect x="90" y="140" style="fill:#05232E;" width="30" height="30"/>
	<rect x="90" y="80" style="fill:#05232E;" width="30" height="30"/>
	<path style="fill:#325763;" d="M240,200c-30.439,0-58.225,11.339-79.38,30.016c-0.207-0.002-0.412-0.016-0.62-0.016l-0.09,0.646
		c-17.346,15.558-30.141,36.088-36.13,59.354c-2.468,9.589-3.781,19.641-3.781,30v80c0,22.091,17.909,40,40,40h20
		c0-11.046-8.954-20-20-20v-70c22.205,0,41.577-12.071,51.953-30c5.108-8.827,8.047-19.067,8.047-30h70c16.569,0,30,13.432,30,30v80
		c0,22.091,17.909,40,40,40h20c0-11.046-8.954-20-20-20V320c0-26.125-8.354-50.297-22.528-70C315.688,219.721,280.149,200,240,200z"
		/>
	<path style="fill:#F6D76F;" d="M290,290h-70c0,10.933-2.938,21.173-8.047,30H320C320,303.432,306.569,290,290,290z"/>
</g>
<g>
</g>
<g>
</g>
<g>
</g>
<g>
</g>
<g>
</g>
<g>
</g>
<g>
</g>
<g>
</g>
<g>
</g>
<g>
</g>
<g>
</g>
<g>
</g>
<g>
</g>
<g>
</g>
<g>
</g>
</svg>
