<?xml version="1.0" encoding="iso-8859-1"?>
<!-- Generator: Adobe Illustrator 19.0.0, SVG Export Plug-In . SVG Version: 6.00 Build 0)  -->
<svg version="1.1" id="Capa_1" xmlns="http://www.w3.org/2000/svg" xmlns:xlink="http://www.w3.org/1999/xlink" x="0px" y="0px"
	 viewBox="0 0 460 460" style="enable-background:new 0 0 460 460;" xml:space="preserve">
<g>
	<path style="fill:#325763;" d="M382.5,40v20h10c16.568,0,30-13.432,30-30V0h-30v20h-30v27.645C367.808,42.893,374.815,40,382.5,40z
		"/>
	<path style="fill:#325763;" d="M52.5,200c-16.568,0-30,13.432-30,30v40c16.567,0,30-13.433,30-30c0-15.333,5.834-29.364,15.385-40
		H52.5z"/>
	<path style="fill:#6B8F9C;" d="M362.5,47.645V80h20V40C374.815,40,367.808,42.893,362.5,47.645z"/>
	<path style="fill:#05232E;" d="M342.5,40v40h20V0h-30v20h-30V0h-30v20h-30V0h-30v30c0,16.568,13.432,30,30,30h71.714
		C318.333,48.35,329.439,40,342.5,40z"/>
	<path style="fill:#05232E;" d="M282.5,460h30V309.563c-9.263,5.931-19.332,10.71-30,14.157V460z"/>
	<path style="fill:#05232E;" d="M146.474,294.622c-16.001,20.125-38.326,34.996-63.974,41.597V460h30V340
		c29.915,0,57.273-10.946,78.287-29.052L146.474,294.622z"/>
	<path style="fill:#6B8F9C;" d="M146.474,294.622C162.763,274.136,172.5,248.207,172.5,220v-40h-60c-17.668,0-33.61,7.744-44.615,20
		C58.334,210.636,52.5,224.667,52.5,240v72.5h-30V430h30v-90c10.359,0,20.411-1.313,30-3.781
		C108.148,329.618,130.473,314.747,146.474,294.622z"/>
	<rect x="22.5" y="430" style="fill:#325763;" width="30" height="30"/>
	<path style="fill:#6B8F9C;" d="M342.5,200c0,51.764-39.54,94.467-90,99.503v30.118c10.391-0.791,20.436-2.811,30-5.901
		c10.668-3.447,20.737-8.227,30-14.157c36.083-23.102,60-63.539,60-109.563v-72.632l-30,6.316V200z"/>
	<path style="fill:#6B8F9C;" d="M222.5,291.534c-13.482-1.624-26.812,6.114-31.713,19.415l31.713,11.684V291.534z"/>
	<rect x="222.5" y="430" style="fill:#05232E;" width="30" height="30"/>
	<path style="fill:#325763;" d="M407.5,80h-65V40c-13.061,0-24.167,8.35-28.286,20c-1.106,3.128-1.714,6.493-1.714,10v10l-20,60h-40
		l-80,40v40c0,28.207-9.737,54.136-26.026,74.622l44.313,16.326c4.901-13.301,18.23-21.038,31.713-19.415V430h30V299.503
		c50.46-5.036,90-47.739,90-99.503v-66.316l30-6.316l9.264-1.95C387.008,134.153,396.57,140,407.5,140c16.569,0,30-13.432,30-30
		S424.069,80,407.5,80z"/>
</g>
<g>
</g>
<g>
</g>
<g>
</g>
<g>
</g>
<g>
</g>
<g>
</g>
<g>
</g>
<g>
</g>
<g>
</g>
<g>
</g>
<g>
</g>
<g>
</g>
<g>
</g>
<g>
</g>
<g>
</g>
</svg>
