<?xml version="1.0" encoding="iso-8859-1"?>
<!-- Generator: Adobe Illustrator 19.0.0, SVG Export Plug-In . SVG Version: 6.00 Build 0)  -->
<svg version="1.1" id="Capa_1" xmlns="http://www.w3.org/2000/svg" xmlns:xlink="http://www.w3.org/1999/xlink" x="0px" y="0px"
	 viewBox="0 0 460 460" style="enable-background:new 0 0 460 460;" xml:space="preserve">
<g>
	<path style="fill:#FF835D;" d="M125,430c41.355,0,75-33.645,75-75v-84h-30v84c0,24.813-20.187,45-45,45s-45-20.187-45-45v-71.752
		H50V355C50,396.355,83.645,430,125,430z"/>
	<path style="fill:#FB5858;" d="M335,400c-24.813,0-45-20.187-45-45v-84h-30v84c0,41.355,33.645,75,75,75s75-33.645,75-75v-71.752
		h-30V355C380,379.813,359.813,400,335,400z"/>
	<path style="fill:#AA3E51;" d="M360,235.138c0-19.806-16.056-35.862-35.862-35.862V271C343.944,271,360,254.944,360,235.138z"/>
	<path style="fill:#F72349;" d="M100,235.138C100,254.944,116.056,271,135.862,271v-71.725C116.056,199.275,100,215.332,100,235.138
		z"/>
	<path style="fill:#FB5858;" d="M230,0c-51.991,0-94.138,42.146-94.138,94.138h30v30h-30V271H140v84c0,8.271-6.729,15-15,15
		s-15-6.729-15-15v-31.752H80V355c0,24.813,20.187,45,45,45s45-20.187,45-45v-84h30v84c0,41.355-33.645,75-75,75s-75-33.645-75-75
		v-31.752H20V355c0,57.897,47.103,105,105,105s105-47.103,105-105V0z M170,150h30v30h-30V150z"/>
	<rect x="135.862" y="94.138" style="fill:#F72349;" width="30" height="30"/>
	<rect x="170" y="150" style="fill:#F72349;" width="30" height="30"/>
	<path style="fill:#F72349;" d="M410,323.248V355c0,41.355-33.645,75-75,75s-75-33.645-75-75v-84h30v84c0,24.813,20.187,45,45,45
		s45-20.187,45-45v-31.752h-30V355c0,8.271-6.729,15-15,15s-15-6.729-15-15v-84h4.138V94.138C324.138,42.146,281.991,0,230,0v355
		c0,57.897,47.103,105,105,105s105-47.103,105-105v-31.752H410z"/>
</g>
<g>
</g>
<g>
</g>
<g>
</g>
<g>
</g>
<g>
</g>
<g>
</g>
<g>
</g>
<g>
</g>
<g>
</g>
<g>
</g>
<g>
</g>
<g>
</g>
<g>
</g>
<g>
</g>
<g>
</g>
</svg>
