<?xml version="1.0" encoding="iso-8859-1"?>
<!-- Generator: Adobe Illustrator 19.0.0, SVG Export Plug-In . SVG Version: 6.00 Build 0)  -->
<svg version="1.1" id="Capa_1" xmlns="http://www.w3.org/2000/svg" xmlns:xlink="http://www.w3.org/1999/xlink" x="0px" y="0px"
	 viewBox="0 0 460 460" style="enable-background:new 0 0 460 460;" xml:space="preserve">
<g>
	<path style="fill:#AA3E51;" d="M106.316,417.071c19.526,19.526,51.184,19.526,70.711,0l25.617-25.617
		c-17.798-4.584-34.632-11.563-50.149-20.562L106.316,417.071z"/>
	<path style="fill:#F72349;" d="M412.69,10.709C412.679,10.729,412.679,30,412.679,30c0,44.184-35.817,80-80,80v67.841
		c12.125,3.702,23.547,10.335,33.137,19.925c31.242,31.242,31.242,81.895,0,113.137c-24.561,24.562-55.12,39.462-86.962,44.714
		c-36.83,6.075-75.371-0.768-108.336-20.523c-11.041-6.616-21.46-14.674-30.974-24.188l-28.283,28.284L7.321,445.355
		c19.526,19.525,51.184,19.525,70.711,0l74.462-74.463c15.518,8.999,32.352,15.978,50.15,20.562
		c15.992,4.119,32.758,6.311,50.036,6.311c110.457,0,200-89.543,200-200V80C452.679,50.393,436.596,24.543,412.69,10.709z"/>
	<path style="fill:#FAE8AC;" d="M412.679,30V10.729C400.906,3.917,387.254,0,372.679,0h-40v110
		C376.862,110,412.679,74.184,412.679,30z"/>
	<path style="fill:#05232E;" d="M272.679,60h60V0C299.542,0,272.679,26.863,272.679,60z"/>
	<path style="fill:#F72349;" d="M252.679,197.765l-8.425,8.426L252.679,197.765z"/>
	<path style="fill:#FB5858;" d="M365.816,310.902c31.242-31.242,31.242-81.895,0-113.137c-9.59-9.59-21.012-16.223-33.137-19.925
		c-27.376-8.359-58.347-1.728-80,19.924C252.679,197.766,365.816,310.902,365.816,310.902z"/>
	<path style="fill:#F6D76F;" d="M344.602,289.69l21.213,21.213c0.001-0.001-113.136-113.138-113.136-113.138l-8.425,8.425
		L139.542,310.902c0.001,0.001,21.213-21.212,21.213-21.212C211.442,340.376,293.916,340.375,344.602,289.69z"/>
	<path style="fill:#F6D76F;" d="M170.518,335.093c32.965,19.756,71.506,26.599,108.336,20.523
		C242.024,361.691,203.483,354.849,170.518,335.093z"/>
	<path style="fill:#16A5D9;" d="M278.854,355.616c31.841-5.252,62.401-20.152,86.961-44.713c0,0-21.213-21.213-21.213-21.213
		c-50.687,50.685-133.161,50.686-183.848,0l-21.212,21.213c9.516,9.516,19.935,17.573,30.976,24.189
		C203.483,354.849,242.024,361.691,278.854,355.616z"/>
</g>
<g>
</g>
<g>
</g>
<g>
</g>
<g>
</g>
<g>
</g>
<g>
</g>
<g>
</g>
<g>
</g>
<g>
</g>
<g>
</g>
<g>
</g>
<g>
</g>
<g>
</g>
<g>
</g>
<g>
</g>
</svg>
