<?xml version="1.0" encoding="iso-8859-1"?>
<!-- Generator: Adobe Illustrator 19.0.0, SVG Export Plug-In . SVG Version: 6.00 Build 0)  -->
<svg version="1.1" id="Capa_1" xmlns="http://www.w3.org/2000/svg" xmlns:xlink="http://www.w3.org/1999/xlink" x="0px" y="0px"
	 viewBox="0 0 460 460" style="enable-background:new 0 0 460 460;" xml:space="preserve">
<g>
	<path style="fill:#F6D76F;" d="M390,0c-27.614,0-50,22.386-50,50v90h50V0z"/>
	<path style="fill:#FAEAB6;" d="M320,140V0c-27.614,0-50,22.386-50,50v150l-90,60c55.229,0,100,44.771,100,100
		c0,22.513-7.441,43.287-19.996,60h8.611c71.703-45.279,119.731-124.647,121.326-215.342C410.781,195.232,425,174.313,425,150v-10
		H320z"/>
	<path style="fill:#FAEAB6;" d="M81.094,374.688C76.442,371.724,70.924,370,65,370c-16.569,0-30,13.431-30,30
		c0,33.137,26.863,60,60,60c1.688,0,3.355-0.087,5.008-0.224c0-3.177,0-39.776,0.003-39.776
		C90.237,406.992,83.576,391.521,81.094,374.688z"/>
	<path style="fill:#F6D76F;" d="M280,360c0-55.229-44.771-100-100-100S80,304.771,80,360c0,4.992,0.386,9.892,1.094,14.688
		c2.482,16.833,9.143,32.304,18.917,45.313c-0.003,0-0.003,36.599-0.003,39.776c0,0.144,0,0.224,0,0.224H310
		c0-22.091-17.909-40-40-40h-9.996C272.559,403.287,280,382.513,280,360z M150,400h30v30h-30V400z M110,360h30v30h-30V360z"/>
	<rect x="110" y="360" style="fill:#FAE8AC;" width="30" height="30"/>
	<rect x="150" y="400" style="fill:#FAE8AC;" width="30" height="30"/>
</g>
<g>
</g>
<g>
</g>
<g>
</g>
<g>
</g>
<g>
</g>
<g>
</g>
<g>
</g>
<g>
</g>
<g>
</g>
<g>
</g>
<g>
</g>
<g>
</g>
<g>
</g>
<g>
</g>
<g>
</g>
</svg>
