<?xml version="1.0" encoding="iso-8859-1"?>
<!-- Generator: Adobe Illustrator 19.0.0, SVG Export Plug-In . SVG Version: 6.00 Build 0)  -->
<svg version="1.1" id="Capa_1" xmlns="http://www.w3.org/2000/svg" xmlns:xlink="http://www.w3.org/1999/xlink" x="0px" y="0px"
	 viewBox="0 0 460 460" style="enable-background:new 0 0 460 460;" xml:space="preserve">
<g>
	<path style="fill:#FBB071;" d="M30,290c0-10.222,0.857-20.244,2.494-30H30c-16.568,0-30,13.432-30,30v30c0,16.568,13.432,30,30,30
		h170c16.569,0,30-13.432,30-30H30V290z"/>
	<path style="fill:#05232E;" d="M430,200c0-11.046-8.954-20-20-20s-20,8.954-20,20v4.551c16.083,13.125,31.167,25.433,40,32.642V200
		z"/>
	<path style="fill:#325763;" d="M225.419,260h75.841c4.44-17.252,20.101-30,38.74-30v-30c0-11.018,8.911-19.951,19.918-19.996
		c-20.106-16.407-36.196-29.536-36.196-29.536C292.715,125.178,253.132,110,210,110c-62.132,0-116.912,31.48-149.259,79.36
		c0.221,0.215,0.428,0.425,0.647,0.64H130C174.776,190,212.676,219.43,225.419,260z"/>
	<path style="fill:#325763;" d="M438.039,243.753c0,0-3.012-2.458-8.039-6.56c-8.833-7.208-23.917-19.517-40-32.642
		c-3.436-2.804-6.915-5.643-10.391-8.479c0.253,1.271,0.391,2.583,0.391,3.928v30h-40v30c0,16.568,13.431,30,30,30h90
		C460,271.389,451.525,254.758,438.039,243.753z"/>
	<path style="fill:#6B8F9C;" d="M340,260v-30c-18.638,0-34.299,12.748-38.74,30h-75.841c2.975,9.471,4.581,19.547,4.581,30h140
		C353.431,290,340,276.568,340,260z"/>
	<path style="fill:#05232E;" d="M130,190H60.32c-13.858,20.702-23.535,44.438-27.826,70C30.857,269.756,30,279.778,30,290h200
		c0-10.453-1.606-20.529-4.581-30C212.676,219.43,174.776,190,130,190z"/>
	<path style="fill:#05232E;" d="M340,200v30h40v-30c0-1.345-0.137-2.657-0.391-3.928C377.784,186.908,369.701,180,360,180
		c-0.028,0-0.054,0.004-0.082,0.004C348.911,180.049,340,188.982,340,200z"/>
</g>
<g>
</g>
<g>
</g>
<g>
</g>
<g>
</g>
<g>
</g>
<g>
</g>
<g>
</g>
<g>
</g>
<g>
</g>
<g>
</g>
<g>
</g>
<g>
</g>
<g>
</g>
<g>
</g>
<g>
</g>
</svg>
