<?xml version="1.0" encoding="iso-8859-1"?>
<!-- Generator: Adobe Illustrator 19.0.0, SVG Export Plug-In . SVG Version: 6.00 Build 0)  -->
<svg version="1.1" id="Capa_1" xmlns="http://www.w3.org/2000/svg" xmlns:xlink="http://www.w3.org/1999/xlink" x="0px" y="0px"
	 viewBox="0 0 460 460" style="enable-background:new 0 0 460 460;" xml:space="preserve">
<g>
	<path style="fill:#FB5858;" d="M255.107,395c11.165,29.231,39.453,50,72.607,50v-49.185c-0.107-0.271-0.217-0.542-0.321-0.815
		H255.107z"/>
	<path style="fill:#F6D76F;" d="M440,265l0-5.833c0-22.091-17.909-40-40-40V285l0-20H440z"/>
	<path style="fill:#FB5858;" d="M380,259.167c0-22.091-17.909-40-40-40V265h40V259.167z"/>
	<path style="fill:#FBB071;" d="M450,285l-10-20l-40,0v87.5l43.04-26.9c9.328-5.83,16.96-17.35,16.96-25.6s0-15,0-15H450z"/>
	<path style="fill:#F6D76F;" d="M55,5v60h55v-5C110,29.62,85.38,5,55,5z"/>
	<path style="fill:#FAE8AC;" d="M55,5C24.62,5,0,29.62,0,60v5h55V5z"/>
	<rect x="55" y="238.33" style="fill:#FBB071;" width="55" height="26.67"/>
	<rect x="55" y="198.33" style="fill:#FB5858;" width="55" height="40"/>
	<rect x="55" y="171.67" style="fill:#FBB071;" width="55" height="26.66"/>
	<rect x="55" y="131.67" style="fill:#FB5858;" width="55" height="40"/>
	<rect x="55" y="105" style="fill:#FBB071;" width="55" height="26.67"/>
	<rect x="55" y="65" style="fill:#FB5858;" width="55" height="40"/>
	<path style="fill:#FF835D;" d="M25.15,265c8.34,10.1,18.45,18.69,29.85,25.28V265H25.15z"/>
	<path style="fill:#F6D76F;" d="M55,238.33H8.86c4.16,9.69,9.66,18.66,16.29,26.67H55V238.33z"/>
	<path style="fill:#FF835D;" d="M55,198.33H0.06c0.41,14.17,3.51,27.67,8.8,40H55V198.33z"/>
	<path style="fill:#F6D76F;" d="M55,171.67H0V195c0,1.11,0.02,2.22,0.06,3.33H55V171.67z"/>
	<rect y="131.67" style="fill:#FF835D;" width="55" height="40"/>
	<rect y="105" style="fill:#F6D76F;" width="55" height="26.67"/>
	<rect y="65" style="fill:#FF835D;" width="55" height="40"/>
	<path style="fill:#FF835D;" d="M187.714,265v112.286c0,6.097-0.725,12.022-2.052,17.714h141.731
		c0.104,0.273,0.214,0.543,0.321,0.815C339.091,424.615,367.156,445,400,445V265H187.714z M247.714,325h-30v-30h30V325z
		 M287.714,365h-30v-30h30V365z"/>
	<path style="fill:#FB5858;" d="M55,265v25.28C71.18,299.64,89.96,305,110,305v150c36.823,0,67.642-25.619,75.662-60
		c1.328-5.693,2.052-11.617,2.052-17.714V265H55z"/>
	<rect x="217.714" y="295" style="fill:#FB5858;" width="30" height="30"/>
	<rect x="257.714" y="335" style="fill:#FB5858;" width="30" height="30"/>
</g>
<g>
</g>
<g>
</g>
<g>
</g>
<g>
</g>
<g>
</g>
<g>
</g>
<g>
</g>
<g>
</g>
<g>
</g>
<g>
</g>
<g>
</g>
<g>
</g>
<g>
</g>
<g>
</g>
<g>
</g>
</svg>
