<?xml version="1.0" encoding="iso-8859-1"?>
<!-- Generator: Adobe Illustrator 19.0.0, SVG Export Plug-In . SVG Version: 6.00 Build 0)  -->
<svg version="1.1" id="Capa_1" xmlns="http://www.w3.org/2000/svg" xmlns:xlink="http://www.w3.org/1999/xlink" x="0px" y="0px"
	 viewBox="0 0 460 460" style="enable-background:new 0 0 460 460;" xml:space="preserve">
<g>
	<polygon points="187.72,117.211 187.72,97.206 157.72,97.206 157.72,117.206 59.323,117.206 59.323,147.206 157.72,147.206 
		157.72,175.603 157.72,117.211 	"/>
	<polygon points="246.92,117.211 246.92,147.206 345.317,147.206 345.317,117.206 246.92,117.206 246.92,97.206 216.92,97.206 
		216.92,117.211 	"/>
	<rect x="246.92" y="177.206" width="78.396" height="30"/>
	<polygon points="295.316,257.206 295.316,305.603 325.316,305.603 325.316,227.206 246.92,227.206 246.92,257.206 	"/>
	<rect x="79.323" y="177.206" width="78.396" height="30"/>
	<polygon points="79.323,227.206 79.323,305.603 109.323,305.603 109.323,257.206 157.72,257.206 157.72,227.206 	"/>
	<path d="M360.68,350.82c0,38.146-31.034,69.18-69.181,69.18c-38.146,0-69.18-31.034-69.18-69.18v-4.738
		c-6.017,3.025-12.807,4.739-20,4.739c-7.193,0-13.983-1.714-20-4.739v4.738c0,60.202,48.978,109.18,109.18,109.18
		S400.68,411.022,400.68,350.82H360.68z"/>
	<path style="fill:#325763;" d="M400.677,350.82v-94c-16.565,0-29.997,13.431-30,30l0.001,23.23c-5.499,0.001-9.998,4.5-9.998,9.999
		v30.771H400.677z"/>
	<path style="fill:#05232E;" d="M202.32,194.041v156.78c7.193,0,13.983-1.714,20-4.739c14.585-7.333,24.6-22.424,24.6-39.861
		v-112.18H202.32z"/>
	<rect x="202.32" y="117.211" style="fill:#325763;" width="44.6" height="76.83"/>
	<path style="fill:#325763;" d="M202.32,194.041h-44.6v112.18c0,17.437,10.015,32.527,24.6,39.861
		c6.017,3.025,12.807,4.739,20,4.739V194.041z"/>
	<rect x="157.72" y="117.211" style="fill:#6B8F9C;" width="44.6" height="76.83"/>
	<path style="fill:#325763;" d="M295.32,57.206V0c-16.565,0-29.997,13.432-30,30v27.206H295.32z"/>
	<path style="fill:#05232E;" d="M285.32,87.206c0,16.572,13.431,30.004,30,30c16.565,0,29.997,0,29.997,0L345.32,30
		c-0.003-16.568-13.435-30-30-30v57.206h-30V87.206z"/>
	<path style="fill:#325763;" d="M139.32,57.206V30c-0.003-16.568-13.435-30-30-30v57.206H139.32z"/>
	<path style="fill:#05232E;" d="M119.32,87.206v-30h-30V0c-16.565,0-29.997,13.432-30,30l0.003,87.206H89.32
		C105.888,117.21,119.32,103.778,119.32,87.206z"/>
</g>
<g>
</g>
<g>
</g>
<g>
</g>
<g>
</g>
<g>
</g>
<g>
</g>
<g>
</g>
<g>
</g>
<g>
</g>
<g>
</g>
<g>
</g>
<g>
</g>
<g>
</g>
<g>
</g>
<g>
</g>
</svg>
