<?xml version="1.0" encoding="iso-8859-1"?>
<!-- Generator: Adobe Illustrator 19.0.0, SVG Export Plug-In . SVG Version: 6.00 Build 0)  -->
<svg version="1.1" id="Capa_1" xmlns="http://www.w3.org/2000/svg" xmlns:xlink="http://www.w3.org/1999/xlink" x="0px" y="0px"
	 viewBox="0 0 460 460" style="enable-background:new 0 0 460 460;" xml:space="preserve">
<g>
	<path style="fill:#325763;" d="M0,381.211h105.652c22.092,0,40-17.909,40-40h-110C13.561,341.211,0,359.119,0,381.211z"/>
	<path style="fill:#6B8F9C;" d="M420,341.211h-10v-100c0,0-0.083,0.115-0.24,0.326v21.124c0,41.573-32.741,75.859-73.716,78.385
		v0.166h10.978c22.092,0,40,17.909,40,40H460C460,359.12,442.092,341.211,420,341.211z"/>
	<path style="fill:#325763;" d="M289.196,291.211c26.305,0,46.849,0,46.849,0v49.834c40.975-2.526,73.716-36.812,73.716-78.385
		V138.698c31.218-1.693,50.24-27.866,50.24-59.909h-75c0,0.001-5.79,0.002-5.79,0.002c-43.21,0-84.35,34.87-91.44,77.49
		c0,0-2.17,13.09-4.83,29.09c-2.66,16-21.37,29.09-41.57,29.09v126.69C241.403,313.678,262.911,291.211,289.196,291.211z
		 M350,232.211h30v30h-30V232.211z M310,192.211h30v30h-30V192.211z"/>
	<path style="fill:#6B8F9C;" d="M65,341.021l176.37,0.13v-126.69c-20.2,0-49.81,0-49.81,0C121.66,214.461,65,271.121,65,341.021z
		 M175,311.151h-30v-30h30V311.151z"/>
	<rect x="310" y="192.211" style="fill:#6B8F9C;" width="30" height="30"/>
	<rect x="350" y="232.211" style="fill:#6B8F9C;" width="30" height="30"/>
	<rect x="145" y="281.151" style="fill:#325763;" width="30" height="30"/>
	<path style="fill:#05232E;" d="M347.022,341.211h-10.978v-50c0,0-20.544,0-46.849,0c-26.285,0-47.792,22.467-47.824,49.94
		c0,0.02-0.001,0.04-0.001,0.06c0,22.092,13.56,40,35.652,40h110C387.022,359.12,369.114,341.211,347.022,341.211z"/>
</g>
<g>
</g>
<g>
</g>
<g>
</g>
<g>
</g>
<g>
</g>
<g>
</g>
<g>
</g>
<g>
</g>
<g>
</g>
<g>
</g>
<g>
</g>
<g>
</g>
<g>
</g>
<g>
</g>
<g>
</g>
</svg>
