<?xml version="1.0" encoding="iso-8859-1"?>
<!-- Generator: Adobe Illustrator 19.0.0, SVG Export Plug-In . SVG Version: 6.00 Build 0)  -->
<svg version="1.1" id="Capa_1" xmlns="http://www.w3.org/2000/svg" xmlns:xlink="http://www.w3.org/1999/xlink" x="0px" y="0px"
	 viewBox="0 0 460 460" style="enable-background:new 0 0 460 460;" xml:space="preserve">
<g>
	<path style="fill:#05232E;" d="M93.66,350c-0.001,0-0.001,110-0.001,110c43.265,0,79.096-31.823,85.367-73.339L93.66,380V350z"/>
	<polygon style="fill:#325763;" points="244.543,331.202 93.66,321.228 93.66,380 179.026,386.661 244.543,391.773 	"/>
	<path style="fill:#05232E;" d="M430,231.95L420,220h-23.659v33.658c-9.294,0-16.829-7.535-16.829-16.829S387.047,220,396.341,220
		H371.23c-16.5,0-35.02,12.53-41.16,27.85l-10.84,27.06c-0.006,0.005-4.98,12.414-4.98,12.414
		c-10.137,25.291-38.511,44.005-65.839,44.005c-1.293,0-2.582-0.042-3.868-0.127v60.571L280,394.539V410c0,27.614,22.386,50,50,50
		h21.902c0-11.046-8.954-20-20-20H330v-41.561l20,1.56v10c0,27.614,22.386,50,50,50h21.902c0-11.046-8.954-20-20-20H400V286.78
		l32.37-17.34C442.07,264.25,450,251,450,240v-8.05H430z"/>
	<path style="fill:#325763;" d="M379.512,236.829c0,9.294,7.535,16.829,16.829,16.829V220
		C387.047,220,379.512,227.535,379.512,236.829z"/>
	<path style="fill:#325763;" d="M10,83.66v153.908c0,35.63,22.28,66.07,53.67,78.12V83.66H10z"/>
	<path style="fill:#F6D76F;" d="M93.66,83.66C93.66,37.46,56.2,0,10,0v83.66H93.66z"/>
	<path style="fill:#05232E;" d="M93.682,291.164l152.84,10.103c15.457,1.023,34.111-10.708,39.882-25.104l1.327-3.311
		C287.73,272.85,93.66,260,93.66,260S93.66,291.16,93.682,291.164z"/>
	<path style="fill:#FAE8AC;" d="M287.735,272.853c-0.005,0-1.332,3.311-1.332,3.311c-5.771,14.396-24.425,26.127-39.882,25.104
		l-152.84-10.103C93.66,291.163,93.66,83.66,93.66,83.66H63.67v232.028c9.31,3.58,19.42,5.54,29.99,5.54l150.883,9.974
		c1.286,0.085,2.575,0.127,3.868,0.127c27.328,0,55.702-18.714,65.839-44.005l4.974-12.41
		C319.225,274.911,287.735,272.853,287.735,272.853z"/>
</g>
<g>
</g>
<g>
</g>
<g>
</g>
<g>
</g>
<g>
</g>
<g>
</g>
<g>
</g>
<g>
</g>
<g>
</g>
<g>
</g>
<g>
</g>
<g>
</g>
<g>
</g>
<g>
</g>
<g>
</g>
</svg>
