<?xml version="1.0" encoding="iso-8859-1"?>
<!-- Generator: Adobe Illustrator 19.0.0, SVG Export Plug-In . SVG Version: 6.00 Build 0)  -->
<svg version="1.1" id="Capa_1" xmlns="http://www.w3.org/2000/svg" xmlns:xlink="http://www.w3.org/1999/xlink" x="0px" y="0px"
	 viewBox="0 0 460 460" style="enable-background:new 0 0 460 460;" xml:space="preserve">
<g>
	<path style="fill:#05232E;" d="M319.438,142.706l89.271-15.741l-30-25.174l-67.536,11.908l44.56-25.727l-30-17.32l-48.921,28.245
		c-2.213-2.335-4.597-4.503-7.135-6.487V45.703h-29.757v33.801c-3.234-0.499-6.546-0.76-9.919-0.76v129
		c18.385,0,34.961-7.706,46.71-20.048c0.034-0.035,0.068-0.07,0.101-0.105l2.213,1.277c2.695,1.406,5.323,2.923,7.876,4.547
		l90.425,52.207V460h1.383V335.057h28.617V228.302l-98.838-57.063L430,192.664v106.472h30V167.49L319.438,142.706z"/>
	<path style="fill:#05232E;" d="M183.189,187.591c-10.956-11.561-17.689-27.163-17.689-44.347c0-17.185,6.733-32.786,17.688-44.347
		l-48.922-28.245l-30,17.32l44.56,25.727l-67.536-11.908l-30,25.174l89.271,15.741L0,167.49v131.646h30V192.664l121.512-21.426
		l-98.838,57.063v106.755h30v-89.435l90.419-52.203c2.557-1.627,5.189-3.146,7.888-4.554L183.189,187.591z"/>
	<path style="fill:#05232E;" d="M220.081,45.703h-29.757V92.41c8.478-6.626,18.644-11.19,29.757-12.906V45.703z"/>
	<path style="fill:#FDF3D3;" d="M215.121,388.074V460h29.757v-71.926c-4.863,0.683-9.828,1.043-14.879,1.043
		C224.949,389.117,219.984,388.757,215.121,388.074z"/>
	<path style="fill:#6B8F9C;" d="M230,268h-14.997v-30H230v-30.256c-18.385,0-34.961-7.706-46.71-20.048
		c-0.775,0.381-1.544,0.771-2.308,1.169c-2.699,1.408-5.331,2.927-7.888,4.554c-29.584,18.833-49.211,51.913-49.211,89.581
		c0,53.557,39.677,97.839,91.239,105.074c4.862,0.683,9.828,1.043,14.878,1.043V268z M215,328h-30v-30h30V328z"/>
	<path style="fill:#325763;" d="M276.71,187.696c-11.749,12.342-28.325,20.048-46.71,20.048V238h15.003v30H230v121.117
		c5.051,0,10.016-0.36,14.879-1.043c51.562-7.236,91.239-51.518,91.239-105.074c0-37.67-19.63-70.753-49.217-89.585
		c-2.553-1.624-5.181-3.141-7.876-4.547C278.258,188.469,277.487,188.078,276.71,187.696z M275,328h-30v-30h30V328z"/>
	<rect x="215.003" y="238" style="fill:#05232E;" width="30" height="30"/>
	<rect x="245" y="298" style="fill:#05232E;" width="30" height="30"/>
	<rect x="185" y="298" style="fill:#325763;" width="30" height="30"/>
	<path style="fill:#325763;" d="M165.5,143.244c0,17.184,6.733,32.786,17.689,44.347c0.033,0.035,0.067,0.07,0.101,0.105
		c11.749,12.342,28.325,20.048,46.71,20.048v-129c-3.373,0-6.686,0.261-9.919,0.76c-11.114,1.716-21.28,6.28-29.757,12.906
		c-2.538,1.984-4.922,4.152-7.135,6.487C172.233,110.458,165.5,126.06,165.5,143.244z"/>
	<polygon style="fill:#325763;" points="81.291,0 51.291,0 51.291,126.965 81.291,101.791 	"/>
	<polygon style="fill:#325763;" points="408.708,0 378.708,0 378.708,101.791 408.708,126.965 	"/>
	<polygon style="fill:#325763;" points="134.267,0 104.267,0 104.267,87.973 134.267,70.652 	"/>
	<polygon style="fill:#325763;" points="355.732,0 325.732,0 325.732,70.652 355.732,87.973 	"/>
	<rect x="52.675" y="335.057" style="fill:#325763;" width="30" height="124.943"/>
	<rect x="378.708" y="335.057" style="fill:#325763;" width="28.617" height="124.943"/>
</g>
<g>
</g>
<g>
</g>
<g>
</g>
<g>
</g>
<g>
</g>
<g>
</g>
<g>
</g>
<g>
</g>
<g>
</g>
<g>
</g>
<g>
</g>
<g>
</g>
<g>
</g>
<g>
</g>
<g>
</g>
</svg>
