<?xml version="1.0" encoding="iso-8859-1"?>
<!-- Generator: Adobe Illustrator 19.0.0, SVG Export Plug-In . SVG Version: 6.00 Build 0)  -->
<svg version="1.1" id="Capa_1" xmlns="http://www.w3.org/2000/svg" xmlns:xlink="http://www.w3.org/1999/xlink" x="0px" y="0px"
	 viewBox="0 0 459.994 459.994" style="enable-background:new 0 0 459.994 459.994;" xml:space="preserve">
<g>
	<path style="fill:#F6D76F;" d="M144.074,249.573c0-9.27,1.474-18.192,4.19-26.557L1.723,175.402
		c-5.522,16.996,2.658,35.152,18.453,42.523l126.138,58.838l1.374-2.479C145.341,266.458,144.074,258.164,144.074,249.573z"/>
	<path style="fill:#F6D76F;" d="M179.493,319.087L88.916,443.756c14.457,10.503,34.252,8.335,46.144-4.409l94.937-101.783
		l-1.95-2.091C209.92,335.068,193.18,329.049,179.493,319.087z"/>
	<path style="fill:#FBB071;" d="M280.502,319.087l90.577,124.669c14.457-10.504,18.512-30.001,10.066-45.249l-67.464-121.743
		l-2.567,1.198C305.29,294.603,294.493,308.904,280.502,319.087z"/>
	<path style="fill:#FF835D;" d="M458.272,175.402l-146.541,47.614c-5.862-18.053-17.536-33.482-32.817-44.084l2.802-0.545
		L264.737,40.241c-2.13-17.3-16.87-30.689-34.74-30.689v184.1c30.84,0,55.92,25.09,55.92,55.92c0,30.84-25.08,55.93-55.92,55.93
		v29.996c-0.652,0-1.302-0.01-1.95-0.024l1.95,2.091l94.937,101.783c11.892,12.744,31.687,14.912,46.144,4.409l-90.577-124.669
		c13.991-10.183,24.788-24.484,30.612-41.125l2.567-1.198l126.138-58.838C455.614,210.555,463.794,192.398,458.272,175.402z"/>
	<path style="fill:#FBB071;" d="M311.731,223.017l146.541-47.614c-5.522-16.995-22.812-26.876-39.923-23.556l-136.632,26.541
		l-2.802,0.545C294.195,189.534,305.869,204.964,311.731,223.017z"/>
	<path style="fill:#FBB071;" d="M228.047,335.473c0.649,0.015,1.298,0.024,1.95,0.024v-29.996c-30.84,0-55.92-25.09-55.92-55.93
		c0-30.83,25.08-55.92,55.92-55.92V9.552c-17.87,0-32.61,13.39-34.74,30.689l-16.979,138.146L41.646,151.847
		c-17.112-3.32-34.401,6.561-39.923,23.556l146.541,47.614c-2.716,8.364-4.19,17.287-4.19,26.557c0,8.591,1.267,16.885,3.613,24.712
		l-1.374,2.479L78.85,398.507c-8.445,15.248-4.391,34.745,10.066,45.249l90.577-124.669
		C193.18,329.049,209.92,335.068,228.047,335.473z"/>
	<path style="fill:#FBB071;" d="M255.917,249.571c0,14.3-11.63,25.93-25.92,25.93v30c30.84,0,55.92-25.09,55.92-55.93
		c0-30.83-25.08-55.92-55.92-55.92v30C244.287,223.651,255.917,235.281,255.917,249.571z"/>
	<path style="fill:#FF835D;" d="M255.917,249.571c0-14.29-11.63-25.92-25.92-25.92v51.85
		C244.287,275.501,255.917,263.871,255.917,249.571z"/>
	<path style="fill:#F6D76F;" d="M174.077,249.571c0,30.84,25.08,55.93,55.92,55.93v-30c-14.29,0-25.92-11.63-25.92-25.93
		c0-14.29,11.63-25.92,25.92-25.92v-30C199.157,193.651,174.077,218.741,174.077,249.571z"/>
	<path style="fill:#FBB071;" d="M229.997,223.651c-14.29,0-25.92,11.63-25.92,25.92c0,14.3,11.63,25.93,25.92,25.93V223.651z"/>
</g>
<g>
</g>
<g>
</g>
<g>
</g>
<g>
</g>
<g>
</g>
<g>
</g>
<g>
</g>
<g>
</g>
<g>
</g>
<g>
</g>
<g>
</g>
<g>
</g>
<g>
</g>
<g>
</g>
<g>
</g>
</svg>
