<?xml version="1.0" encoding="iso-8859-1"?>
<!-- Generator: Adobe Illustrator 19.0.0, SVG Export Plug-In . SVG Version: 6.00 Build 0)  -->
<svg version="1.1" id="Capa_1" xmlns="http://www.w3.org/2000/svg" xmlns:xlink="http://www.w3.org/1999/xlink" x="0px" y="0px"
	 viewBox="0 0 460 460" style="enable-background:new 0 0 460 460;" xml:space="preserve">
<g>
	<path style="fill:#FBB071;" d="M90,434h35V322.406c-10.418,5.379-22.234,9.221-35,11.519V434z"/>
	<path style="fill:#FF835D;" d="M335,317.648V434h35V289.489C361.203,302.019,349.194,311.677,335,317.648z"/>
	<path style="fill:#FAE8AC;" d="M356.01,132.13v103.81c0,19.28-6.99,35.7-19.69,46.23c-8.592,7.124-19.357,11.227-31.32,12.142
		v30.076c10.723-0.564,20.819-2.878,30-6.741c14.194-5.971,26.203-15.629,35-28.159c10.139-14.44,16.01-32.696,16.01-53.549V116.56
		L356.01,132.13z"/>
	<path style="fill:#FDF3D3;" d="M270,290.21l-102.779-19.34c-2.64,10.627-7.217,19.964-13.394,28.006L270,320.74V290.21z"/>
	<path style="fill:#F6D76F;" d="M139.819,242.069v-68.737L61.073,184.18C42.337,171.619,30,150.252,30,126c0-38.66,31.34-70,70-70
		V26C44.771,26,0,70.771,0,126c0,41.005,24.684,76.239,60,91.671V304H25v130h35v-97.5c10.401,0,20.464-0.858,30-2.575
		c12.766-2.298,24.582-6.14,35-11.519c11.532-5.954,21.349-13.794,28.827-23.53c6.177-8.042,10.754-17.379,13.394-28.006
		c1.696-6.827,2.598-14.182,2.598-22.077v-6.724H139.819z"/>
	<path style="fill:#325763;" d="M126.484,56c8.284,0,15-6.716,15-15c0-8.284-6.716-15-15-15H100v30H126.484z"/>
	<path style="fill:#F6D76F;" d="M386.01,189c22.865,0,41.552-17.852,42.904-39.638l12.113-4.038
		C451.462,138.846,460,127.56,460,116.56h-73.99V189z"/>
	<polygon style="fill:#325763;" points="139.819,242.069 169.819,242.069 169.819,169.199 139.819,173.332 	"/>
	<polygon style="fill:#05232E;" points="289.819,242.069 289.819,152.667 259.819,156.8 259.819,242.069 	"/>
	<polygon style="fill:#05232E;" points="199.819,242.069 229.819,242.069 229.819,160.933 199.819,165.066 	"/>
	<path style="fill:#FBB071;" d="M440,86.143L420,69h-33.99V39c-16.569,0-30,13.431-30,30l-66.191,83.667v89.402h-30V156.8l-30,4.133
		v81.136h-30v-77.003l-30,4.133v79.594c0,7.895-0.902,15.25-2.598,22.077L270,290.21V434h35V294.312
		c11.963-0.915,22.729-5.018,31.32-12.142c12.7-10.53,19.69-26.95,19.69-46.23V132.13l30-15.57H460V89L440,86.143z"/>
</g>
<g>
</g>
<g>
</g>
<g>
</g>
<g>
</g>
<g>
</g>
<g>
</g>
<g>
</g>
<g>
</g>
<g>
</g>
<g>
</g>
<g>
</g>
<g>
</g>
<g>
</g>
<g>
</g>
<g>
</g>
</svg>
