<?xml version="1.0" encoding="iso-8859-1"?>
<!-- Generator: Adobe Illustrator 19.0.0, SVG Export Plug-In . SVG Version: 6.00 Build 0)  -->
<svg version="1.1" id="Capa_1" xmlns="http://www.w3.org/2000/svg" xmlns:xlink="http://www.w3.org/1999/xlink" x="0px" y="0px"
	 viewBox="0 0 460 460" style="enable-background:new 0 0 460 460;" xml:space="preserve">
<g>
	<path style="fill:#8F5543;" d="M420,75.82c0-26.88-21.79-48.67-48.67-48.67c-31.5,0-62.04,4.07-91.11,11.73v323.97H310
		c9.59,0,18.896-1.237,27.77-3.555l22.834-112.418c3.03-14.914,16.93-25.396,32.396-23.842S420,237.631,420,252.85V135.82h40v-60
		H420z"/>
	<path style="fill:#C97E67;" d="M134.904,342.85c15.602,0,29.346,7.941,37.418,20H280.22V38.88
		C136.799,76.612,28.859,201.343,16.1,353.365c7.822-6.558,17.899-10.515,28.9-10.515H134.904z M220.22,96.85h30v30h-30V96.85z
		 M220.22,179.85h30v30h-30V179.85z M138.871,239.85h30v30h-30V239.85z M98.871,199.85h30v30h-30V199.85z M74.904,282.85h30v30h-30
		V282.85z"/>
	<path style="fill:#C97E67;" d="M420,252.85l-0.005,101.706C444.79,327.771,460,292.003,460,252.85V135.82h-40V252.85z"/>
	<path style="fill:#C97E67;" d="M337.77,359.295c-8.874,2.317-18.18,3.555-27.77,3.555h-29.78v40H310
		c6.493,0,12.892-0.42,19.173-1.23L337.77,359.295z"/>
	<path style="fill:#FBB071;" d="M280.22,362.85H172.322c4.787,7.15,7.582,15.748,7.582,25c0,5.261-0.911,10.308-2.57,15H280.22
		V362.85z"/>
	<path style="fill:#FBB071;" d="M420,252.85c0-15.219-11.535-28.26-27-29.814s-29.366,8.928-32.396,23.842L337.77,359.295
		l-8.597,42.324l-0.25,1.23v30H460c0-16.568-13.431-30-30-30h-10.007l0.002-48.294L420,252.85z"/>
	<path style="fill:#8F5543;" d="M134.904,432.85h96.617c0-16.568-13.432-30-30-30h-24.188
		C171.155,420.327,154.497,432.85,134.904,432.85z"/>
	<path style="fill:#F6D76F;" d="M179.904,387.85c0-9.252-2.795-17.85-7.582-25c-8.072-12.059-21.816-20-37.418-20H45
		c-11.002,0-21.078,3.957-28.9,10.515c-1.011,0.847-1.989,1.732-2.921,2.664C5.038,364.177,0,375.427,0,387.85H179.904z"/>
	<path style="fill:#C97E67;" d="M177.333,402.85c1.659-4.692,2.57-9.739,2.57-15H0c0,24.854,20.146,45,45,45h89.904
		C154.497,432.85,171.155,420.327,177.333,402.85z"/>
	<rect x="220.22" y="96.85" style="fill:#FBB071;" width="30" height="30"/>
	<rect x="98.871" y="199.85" style="fill:#FBB071;" width="30" height="30"/>
	<rect x="138.871" y="239.85" style="fill:#FBB071;" width="30" height="30"/>
	<rect x="220.22" y="179.85" style="fill:#F6D76F;" width="30" height="30"/>
	<rect x="74.904" y="282.85" style="fill:#F6D76F;" width="30" height="30"/>
</g>
<g>
</g>
<g>
</g>
<g>
</g>
<g>
</g>
<g>
</g>
<g>
</g>
<g>
</g>
<g>
</g>
<g>
</g>
<g>
</g>
<g>
</g>
<g>
</g>
<g>
</g>
<g>
</g>
<g>
</g>
</svg>
