<?xml version="1.0" encoding="iso-8859-1"?>
<!-- Generator: Adobe Illustrator 19.0.0, SVG Export Plug-In . SVG Version: 6.00 Build 0)  -->
<svg version="1.1" id="Capa_1" xmlns="http://www.w3.org/2000/svg" xmlns:xlink="http://www.w3.org/1999/xlink" x="0px" y="0px"
	 viewBox="0 0 460 460" style="enable-background:new 0 0 460 460;" xml:space="preserve">
<g>
	<path style="fill:#B9F291;" d="M410,207.5c-27.614,0-50,22.386-50,50h100C460,229.886,437.614,207.5,410,207.5z"/>
	<rect x="360" y="257.5" style="fill:#84D993;" width="100" height="30"/>
	<rect y="257.5" style="fill:#84D993;" width="30" height="30"/>
	<rect x="30" y="287.5" style="fill:#B9F291;" width="80" height="80"/>
	<rect x="280" y="287.5" style="fill:#84D993;" width="80" height="80"/>
	<rect x="110" y="287.5" style="fill:#F6D76F;" width="170" height="30"/>
	<rect x="195" y="257.5" style="fill:#578C76;" width="165" height="30"/>
	<rect x="30" y="257.5" style="fill:#50BF94;" width="165" height="30"/>
	<path style="fill:#50BF94;" d="M195,205.938V257.5h165c0-50.511-22.698-95.73-58.451-125.988
		C285.647,174.938,243.943,205.938,195,205.938z"/>
	<path style="fill:#84D993;" d="M301.549,131.512C272.808,107.175,235.621,92.5,195,92.5v113.438
		C243.943,205.938,285.647,174.938,301.549,131.512z"/>
	<path style="fill:#84D993;" d="M195,257.5v-51.563c-48.943,0-90.647-30.999-106.549-74.426C52.698,161.77,30,206.989,30,257.5H195z
		"/>
	<path style="fill:#B9F291;" d="M195,205.938V92.5c-40.621,0-77.808,14.675-106.549,39.012
		C104.353,174.938,146.057,205.938,195,205.938z"/>
</g>
<g>
</g>
<g>
</g>
<g>
</g>
<g>
</g>
<g>
</g>
<g>
</g>
<g>
</g>
<g>
</g>
<g>
</g>
<g>
</g>
<g>
</g>
<g>
</g>
<g>
</g>
<g>
</g>
<g>
</g>
</svg>
