<?xml version="1.0" encoding="iso-8859-1"?>
<!-- Generator: Adobe Illustrator 19.0.0, SVG Export Plug-In . SVG Version: 6.00 Build 0)  -->
<svg version="1.1" id="Capa_1" xmlns="http://www.w3.org/2000/svg" xmlns:xlink="http://www.w3.org/1999/xlink" x="0px" y="0px"
	 viewBox="0 0 460.005 460.005" style="enable-background:new 0 0 460.005 460.005;" xml:space="preserve">
<g>
	<path style="fill:#FAE8AC;" d="M382.19,159.988c-0.001,75.11-60.89,135.999-136,135.999c-5.01,0-9.956-0.274-14.825-0.802
		l55.974,55.974c74.675-31.327,127.131-105.122,127.131-191.172C414.465,159.988,382.19,159.988,382.19,159.988z"/>
	<path style="fill:#FAEAB6;" d="M195.755,286.324c-27.936-11.163-51.299-31.325-66.517-56.902c3.489-3.6,5.646-8.5,5.646-13.909
		c0-11.046-8.954-20-20-20c-0.023,0-0.045,0.003-0.068,0.003H3.14l-0.1-0.04c-0.007-0.038-0.012-0.077-0.019-0.115
		c0.009,0.059,0.006,0.114,0.016,0.173c16.858,97.513,101.872,171.682,204.193,171.682
		C185.317,345.305,181.505,312.165,195.755,286.324z"/>
	<path style="fill:#4AD0FF;" d="M246.19,295.987v-136H0c0,12.06,1.044,23.871,3.021,35.375c0.007,0.038,0.012,0.077,0.019,0.115
		l0.1,0.04h111.676c0.023,0,0.045-0.003,0.068-0.003c11.046,0,20,8.954,20,20c0,5.409-2.157,10.308-5.646,13.909
		c15.218,25.577,38.581,45.739,66.517,56.902c-14.25,25.841-10.438,58.98,11.475,80.893c26.556,26.556,69.611,26.556,96.167,0
		l-72.032-72.031C236.234,295.714,241.18,295.987,246.19,295.987z"/>
	<path style="fill:#16A5D9;" d="M460.005,74.382c-23.35-5.075-46.451,2.965-61.675,19.173v42.502
		c-5.588,0-10.997-0.756-16.144-2.149v26.079H246.19v60h30v30h-30v46c75.11,0,135.999-60.889,136-135.999h32.275V133.91
		C440.699,126.816,460.005,102.859,460.005,74.382z M336.19,219.987h-30v-30h30V219.987z"/>
	<path style="fill:#4AD0FF;" d="M398.33,93.555c-15.235-16.209-38.336-24.248-61.675-19.173c0,28.474,19.302,52.429,45.531,59.526
		c5.147,1.393,10.556,2.149,16.144,2.149V93.555z"/>
	<rect x="306.19" y="189.987" style="fill:#99E5FF;" width="30" height="30"/>
	<rect x="246.19" y="219.987" style="fill:#99E5FF;" width="30" height="30"/>
</g>
<g>
</g>
<g>
</g>
<g>
</g>
<g>
</g>
<g>
</g>
<g>
</g>
<g>
</g>
<g>
</g>
<g>
</g>
<g>
</g>
<g>
</g>
<g>
</g>
<g>
</g>
<g>
</g>
<g>
</g>
</svg>
