<?xml version="1.0" encoding="iso-8859-1"?>
<!-- Generator: Adobe Illustrator 19.0.0, SVG Export Plug-In . SVG Version: 6.00 Build 0)  -->
<svg version="1.1" id="Capa_1" xmlns="http://www.w3.org/2000/svg" xmlns:xlink="http://www.w3.org/1999/xlink" x="0px" y="0px"
	 viewBox="0 0 460 460" style="enable-background:new 0 0 460 460;" xml:space="preserve">
<g>
	<path style="fill:#6B8F9C;" d="M420,65c0-16.569-13.432-30-30-30v40h30V65z"/>
	<path style="fill:#05232E;" d="M460,75h-90V65c0-16.569-13.432-30-30-30v40l-50,73.45V278.7l20,4.211V425h30V286.348
		c10.727-0.344,20.825-2.501,30-6.242c11.711-4.775,21.917-12.128,30-21.586c12.56-14.695,20-34.463,20-57.52v-79.333L460,115V75z"
		/>
	<path style="fill:#05232E;" d="M160,329.162V425h30v-90c37.632,0,69.177-25.99,77.709-60.995l-58.017-12.22
		C207.119,292.402,187.316,318.101,160,329.162z"/>
	<path style="fill:#325763;" d="M370,280.106V425h30V258.52C391.917,267.978,381.711,275.33,370,280.106z"/>
	<path style="fill:#6B8F9C;" d="M210,156.725V255c0,2.288-0.119,4.546-0.307,6.785l58.017,12.22L290,278.7V148.45L210,156.725z
		 M255,235h-30v-30h30V235z"/>
	<path style="fill:#325763;" d="M209.693,261.785c0.188-2.239,0.307-4.498,0.307-6.785v-98.275L0,178.588
		c19.76,27.181,53.07,43.376,88.9,39.631c15.095-1.578,29.013-6.536,41.1-14.029V285h-30v140h30v-90c10.613,0,20.733-2.085,30-5.838
		C187.316,318.101,207.119,292.402,209.693,261.785z M195,219h-30v-30h30V219z"/>
	<rect x="165" y="189" style="fill:#6B8F9C;" width="30" height="30"/>
	<rect x="225" y="205" style="fill:#325763;" width="30" height="30"/>
</g>
<g>
</g>
<g>
</g>
<g>
</g>
<g>
</g>
<g>
</g>
<g>
</g>
<g>
</g>
<g>
</g>
<g>
</g>
<g>
</g>
<g>
</g>
<g>
</g>
<g>
</g>
<g>
</g>
<g>
</g>
</svg>
